<?xml version="1.0" encoding="UTF-8" standalone="no"?>

<svg
   xmlns:dc="http://purl.org/dc/elements/1.1/"
   xmlns:cc="http://creativecommons.org/ns#"
   xmlns:rdf="http://www.w3.org/1999/02/22-rdf-syntax-ns#"
   xmlns:svg="http://www.w3.org/2000/svg"
   xmlns="http://www.w3.org/2000/svg"
   xmlns:xlink="http://www.w3.org/1999/xlink"
   xmlns:sodipodi="http://sodipodi.sourceforge.net/DTD/sodipodi-0.dtd"
   xmlns:inkscape="http://www.inkscape.org/namespaces/inkscape"
   width="512"
   height="512"
   id="svg2"
   version="1.1"
   inkscape:version="0.48.4 r9939"
   sodipodi:docname="screenshooter.svg">
  <defs
     id="defs4">
    <linearGradient
       gradientTransform="matrix(2.9523813,0,0,3.5999974,-7.3610488,-64.29608)"
       gradientUnits="userSpaceOnUse"
       xlink:href="#linearGradient6592-2-7-7-3"
       id="linearGradient3238"
       y2="19.8125"
       x2="15.25"
       y1="8.4375"
       x1="12.9375" />
    <linearGradient
       id="linearGradient6592-2-7-7-3">
      <stop
         offset="0"
         style="stop-color:#ffffff;stop-opacity:0.27450982"
         id="stop6594-0-2-0-6" />
      <stop
         offset="1"
         style="stop-color:#ffffff;stop-opacity:0"
         id="stop6596-2-5-1-4" />
    </linearGradient>
    <linearGradient
       id="linearGradient6592-2-7-7">
      <stop
         offset="0"
         style="stop-color:#ffffff;stop-opacity:0.27450982"
         id="stop6594-0-2-0" />
      <stop
         offset="1"
         style="stop-color:#ffffff;stop-opacity:0"
         id="stop6596-2-5-1" />
    </linearGradient>
    <linearGradient
       gradientTransform="matrix(2.9523812,0,0,3.5999974,-7.3610487,-64.296077)"
       gradientUnits="userSpaceOnUse"
       xlink:href="#linearGradient6592-2-7-7"
       id="linearGradient3254"
       y2="19.8125"
       x2="15.25"
       y1="8.4375"
       x1="12.9375" />
    <linearGradient
       id="linearGradient6712-0">
      <stop
         offset="0"
         style="stop-color:#3c3c3c;stop-opacity:1"
         id="stop6714-1" />
      <stop
         offset="1"
         style="stop-color:#1e1e1e;stop-opacity:1"
         id="stop6716-3" />
    </linearGradient>
    <radialGradient
       gradientTransform="matrix(3.7780358,0.05354761,-0.03517637,2.9933064,-14.705426,-45.891305)"
       gradientUnits="userSpaceOnUse"
       xlink:href="#linearGradient6712-0"
       id="radialGradient3257"
       fy="4.8630676"
       fx="12.244348"
       r="20.999998"
       cy="4.8630676"
       cx="12.244348" />
    <linearGradient
       id="linearGradient3236">
      <stop
         offset="0"
         style="stop-color:#bebebe;stop-opacity:1"
         id="stop3240" />
      <stop
         offset="1"
         style="stop-color:#e6e6e6;stop-opacity:1"
         id="stop3244" />
    </linearGradient>
    <linearGradient
       gradientTransform="translate(-0.5039056,-63.496083)"
       gradientUnits="userSpaceOnUse"
       xlink:href="#linearGradient3236"
       id="linearGradient3234"
       y2="9.0004082"
       x2="64"
       y1="98.144615"
       x1="64" />
    <linearGradient
       id="linearGradient3342-7">
      <stop
         offset="0"
         style="stop-color:#ffffff;stop-opacity:0"
         id="stop3344-7" />
      <stop
         offset="1"
         style="stop-color:#ffffff;stop-opacity:1"
         id="stop3346-2" />
    </linearGradient>
    <linearGradient
       spreadMethod="reflect"
       gradientTransform="matrix(3.1282824,0,0,2.6666665,-10.262791,-71.252086)"
       gradientUnits="userSpaceOnUse"
       xlink:href="#linearGradient3342-7"
       id="linearGradient3218"
       y2="46.971004"
       x2="23.578077"
       y1="46.971004"
       x1="15.573899" />
    <linearGradient
       id="linearGradient3924-9">
      <stop
         offset="0"
         style="stop-color:#464646;stop-opacity:1"
         id="stop3926-0" />
      <stop
         offset="0.10079991"
         style="stop-color:#787878;stop-opacity:1"
         id="stop3928-9" />
      <stop
         offset="0.56052971"
         style="stop-color:#828282;stop-opacity:1"
         id="stop3930-9" />
      <stop
         offset="0.64530003"
         style="stop-color:#828282;stop-opacity:1"
         id="stop3932-4" />
      <stop
         offset="1"
         style="stop-color:#646464;stop-opacity:1"
         id="stop3934-5" />
    </linearGradient>
    <linearGradient
       gradientTransform="matrix(2.6843014,0,0,2.5456046,-102.93059,-55.729013)"
       gradientUnits="userSpaceOnUse"
       xlink:href="#linearGradient3924-9"
       id="linearGradient3223"
       y2="43.378311"
       x2="61.968769"
       y1="35.053661"
       x1="61.968769" />
    <linearGradient
       id="linearGradient3912-6">
      <stop
         offset="0"
         style="stop-color:#787878;stop-opacity:1"
         id="stop3914-4" />
      <stop
         offset="0.35046947"
         style="stop-color:#b4b4b4;stop-opacity:1"
         id="stop3916-5" />
      <stop
         offset="0.49417919"
         style="stop-color:#c8c8c8;stop-opacity:1"
         id="stop3918-2" />
      <stop
         offset="0.58907253"
         style="stop-color:#e6e6e6;stop-opacity:1"
         id="stop3920-0" />
      <stop
         offset="1"
         style="stop-color:#8c8c8c;stop-opacity:1"
         id="stop3922-2" />
    </linearGradient>
    <linearGradient
       gradientTransform="matrix(2.6746618,0,0,2.5459707,-894.48277,-185.58723)"
       gradientUnits="userSpaceOnUse"
       xlink:href="#linearGradient3912-6"
       id="linearGradient3221"
       y2="94.396416"
       x2="361.10583"
       y1="87.050117"
       x1="361.10583" />
    <linearGradient
       id="linearGradient10691-1-1">
      <stop
         offset="0"
         style="stop-color:#000000;stop-opacity:1"
         id="stop10693-3-0" />
      <stop
         offset="1"
         style="stop-color:#000000;stop-opacity:0"
         id="stop10695-1-3" />
    </linearGradient>
    <radialGradient
       gradientTransform="matrix(5.2570306,0,0,1.1067431,28.259731,-28.969771)"
       gradientUnits="userSpaceOnUse"
       xlink:href="#linearGradient10691-1-1"
       id="radialGradient3245"
       fy="73.615715"
       fx="6.702713"
       r="7.228416"
       cy="73.615715"
       cx="6.702713" />
    <linearGradient
       id="linearGradient5047">
      <stop
         offset="0"
         style="stop-color:#e7d198;stop-opacity:1"
         id="stop5049" />
      <stop
         offset="1"
         style="stop-color:#ba964a;stop-opacity:1"
         id="stop5051" />
    </linearGradient>
    <linearGradient
       gradientTransform="matrix(2.6250001,0,0,4.6250006,-901.31253,-95.812505)"
       gradientUnits="userSpaceOnUse"
       xlink:href="#linearGradient5047"
       id="linearGradient3697"
       y2="33"
       x2="385"
       y1="8"
       x1="385" />
    <linearGradient
       id="linearGradient5093">
      <stop
         offset="0"
         style="stop-color:#ffffff;stop-opacity:1"
         id="stop5095" />
      <stop
         offset="1"
         style="stop-color:#ffffff;stop-opacity:0"
         id="stop5097" />
    </linearGradient>
    <linearGradient
       gradientTransform="matrix(3.1666667,0,0,4.9545457,-1109.5834,-102.56818)"
       gradientUnits="userSpaceOnUse"
       xlink:href="#linearGradient5093"
       id="linearGradient4272"
       y2="32"
       x2="384"
       y1="9"
       x1="384" />
    <linearGradient
       id="linearGradient3937-859-978-64-227">
      <stop
         offset="0"
         style="stop-color:#ffffff;stop-opacity:0.3019608"
         id="stop7104" />
      <stop
         offset="1"
         style="stop-color:#feffff;stop-opacity:0.40000001"
         id="stop7106" />
    </linearGradient>
    <linearGradient
       gradientTransform="matrix(0,5.8666476,5.8666476,0,-107.03294,-233.43246)"
       gradientUnits="userSpaceOnUse"
       xlink:href="#linearGradient3937-859-978-64-227"
       id="linearGradient4274"
       y2="26.714281"
       x2="45.873367"
       y1="26.714281"
       x1="30.142857" />
    <linearGradient
       id="linearGradient3985-746-156-539-972">
      <stop
         offset="0"
         style="stop-color:#ffffff;stop-opacity:1"
         id="stop7110" />
      <stop
         offset="1"
         style="stop-color:#ffffff;stop-opacity:0"
         id="stop7112" />
    </linearGradient>
    <linearGradient
       gradientTransform="matrix(4.8244191,0,0,4.8244205,-848.85923,-138.91768)"
       gradientUnits="userSpaceOnUse"
       xlink:href="#linearGradient3985-746-156-539-972"
       id="linearGradient4276"
       y2="36.026299"
       x2="188"
       y1="17"
       x1="188" />
    <linearGradient
       id="linearGradient3985-6-635-120-628-965">
      <stop
         offset="0"
         style="stop-color:#ffffff;stop-opacity:1"
         id="stop7116" />
      <stop
         offset="1"
         style="stop-color:#ffffff;stop-opacity:0"
         id="stop7118" />
    </linearGradient>
    <linearGradient
       gradientTransform="matrix(3.6057986,0,0,3.6071671,-628.53078,-100.37948)"
       gradientUnits="userSpaceOnUse"
       xlink:href="#linearGradient3985-6-635-120-628-965"
       id="linearGradient4278"
       y2="24.519934"
       x2="182"
       y1="33"
       x1="182" />
    <linearGradient
       inkscape:collect="always"
       xlink:href="#linearGradient3985-6-635-120-628-965"
       id="linearGradient7554"
       gradientUnits="userSpaceOnUse"
       gradientTransform="matrix(11.590067,0,0,11.594465,-2436.6584,431.11467)"
       x1="182"
       y1="33"
       x2="182"
       y2="24.519934" />
    <linearGradient
       inkscape:collect="always"
       xlink:href="#linearGradient3985-746-156-539-972"
       id="linearGradient7557"
       gradientUnits="userSpaceOnUse"
       gradientTransform="matrix(15.507061,0,0,15.507065,-3144.857,307.24189)"
       x1="188"
       y1="17"
       x2="188"
       y2="36.026299" />
    <linearGradient
       inkscape:collect="always"
       xlink:href="#linearGradient3937-859-978-64-227"
       id="linearGradient7560"
       gradientUnits="userSpaceOnUse"
       gradientTransform="matrix(0,18.857081,18.857081,0,-760.41539,3.4443972)"
       x1="30.142857"
       y1="26.714281"
       x2="45.873367"
       y2="26.714281" />
    <linearGradient
       inkscape:collect="always"
       xlink:href="#linearGradient5093"
       id="linearGradient7563"
       gradientUnits="userSpaceOnUse"
       gradientTransform="matrix(10.178571,0,0,15.925325,-3995.1211,382.96846)"
       x1="384"
       y1="9"
       x2="384"
       y2="32" />
    <linearGradient
       inkscape:collect="always"
       xlink:href="#linearGradient5047"
       id="linearGradient7566"
       gradientUnits="userSpaceOnUse"
       gradientTransform="matrix(8.4375,0,0,14.866073,-3325.6791,404.68312)"
       x1="385"
       y1="8"
       x2="385"
       y2="33" />
    <linearGradient
       inkscape:collect="always"
       xlink:href="#linearGradient6592-2-7-7-3"
       id="linearGradient7594"
       gradientUnits="userSpaceOnUse"
       gradientTransform="matrix(9.4897967,0,0,11.57142,-438.42177,545.47731)"
       x1="12.9375"
       y1="8.4375"
       x2="15.25"
       y2="19.8125" />
    <radialGradient
       inkscape:collect="always"
       xlink:href="#linearGradient6712-0"
       id="radialGradient7601"
       gradientUnits="userSpaceOnUse"
       gradientTransform="matrix(12.143686,0.17211731,-0.1130669,9.6213417,4.637974,642.41329)"
       cx="12.244348"
       cy="4.8630676"
       fx="12.244348"
       fy="4.8630676"
       r="20.999998" />
    <linearGradient
       inkscape:collect="always"
       xlink:href="#linearGradient3236"
       id="linearGradient7604"
       gradientUnits="userSpaceOnUse"
       gradientTransform="matrix(3.2142856,0,0,3.2142856,50.285716,585.8265)"
       x1="64"
       y1="98.144615"
       x2="64"
       y2="9.0004082" />
    <linearGradient
       inkscape:collect="always"
       xlink:href="#linearGradient3342-7"
       id="linearGradient7607"
       gradientUnits="userSpaceOnUse"
       gradientTransform="matrix(10.055193,0,0,8.5714277,18.917872,560.8965)"
       spreadMethod="reflect"
       x1="15.573899"
       y1="46.971004"
       x2="23.578077"
       y2="46.971004" />
    <linearGradient
       inkscape:collect="always"
       xlink:href="#linearGradient3912-6"
       id="linearGradient7610"
       gradientUnits="userSpaceOnUse"
       gradientTransform="matrix(8.5971269,0,0,8.183477,-2823.2177,193.39069)"
       x1="361.10583"
       y1="87.050117"
       x2="361.10583"
       y2="94.396416" />
    <linearGradient
       inkscape:collect="always"
       xlink:href="#linearGradient3924-9"
       id="linearGradient7612"
       gradientUnits="userSpaceOnUse"
       gradientTransform="matrix(8.6281113,0,0,8.1823002,-278.9429,610.79209)"
       x1="61.968769"
       y1="35.053661"
       x2="61.968769"
       y2="43.378311" />
    <linearGradient
       inkscape:collect="always"
       xlink:href="#linearGradient3912-5"
       id="linearGradient35508"
       gradientUnits="userSpaceOnUse"
       gradientTransform="matrix(8.5971269,0,0,8.9662764,-2823.2177,132.15101)"
       x1="361.10583"
       y1="87.050117"
       x2="361.10583"
       y2="94.396416" />
    <linearGradient
       id="linearGradient3912-5">
      <stop
         offset="0"
         style="stop-color:#787878;stop-opacity:1"
         id="stop3914-9" />
      <stop
         offset="0.35046947"
         style="stop-color:#b4b4b4;stop-opacity:1"
         id="stop3916-2" />
      <stop
         offset="0.49417919"
         style="stop-color:#c8c8c8;stop-opacity:1"
         id="stop3918-3" />
      <stop
         offset="0.58907253"
         style="stop-color:#e6e6e6;stop-opacity:1"
         id="stop3920-7" />
      <stop
         offset="1"
         style="stop-color:#8c8c8c;stop-opacity:1"
         id="stop3922-6" />
    </linearGradient>
    <linearGradient
       inkscape:collect="always"
       xlink:href="#linearGradient3924-6"
       id="linearGradient35510"
       gradientUnits="userSpaceOnUse"
       gradientTransform="matrix(8.6281113,0,0,8.9649871,-278.94289,589.47937)"
       x1="61.968769"
       y1="35.053661"
       x2="61.968769"
       y2="43.378311" />
    <linearGradient
       id="linearGradient3924-6">
      <stop
         offset="0"
         style="stop-color:#464646;stop-opacity:1"
         id="stop3926-5" />
      <stop
         offset="0.10079991"
         style="stop-color:#787878;stop-opacity:1"
         id="stop3928-4" />
      <stop
         offset="0.56052971"
         style="stop-color:#828282;stop-opacity:1"
         id="stop3930-0" />
      <stop
         offset="0.64530003"
         style="stop-color:#828282;stop-opacity:1"
         id="stop3932-0" />
      <stop
         offset="1"
         style="stop-color:#646464;stop-opacity:1"
         id="stop3934-3" />
    </linearGradient>
    <linearGradient
       inkscape:collect="always"
       xlink:href="#linearGradient3342-0"
       id="linearGradient35512"
       gradientUnits="userSpaceOnUse"
       gradientTransform="matrix(10.055193,0,0,9.391337,18.917875,534.81096)"
       spreadMethod="reflect"
       x1="15.573899"
       y1="46.971004"
       x2="23.578077"
       y2="46.971004" />
    <linearGradient
       id="linearGradient3342-0">
      <stop
         offset="0"
         style="stop-color:#ffffff;stop-opacity:0"
         id="stop3344-7-9" />
      <stop
         offset="1"
         style="stop-color:#ffffff;stop-opacity:1"
         id="stop3346-6" />
    </linearGradient>
    <linearGradient
       inkscape:collect="always"
       xlink:href="#linearGradient3912-5"
       id="linearGradient35514"
       gradientUnits="userSpaceOnUse"
       gradientTransform="matrix(3.2142856,0,0,3.5217516,50.285717,562.12568)"
       x1="64"
       y1="98.144615"
       x2="64"
       y2="9.0004082" />
    <linearGradient
       id="linearGradient3645">
      <stop
         offset="0"
         style="stop-color:#787878;stop-opacity:1"
         id="stop3647" />
      <stop
         offset="0.35046947"
         style="stop-color:#b4b4b4;stop-opacity:1"
         id="stop3649" />
      <stop
         offset="0.49417919"
         style="stop-color:#c8c8c8;stop-opacity:1"
         id="stop3651" />
      <stop
         offset="0.58907253"
         style="stop-color:#e6e6e6;stop-opacity:1"
         id="stop3653" />
      <stop
         offset="1"
         style="stop-color:#8c8c8c;stop-opacity:1"
         id="stop3655" />
    </linearGradient>
    <linearGradient
       inkscape:collect="always"
       xlink:href="#linearGradient3912-5"
       id="linearGradient7814"
       gradientUnits="userSpaceOnUse"
       gradientTransform="matrix(3.1613241,0,0,3.6520392,-426.72302,517.74879)"
       x1="64"
       y1="98.144615"
       x2="64"
       y2="9.0004082" />
    <linearGradient
       inkscape:collect="always"
       xlink:href="#linearGradient3342-0"
       id="linearGradient7817"
       gradientUnits="userSpaceOnUse"
       gradientTransform="matrix(9.8895145,0,0,9.7387705,-457.57401,489.42356)"
       spreadMethod="reflect"
       x1="15.573899"
       y1="46.971004"
       x2="23.578077"
       y2="46.971004" />
    <linearGradient
       inkscape:collect="always"
       xlink:href="#linearGradient3912-5"
       id="linearGradient7820"
       gradientUnits="userSpaceOnUse"
       gradientTransform="matrix(8.4554728,0,0,9.2979847,-3252.88,71.867167)"
       x1="361.10583"
       y1="87.050117"
       x2="361.10583"
       y2="94.396416" />
    <linearGradient
       inkscape:collect="always"
       xlink:href="#linearGradient3924-6"
       id="linearGradient7822"
       gradientUnits="userSpaceOnUse"
       gradientTransform="matrix(8.4859467,0,0,9.2966477,-750.52695,546.11444)"
       x1="61.968769"
       y1="35.053661"
       x2="61.968769"
       y2="43.378311" />
    <linearGradient
       inkscape:collect="always"
       xlink:href="#linearGradient3912-5"
       id="linearGradient3357"
       gradientUnits="userSpaceOnUse"
       gradientTransform="matrix(3.1613241,0,0,3.6520392,53.67525,573.28486)"
       x1="64"
       y1="98.144615"
       x2="64"
       y2="9.0004082" />
    <linearGradient
       inkscape:collect="always"
       xlink:href="#linearGradient3342-0"
       id="linearGradient3360"
       gradientUnits="userSpaceOnUse"
       gradientTransform="matrix(9.8895145,0,0,9.7387705,22.82426,544.95963)"
       spreadMethod="reflect"
       x1="15.573899"
       y1="46.971004"
       x2="23.578077"
       y2="46.971004" />
    <linearGradient
       inkscape:collect="always"
       xlink:href="#linearGradient3912-5"
       id="linearGradient3363"
       gradientUnits="userSpaceOnUse"
       gradientTransform="matrix(8.4554728,0,0,9.2979847,-2772.4817,127.40324)"
       x1="361.10583"
       y1="87.050117"
       x2="361.10583"
       y2="94.396416" />
    <linearGradient
       inkscape:collect="always"
       xlink:href="#linearGradient3924-6"
       id="linearGradient3365"
       gradientUnits="userSpaceOnUse"
       gradientTransform="matrix(8.4859467,0,0,9.2966477,-270.12868,601.65051)"
       x1="61.968769"
       y1="35.053661"
       x2="61.968769"
       y2="43.378311" />
    <linearGradient
       gradientTransform="matrix(-2.669076,0,0,3.1691493,171.99415,18.59292)"
       gradientUnits="userSpaceOnUse"
       xlink:href="#linearGradient3637"
       id="linearGradient3916"
       y2="17.478098"
       x2="46.069901"
       y1="0.92127591"
       x1="46.069901" />
    <linearGradient
       id="linearGradient3183-0">
      <stop
         offset="0"
         style="stop-color:#c80000;stop-opacity:1"
         id="stop3185-9" />
      <stop
         offset="1"
         style="stop-color:#f3604d;stop-opacity:1"
         id="stop3187-6" />
    </linearGradient>
    <linearGradient
       gradientTransform="translate(-144,104)"
       gradientUnits="userSpaceOnUse"
       xlink:href="#linearGradient3183-0"
       id="linearGradient3913"
       y2="8"
       x2="120"
       y1="8"
       x1="104" />
    <linearGradient
       gradientTransform="translate(-104,104)"
       gradientUnits="userSpaceOnUse"
       xlink:href="#linearGradient3637"
       id="linearGradient3905"
       y2="8"
       x2="120"
       y1="8"
       x1="104" />
    <radialGradient
       gradientTransform="matrix(1.1573129,0,0,0.99590774,-7.551021,0.1971319)"
       gradientUnits="userSpaceOnUse"
       xlink:href="#linearGradient3737-3"
       id="radialGradient3619-3"
       fy="90.171875"
       fx="48"
       r="42"
       cy="90.171875"
       cx="48" />
    <linearGradient
       id="linearGradient3737-3">
      <stop
         offset="0"
         style="stop-color:#ffffff;stop-opacity:1"
         id="stop3739-6" />
      <stop
         offset="1"
         style="stop-color:#ffffff;stop-opacity:0"
         id="stop3741-1" />
    </linearGradient>
    <linearGradient
       gradientUnits="userSpaceOnUse"
       xlink:href="#linearGradient3737-3"
       id="linearGradient3188-8"
       y2="63.893143"
       x2="36.357143"
       y1="6"
       x1="36.357143" />
    <linearGradient
       gradientTransform="matrix(1.0238095,0,0,-1.0119048,-1.1428571,98.071429)"
       gradientUnits="userSpaceOnUse"
       xlink:href="#ButtonShadow-0"
       id="linearGradient3199"
       y2="90.238609"
       x2="32.251034"
       y1="6.1317081"
       x1="32.251034" />
    <linearGradient
       gradientTransform="matrix(1,0,0,-1,0,97)"
       gradientUnits="userSpaceOnUse"
       xlink:href="#ButtonShadow-0"
       id="linearGradient3721"
       y2="90.238609"
       x2="32.251034"
       y1="6.1317081"
       x1="32.251034" />
    <linearGradient
       gradientTransform="matrix(1.0238095,0,0,-1.0119048,-1.1428571,98.071429)"
       gradientUnits="userSpaceOnUse"
       xlink:href="#ButtonShadow-0"
       id="linearGradient3725"
       y2="90.238609"
       x2="32.251034"
       y1="6.1317081"
       x1="32.251034" />
    <linearGradient
       gradientTransform="matrix(1.0238095,0,0,-1.0119048,-1.1428571,98.071429)"
       gradientUnits="userSpaceOnUse"
       xlink:href="#ButtonShadow-0"
       id="linearGradient3772"
       y2="90.238609"
       x2="32.251034"
       y1="6.1317081"
       x1="32.251034" />
    <linearGradient
       gradientTransform="matrix(1.0238095,0,0,-1.0119048,-1.1428571,98.071429)"
       gradientUnits="userSpaceOnUse"
       xlink:href="#ButtonShadow-0"
       id="linearGradient3780"
       y2="90.238609"
       x2="32.251034"
       y1="6.1317081"
       x1="32.251034" />
    <linearGradient
       gradientTransform="matrix(1.0058652,0,0,0.994169,100,0)"
       gradientUnits="userSpaceOnUse"
       id="ButtonShadow-0"
       y2="7.0165396"
       x2="45.447727"
       y1="92.539597"
       x1="45.447727">
      <stop
         offset="0"
         style="stop-color:#000000;stop-opacity:1"
         id="stop3750-8" />
      <stop
         offset="1"
         style="stop-color:#000000;stop-opacity:0.58823532"
         id="stop3752-5" />
    </linearGradient>
    <filter
       id="filter3657"
       color-interpolation-filters="sRGB">
      <feGaussianBlur
         stdDeviation="1.14"
         id="feGaussianBlur3659" />
    </filter>
    <clipPath
       id="clipPath3649">
      <rect
         style="fill:#ffffff;fill-opacity:1;fill-rule:nonzero;stroke:none"
         id="rect3651"
         y="10"
         x="10"
         ry="4"
         rx="4"
         height="76"
         width="76" />
    </clipPath>
    <linearGradient
       gradientUnits="userSpaceOnUse"
       xlink:href="#linearGradient3637"
       id="linearGradient3643"
       y2="90.015434"
       x2="44.512066"
       y1="6"
       x1="44.512066" />
    <clipPath
       id="clipPath3625">
      <path
         style="fill:#ffffff;fill-opacity:1;stroke:none"
         id="path3627"
         inkscape:connector-curvature="0"
         d="M 0,0 0,96 96,96 96,0 0,0 z m 12,6 72,0 c 3.324,0 6,2.676 6,6 l 0,72 c 0,3.324 -2.676,6 -6,6 L 12,90 C 8.676,90 6,87.324 6,84 L 6,12 C 6,8.676 8.676,6 12,6 z" />
    </clipPath>
    <linearGradient
       gradientTransform="translate(0,100)"
       gradientUnits="userSpaceOnUse"
       xlink:href="#linearGradient3700"
       id="linearGradient2843"
       y2="5.9877172"
       x2="48"
       y1="90"
       x1="48" />
    <clipPath
       id="clipPath3613">
      <rect
         style="fill:#ffffff;fill-opacity:1;fill-rule:nonzero;stroke:none"
         id="rect3615"
         y="6"
         x="6"
         ry="6"
         rx="6"
         height="84"
         width="84" />
    </clipPath>
    <radialGradient
       gradientTransform="matrix(1.1573129,0,0,0.99590774,-7.5510206,0.19713193)"
       gradientUnits="userSpaceOnUse"
       xlink:href="#linearGradient3737"
       id="radialGradient3619"
       fy="90.171875"
       fx="48"
       r="42"
       cy="90.171875"
       cx="48" />
    <linearGradient
       gradientUnits="userSpaceOnUse"
       xlink:href="#linearGradient3737"
       id="linearGradient3613"
       y2="138.66119"
       x2="48"
       y1="20.220806"
       x1="48" />
    <filter
       id="filter3794"
       color-interpolation-filters="sRGB"
       height="1.3839999"
       width="1.3839999"
       y="-0.192"
       x="-0.192">
      <feGaussianBlur
         stdDeviation="5.28"
         id="feGaussianBlur3796" />
    </filter>
    <linearGradient
       gradientUnits="userSpaceOnUse"
       xlink:href="#linearGradient3737"
       id="linearGradient3188"
       y2="63.893143"
       x2="36.357143"
       y1="6"
       x1="36.357143" />
    <filter
       id="filter3174"
       color-interpolation-filters="sRGB">
      <feGaussianBlur
         stdDeviation="1.71"
         id="feGaussianBlur3176" />
    </filter>
    <linearGradient
       id="linearGradient3700">
      <stop
         offset="0"
         style="stop-color:#2276c5;stop-opacity:1"
         id="stop3702" />
      <stop
         offset="1"
         style="stop-color:#68baf4;stop-opacity:1"
         id="stop3704" />
    </linearGradient>
    <linearGradient
       id="linearGradient3737">
      <stop
         offset="0"
         style="stop-color:#ffffff;stop-opacity:1"
         id="stop3739" />
      <stop
         offset="1"
         style="stop-color:#ffffff;stop-opacity:0"
         id="stop3741" />
    </linearGradient>
    <linearGradient
       gradientTransform="scale(1.0058652,0.994169)"
       gradientUnits="userSpaceOnUse"
       id="ButtonShadow"
       y2="7.0165396"
       x2="45.447727"
       y1="92.539597"
       x1="45.447727">
      <stop
         offset="0"
         style="stop-color:#000000;stop-opacity:1"
         id="stop3750" />
      <stop
         offset="1"
         style="stop-color:#000000;stop-opacity:0.58823532"
         id="stop3752" />
    </linearGradient>
    <linearGradient
       id="linearGradient3637">
      <stop
         offset="0"
         style="stop-color:#f0f0f0;stop-opacity:1"
         id="stop3639" />
      <stop
         offset="1"
         style="stop-color:#aaaaaa;stop-opacity:1"
         id="stop3641" />
    </linearGradient>
    <linearGradient
       inkscape:collect="always"
       xlink:href="#linearGradient3637"
       id="linearGradient8387"
       gradientUnits="userSpaceOnUse"
       gradientTransform="translate(-104,104)"
       x1="104"
       y1="8"
       x2="120"
       y2="8" />
    <linearGradient
       inkscape:collect="always"
       xlink:href="#linearGradient3183-0"
       id="linearGradient8389"
       gradientUnits="userSpaceOnUse"
       gradientTransform="translate(-144,104)"
       x1="104"
       y1="8"
       x2="120"
       y2="8" />
    <linearGradient
       inkscape:collect="always"
       xlink:href="#linearGradient3637"
       id="linearGradient8391"
       gradientUnits="userSpaceOnUse"
       gradientTransform="matrix(-2.669076,0,0,3.1691493,171.99415,18.59292)"
       x1="46.069901"
       y1="0.92127591"
       x2="46.069901"
       y2="17.478098" />
    <linearGradient
       inkscape:collect="always"
       xlink:href="#linearGradient3637"
       id="linearGradient8396"
       gradientUnits="userSpaceOnUse"
       gradientTransform="matrix(-7.1316766,0,0,8.4678547,-194.57291,638.39781)"
       x1="46.069901"
       y1="0.92127591"
       x2="46.069901"
       y2="17.478098" />
    <linearGradient
       inkscape:collect="always"
       xlink:href="#linearGradient3183-0"
       id="linearGradient8403"
       gradientUnits="userSpaceOnUse"
       gradientTransform="matrix(2.6719646,0,0,2.6719646,-973.48109,-376.25087)"
       x1="104"
       y1="8"
       x2="120"
       y2="8" />
    <linearGradient
       inkscape:collect="always"
       xlink:href="#linearGradient3637"
       id="linearGradient8408"
       gradientUnits="userSpaceOnUse"
       gradientTransform="matrix(2.6719646,0,0,2.6719646,310.83387,-376.25087)"
       x1="104"
       y1="8"
       x2="120"
       y2="8" />
    <linearGradient
       inkscape:collect="always"
       xlink:href="#linearGradient3637"
       id="linearGradient8421"
       gradientUnits="userSpaceOnUse"
       gradientTransform="matrix(-7.1316766,0,0,8.4678547,-194.57291,638.39781)"
       x1="46.069901"
       y1="0.92127591"
       x2="46.069901"
       y2="17.478098" />
    <linearGradient
       inkscape:collect="always"
       xlink:href="#linearGradient3637"
       id="linearGradient3175"
       gradientUnits="userSpaceOnUse"
       gradientTransform="matrix(-21.712116,0,0,14.235651,810.76542,633.21327)"
       x1="46.069901"
       y1="0.92127591"
       x2="46.069901"
       y2="17.478098" />
    <linearGradient
       inkscape:collect="always"
       xlink:href="#linearGradient3637"
       id="linearGradient3183"
       gradientUnits="userSpaceOnUse"
       gradientTransform="matrix(-21.712116,0,0,14.235651,1271.8765,639.87994)"
       x1="46.069901"
       y1="0.92127591"
       x2="46.069901"
       y2="17.478098" />
  </defs>
  <sodipodi:namedview
     id="base"
     pagecolor="#ffffff"
     bordercolor="#666666"
     borderopacity="1.0"
     inkscape:pageopacity="0.0"
     inkscape:pageshadow="2"
     inkscape:zoom="0.9"
     inkscape:cx="213.57778"
     inkscape:cy="248.3506"
     inkscape:document-units="px"
     inkscape:current-layer="layer1"
     showgrid="false"
     inkscape:showpageshadow="false"
     borderlayer="true"
     inkscape:window-width="1366"
     inkscape:window-height="695"
     inkscape:window-x="0"
     inkscape:window-y="0"
     inkscape:window-maximized="1" />
  <metadata
     id="metadata7">
    <rdf:RDF>
      <cc:Work
         rdf:about="">
        <dc:format>image/svg+xml</dc:format>
        <dc:type
           rdf:resource="http://purl.org/dc/dcmitype/StillImage" />
        <dc:title />
      </cc:Work>
    </rdf:RDF>
  </metadata>
  <g
     inkscape:label="Layer 1"
     inkscape:groupmode="layer"
     id="layer1"
     transform="translate(0,-540.3622)">
    <path
       inkscape:connector-curvature="0"
       d="m 203.83815,929.35554 c 0,0 1.25663,39.58299 -4.74392,48.80918 -6.00054,9.22625 -17.94054,15.10709 -17.94054,15.10709 -7.66186,0.96926 -7.72524,12.78289 0,12.78289 l 149.69201,0 c 7.72524,0 7.66347,-11.82601 0,-12.78289 0,0 -11.93948,-5.88087 -17.93994,-15.10709 -6.00046,-9.22616 -4.74391,-48.80918 -4.74391,-48.80918 l -104.27013,0 -0.0536,0 z"
       id="rect1789-2"
       style="fill:url(#linearGradient3363);fill-opacity:1;fill-rule:nonzero;stroke:url(#linearGradient3365);stroke-width:3.39197206;stroke-linecap:round;stroke-linejoin:round;stroke-miterlimit:4;stroke-opacity:1;stroke-dasharray:none;stroke-dashoffset:0.50000001;marker:none;visibility:visible;display:inline;overflow:visible;enable-background:new"
       sodipodi:nodetypes="csccccsccc" />
    <path
       inkscape:connector-curvature="0"
       d="m 181.78731,1002.3995 148.42537,0"
       id="path3340-6"
       style="fill:none;stroke:url(#linearGradient3360);stroke-width:3.39783454px;stroke-linecap:square;stroke-linejoin:miter;stroke-opacity:1" />
    <rect
       width="395.16476"
       height="321.37708"
       rx="8.7814856"
       ry="9.7387705"
       x="58.417618"
       y="607.98114"
       id="rect2722-8"
       style="fill:#1a1a1a;fill-opacity:1;stroke:url(#linearGradient3357);stroke-width:10.09905243;stroke-linecap:round;stroke-linejoin:round;stroke-miterlimit:4;stroke-opacity:1;stroke-dasharray:none;stroke-dashoffset:0.50000001" />
    <g
       id="layer2"
       style="display:none"
       transform="matrix(2.6719646,0,0,2.6719646,-618.57963,598.71819)">
      <rect
         width="86"
         height="85"
         rx="6"
         ry="6"
         x="5"
         y="7"
         clip-path="url(#clipPath3625)"
         id="rect3745"
         style="opacity:0.9;fill:url(#ButtonShadow);fill-opacity:1;fill-rule:nonzero;stroke:none;filter:url(#filter3174)" />
    </g>
    <g
       id="layer1-0"
       style="display:none"
       transform="matrix(2.6719646,0,0,2.6719646,-618.57963,598.71819)">
      <rect
         width="84"
         height="84"
         rx="6"
         ry="6"
         x="6"
         y="6"
         id="rect2419"
         style="opacity:0.8;fill:#000000;fill-opacity:1;fill-rule:nonzero;stroke:none" />
      <path
         d="m 14,10 c -2.216,0 -4,1.784 -4,4 l 0,68 c 0,2.216 1.784,4 4,4 l 68,0 c 2.216,0 4,-1.784 4,-4 l 0,-68 c 0,-2.216 -1.784,-4 -4,-4 l -68,0 z m 0,3.0625 68,0 c 0.578769,0 0.9375,0.358731 0.9375,0.9375 l 0,68 c 0,0.578769 -0.358731,0.9375 -0.9375,0.9375 l -68,0 c -0.578769,0 -0.9375,-0.358731 -0.9375,-0.9375 l 0,-68 c 0,-0.578769 0.358731,-0.9375 0.9375,-0.9375 z"
         inkscape:connector-curvature="0"
         id="rect3726"
         style="opacity:0.07999998;fill:#000000;fill-opacity:1;fill-rule:nonzero;stroke:none" />
      <path
         d="M 12,6 C 8.676,6 6,8.676 6,12 l 0,72 c 0,3.324 2.676,6 6,6 l 72,0 c 3.324,0 6,-2.676 6,-6 L 90,12 C 90,8.676 87.324,6 84,6 L 12,6 z m 2,4 68,0 c 2.216,0 4,1.784 4,4 l 0,68 c 0,2.216 -1.784,4 -4,4 l -68,0 c -2.216,0 -4,-1.784 -4,-4 l 0,-68 c 0,-2.216 1.784,-4 4,-4 z"
         inkscape:connector-curvature="0"
         id="rect3629"
         style="fill:url(#linearGradient3643);fill-opacity:1;fill-rule:nonzero;stroke:none" />
      <path
         d="M 12,6 C 8.676,6 6,8.676 6,12 l 0,2 0,68 0,2 c 0,0.334721 0.04135,0.6507 0.09375,0.96875 0.0487,0.295596 0.09704,0.596915 0.1875,0.875 0.00988,0.03038 0.020892,0.0636 0.03125,0.09375 0.098865,0.287771 0.2348802,0.547452 0.375,0.8125 0.1445918,0.273507 0.3156161,0.535615 0.5,0.78125 0.1843839,0.245635 0.3737765,0.473472 0.59375,0.6875 0.439947,0.428056 0.94291,0.814526 1.5,1.09375 0.278545,0.139612 0.5734731,0.246947 0.875,0.34375 -0.2562018,-0.100222 -0.4867109,-0.236272 -0.71875,-0.375 -0.00741,-0.0044 -0.023866,0.0045 -0.03125,0 -0.031933,-0.0193 -0.062293,-0.04251 -0.09375,-0.0625 -0.120395,-0.0767 -0.2310226,-0.163513 -0.34375,-0.25 -0.1061728,-0.0808 -0.2132809,-0.161112 -0.3125,-0.25 C 8.4783201,88.557317 8.3087904,88.373362 8.15625,88.1875 8.0486711,88.057245 7.9378561,87.922215 7.84375,87.78125 7.818661,87.74287 7.805304,87.69538 7.78125,87.65625 7.716487,87.553218 7.6510225,87.451733 7.59375,87.34375 7.4927417,87.149044 7.3880752,86.928049 7.3125,86.71875 7.30454,86.69694 7.288911,86.6782 7.28125,86.65625 7.2494249,86.5643 7.2454455,86.469419 7.21875,86.375 7.1884177,86.268382 7.1483606,86.171969 7.125,86.0625 7.0521214,85.720988 7,85.364295 7,85 L 7,83 7,15 7,13 C 7,10.218152 9.2181517,8 12,8 l 2,0 68,0 2,0 c 2.781848,0 5,2.218152 5,5 l 0,2 0,68 0,2 c 0,0.364295 -0.05212,0.720988 -0.125,1.0625 -0.04415,0.206893 -0.08838,0.397658 -0.15625,0.59375 -0.0077,0.02195 -0.0233,0.04069 -0.03125,0.0625 -0.06274,0.173739 -0.138383,0.367449 -0.21875,0.53125 -0.04158,0.0828 -0.07904,0.169954 -0.125,0.25 -0.0546,0.09721 -0.126774,0.18835 -0.1875,0.28125 -0.09411,0.140965 -0.204921,0.275995 -0.3125,0.40625 -0.143174,0.17445 -0.303141,0.346998 -0.46875,0.5 -0.01117,0.0102 -0.01998,0.02115 -0.03125,0.03125 -0.138386,0.125556 -0.285091,0.234436 -0.4375,0.34375 -0.102571,0.07315 -0.204318,0.153364 -0.3125,0.21875 -0.0074,0.0045 -0.02384,-0.0044 -0.03125,0 -0.232039,0.138728 -0.462548,0.274778 -0.71875,0.375 0.301527,-0.0968 0.596455,-0.204138 0.875,-0.34375 0.55709,-0.279224 1.060053,-0.665694 1.5,-1.09375 0.219973,-0.214028 0.409366,-0.441865 0.59375,-0.6875 0.184384,-0.245635 0.355408,-0.507743 0.5,-0.78125 0.14012,-0.265048 0.276135,-0.524729 0.375,-0.8125 0.01041,-0.03078 0.02133,-0.06274 0.03125,-0.09375 0.09046,-0.278085 0.1388,-0.579404 0.1875,-0.875 C 89.95865,84.6507 90,84.334721 90,84 l 0,-2 0,-68 0,-2 C 90,8.676 87.324,6 84,6 L 12,6 z"
         inkscape:connector-curvature="0"
         id="rect3728"
         style="fill:url(#linearGradient3188);fill-opacity:1;fill-rule:nonzero;stroke:none" />
      <path
         d="M 12,90 C 8.676,90 6,87.324 6,84 L 6,82 6,14 6,12 c 0,-0.334721 0.04135,-0.6507 0.09375,-0.96875 0.0487,-0.295596 0.09704,-0.596915 0.1875,-0.875 C 6.29113,10.12587 6.302142,10.09265 6.3125,10.0625 6.411365,9.774729 6.5473802,9.515048 6.6875,9.25 6.8320918,8.976493 7.0031161,8.714385 7.1875,8.46875 7.3718839,8.223115 7.5612765,7.995278 7.78125,7.78125 8.221197,7.353194 8.72416,6.966724 9.28125,6.6875 9.559795,6.547888 9.8547231,6.440553 10.15625,6.34375 9.9000482,6.443972 9.6695391,6.580022 9.4375,6.71875 c -0.00741,0.0044 -0.023866,-0.0045 -0.03125,0 -0.031933,0.0193 -0.062293,0.04251 -0.09375,0.0625 -0.120395,0.0767 -0.2310226,0.163513 -0.34375,0.25 -0.1061728,0.0808 -0.2132809,0.161112 -0.3125,0.25 C 8.4783201,7.442683 8.3087904,7.626638 8.15625,7.8125 8.0486711,7.942755 7.9378561,8.077785 7.84375,8.21875 7.818661,8.25713 7.805304,8.30462 7.78125,8.34375 7.716487,8.446782 7.6510225,8.548267 7.59375,8.65625 7.4927417,8.850956 7.3880752,9.071951 7.3125,9.28125 7.30454,9.30306 7.288911,9.3218 7.28125,9.34375 7.2494249,9.4357 7.2454455,9.530581 7.21875,9.625 7.1884177,9.731618 7.1483606,9.828031 7.125,9.9375 7.0521214,10.279012 7,10.635705 7,11 l 0,2 0,68 0,2 c 0,2.781848 2.2181517,5 5,5 l 2,0 68,0 2,0 c 2.781848,0 5,-2.218152 5,-5 l 0,-2 0,-68 0,-2 C 89,10.635705 88.94788,10.279012 88.875,9.9375 88.83085,9.730607 88.78662,9.539842 88.71875,9.34375 88.71105,9.3218 88.69545,9.30306 88.6875,9.28125 88.62476,9.107511 88.549117,8.913801 88.46875,8.75 88.42717,8.6672 88.38971,8.580046 88.34375,8.5 88.28915,8.40279 88.216976,8.31165 88.15625,8.21875 88.06214,8.077785 87.951329,7.942755 87.84375,7.8125 87.700576,7.63805 87.540609,7.465502 87.375,7.3125 87.36383,7.3023 87.35502,7.29135 87.34375,7.28125 87.205364,7.155694 87.058659,7.046814 86.90625,6.9375 86.803679,6.86435 86.701932,6.784136 86.59375,6.71875 c -0.0074,-0.0045 -0.02384,0.0044 -0.03125,0 -0.232039,-0.138728 -0.462548,-0.274778 -0.71875,-0.375 0.301527,0.0968 0.596455,0.204138 0.875,0.34375 0.55709,0.279224 1.060053,0.665694 1.5,1.09375 0.219973,0.214028 0.409366,0.441865 0.59375,0.6875 0.184384,0.245635 0.355408,0.507743 0.5,0.78125 0.14012,0.265048 0.276135,0.524729 0.375,0.8125 0.01041,0.03078 0.02133,0.06274 0.03125,0.09375 0.09046,0.278085 0.1388,0.579404 0.1875,0.875 C 89.95865,11.3493 90,11.665279 90,12 l 0,2 0,68 0,2 c 0,3.324 -2.676,6 -6,6 l -72,0 z"
         inkscape:connector-curvature="0"
         id="path3615"
         style="opacity:0.6;fill:url(#radialGradient3619);fill-opacity:1;fill-rule:nonzero;stroke:none" />
      <rect
         width="84"
         height="84"
         rx="6"
         ry="6"
         x="6"
         y="106"
         id="rect2841"
         style="fill:url(#linearGradient2843);fill-opacity:1;fill-rule:nonzero;stroke:none" />
      <rect
         width="76"
         height="76"
         rx="4"
         ry="4"
         x="10"
         y="110"
         id="rect3634"
         style="fill:#ff0000;fill-opacity:1;fill-rule:nonzero;stroke:none" />
      <path
         d="m 14,9 c -2.752703,0 -5,2.247297 -5,5 l 0,68 c 0,2.752703 2.247297,5 5,5 l 68,0 c 2.752703,0 5,-2.247297 5,-5 L 87,14 C 87,11.247297 84.752703,9 82,9 L 14,9 z m 0,2 68,0 c 1.679297,0 3,1.320703 3,3 l 0,68 c 0,1.679297 -1.320703,3 -3,3 l -68,0 c -1.679297,0 -3,-1.320703 -3,-3 l 0,-68 c 0,-1.679297 1.320703,-3 3,-3 z"
         inkscape:connector-curvature="0"
         transform="translate(-110,0)"
         clip-path="url(#clipPath3649)"
         id="rect3647"
         style="font-size:medium;font-style:normal;font-variant:normal;font-weight:normal;font-stretch:normal;text-indent:0;text-align:start;text-decoration:none;line-height:normal;letter-spacing:normal;word-spacing:normal;text-transform:none;direction:ltr;block-progression:tb;writing-mode:lr-tb;text-anchor:start;color:#000000;fill:#000000;fill-opacity:1;stroke:none;stroke-width:2;marker:none;visibility:visible;display:inline;overflow:visible;filter:url(#filter3657);enable-background:accumulate;font-family:Abandoned Bitplane;-inkscape-font-specification:Abandoned Bitplane" />
      <path
         d="m 14.089286,10 c -2.216,0 -4,1.784 -4,4 l 0,68 c 0,2.216 1.784,4 4,4 l 68,0 c 2.216,0 4,-1.784 4,-4 l 0,-68 c 0,-2.216 -1.784,-4 -4,-4 l -68,0 z m 0,2 68,0 c 1.140301,0 2,0.859699 2,2 l 0,68 c 0,1.140301 -0.859699,2 -2,2 l -68,0 c -1.140301,0 -2,-0.859699 -2,-2 l 0,-68 c 0,-1.140301 0.859699,-2 2,-2 z"
         inkscape:connector-curvature="0"
         id="path3709"
         style="opacity:0.16000001;fill:#000000;fill-opacity:1;fill-rule:nonzero;stroke:none" />
      <path
         d="m 14,10 c -2.216,0 -4,1.784 -4,4 l 0,68 c 0,2.216 1.784,4 4,4 l 68,0 c 2.216,0 4,-1.784 4,-4 l 0,-68 c 0,-2.216 -1.784,-4 -4,-4 l -68,0 z m 0,1 68,0 c 1.673848,0 3,1.326152 3,3 l 0,68 c 0,1.673848 -1.326152,3 -3,3 l -68,0 c -1.673848,0 -3,-1.326152 -3,-3 l 0,-68 c 0,-1.673848 1.326152,-3 3,-3 z"
         inkscape:connector-curvature="0"
         id="path3707"
         style="opacity:0.36000001;fill:#000000;fill-opacity:1;fill-rule:nonzero;stroke:none" />
    </g>
    <g
       id="layer5"
       style="display:none"
       transform="matrix(2.6719646,0,0,2.6719646,-618.57963,598.71819)">
      <rect
         width="66"
         height="66"
         rx="12"
         ry="12"
         x="15"
         y="15"
         clip-path="url(#clipPath3613)"
         id="rect3171"
         style="opacity:0.1;fill:url(#linearGradient3613);fill-opacity:1;fill-rule:nonzero;stroke:#ffffff;stroke-width:0.5;stroke-linecap:round;stroke-linejoin:miter;stroke-miterlimit:4;stroke-opacity:1;stroke-dasharray:none;stroke-dashoffset:0;filter:url(#filter3794)" />
    </g>
    <g
       id="g3180"
       transform="translate(-7.2221429,0)">
      <path
         d="m 147.30278,646.20047 c -0.33477,-0.003 -0.69164,0.0629 -1.01685,0.14038 -1.95126,0.46539 -3.50262,2.02998 -5.8468,3.6497 0,0 -7.56886,11.47411 -7.37207,18.66967 0.24325,8.89463 5.10769,23.79784 13.7273,36.77782 18.28847,27.54005 43.78456,57.80014 66.34859,79.87243 4.34749,-8.85872 9.27197,-18.43009 17.79463,-26.81131 a 19.617502,10.83271 0 0 1 0.25422,-0.28075 l 20.59093,-18.9504 -96.59948,-88.85633 c -2.77287,-2.62757 -5.08955,-3.77571 -6.86365,-4.07083 -0.3696,-0.0615 -0.68211,-0.13634 -1.01682,-0.14038 z m 230.82191,0.14038 c -1.77413,0.29512 -4.09075,1.44326 -6.86364,4.07083 L 247.9696,763.83333 c -10.44039,10.26716 -15.77648,25.88539 -23.38724,38.46231 -3.80539,6.2885 -8.29296,11.88344 -12.45626,14.87957 -2.59309,2.45022 -5.64483,2.66709 -9.40574,2.66709 -20.90839,-0.44932 -44.13745,7.43661 -58.21389,20.77526 -18.38928,17.42544 -13.97423,37.79516 9.91414,45.34059 23.8884,7.54544 57.87348,-0.54235 76.26276,-17.96779 8.46455,-8.02086 12.06889,-16.58292 11.1852,-24.28458 l 0.50843,0.42111 c -0.25513,-5.75161 0.81071,-12.99775 5.5926,-19.65226 5.48487,-7.63204 14.53192,-14.4766 38.894,-18.38891 2.09788,-0.31488 4.37828,-1.10093 5.59259,-2.1056 26.10267,-20.74076 62.91566,-61.98244 87.19375,-98.54208 8.61963,-12.97998 13.4841,-27.88319 13.72729,-36.77782 0.19668,-7.19556 -7.37204,-18.66967 -7.37204,-18.66967 -3.1256,-2.15964 -4.92362,-4.1413 -7.8805,-3.6497 z m -70.41593,164.3772 c -4.46154,3.3207 -9.37493,4.69426 -15.25257,5.61492 l 0,0.14038 c -8.57902,1.37771 -13.72355,2.67325 -17.28621,4.2112 1.19443,1.23404 2.37696,2.49915 3.3047,3.79008 4.78197,6.65451 5.84765,13.90065 5.59262,19.65226 l 0.50842,-0.42111 c -0.88368,7.70166 2.72065,16.26372 11.1852,24.28458 18.38928,17.42544 52.37439,25.51323 76.26276,17.96779 23.88837,-7.54543 28.30342,-27.91515 9.91414,-45.34059 -14.07643,-13.33865 -37.30549,-21.22458 -58.21388,-20.77526 -3.76092,0 -6.81266,-0.21687 -9.40575,-2.66709 -2.15343,-1.54971 -4.41401,-3.76413 -6.60943,-6.45716 z m -111.08941,24.14421 c 3.611,-0.0814 7.10635,0.43656 10.16838,1.40372 12.24802,3.86869 13.61489,14.97575 3.05049,24.98647 -10.56441,10.01065 -28.93387,15.09856 -41.18189,11.22987 -12.24802,-3.8687 -13.61489,-15.11613 -3.05049,-25.12683 7.9233,-7.50802 20.18049,-12.24928 31.01351,-12.49323 z m 133.2056,0 c 10.83301,0.24395 23.09023,4.98521 31.01353,12.49323 10.56441,10.0107 9.1975,21.25813 -3.05052,25.12683 -12.24802,3.86869 -30.61748,-1.21922 -41.18188,-11.22987 -10.56441,-10.01072 -9.19753,-21.11778 3.05052,-24.98647 3.062,-0.96716 6.55734,-1.48503 10.16835,-1.40372 z"
         inkscape:connector-curvature="0"
         id="path3113"
         style="fill:url(#linearGradient3183);fill-opacity:1;stroke:none;display:inline" />
    </g>
  </g>
</svg>
