<?xml version="1.0" encoding="UTF-8" standalone="no"?>
<!-- Generator: Adobe Illustrator 16.0.0, SVG Export Plug-In . SVG Version: 6.00 Build 0)  -->

<svg
   xmlns:dc="http://purl.org/dc/elements/1.1/"
   xmlns:cc="http://creativecommons.org/ns#"
   xmlns:rdf="http://www.w3.org/1999/02/22-rdf-syntax-ns#"
   xmlns:svg="http://www.w3.org/2000/svg"
   xmlns="http://www.w3.org/2000/svg"
   xmlns:sodipodi="http://sodipodi.sourceforge.net/DTD/sodipodi-0.dtd"
   xmlns:inkscape="http://www.inkscape.org/namespaces/inkscape"
   version="1.1"
   id="Capa_1"
   x="0px"
   y="0px"
   width="256"
   height="256"
   viewBox="0 0 256 256"
   xml:space="preserve"
   inkscape:version="0.48.4 r9939"
   sodipodi:docname="CubLinux.svg"><metadata
     id="metadata41"><rdf:RDF><cc:Work
         rdf:about=""><dc:format>image/svg+xml</dc:format><dc:type
           rdf:resource="http://purl.org/dc/dcmitype/StillImage" /><dc:title /></cc:Work></rdf:RDF></metadata><defs
     id="defs39" /><sodipodi:namedview
     pagecolor="#ffffff"
     bordercolor="#666666"
     borderopacity="1"
     objecttolerance="10"
     gridtolerance="10"
     guidetolerance="10"
     inkscape:pageopacity="0"
     inkscape:pageshadow="2"
     inkscape:window-width="1366"
     inkscape:window-height="693"
     id="namedview37"
     showgrid="false"
     inkscape:zoom="0.99023437"
     inkscape:cx="256"
     inkscape:cy="256"
     inkscape:window-x="0"
     inkscape:window-y="0"
     inkscape:window-maximized="1"
     inkscape:current-layer="Capa_1" /><g
     id="g3807"
     transform="matrix(3.5472379,0,0,3.5472921,12,12.000001)"><path
       transform="translate(-7.4824323,-2.7465728e-7)"
       d="m 62.630728,32.839565 c 0,12.932986 -10.484257,23.417242 -23.417242,23.417242 -12.932986,0 -23.417242,-10.484256 -23.417242,-23.417242 0,-12.932985 10.484256,-23.4172418 23.417242,-23.4172418 12.932985,0 23.417242,10.4842568 23.417242,23.4172418 z"
       sodipodi:ry="23.417242"
       sodipodi:rx="23.417242"
       sodipodi:cy="32.839565"
       sodipodi:cx="39.213486"
       id="path3805"
       style="fill:#fffeff;fill-opacity:1;stroke:none"
       sodipodi:type="arc" /><g
       style="fill:#1c6b82;fill-opacity:1"
       id="g3"><path
         style="fill:#1c6b82;fill-opacity:1"
         id="path5"
         d="M 32.702,0 C 14.641,0 0,14.641 0,32.701 0,50.763 14.641,65.402 32.702,65.402 50.764,65.402 65.403,50.762 65.403,32.701 65.403,14.641 50.763,0 32.702,0 z m 4.429,13.756 c 0,0 1.873,2.976 1.873,6.654 l -1.873,-0.5 v -6.154 z m -0.056,8.091 c 4.058,-0.062 4.568,6.363 4.153,8.619 -0.374,2.075 -2.044,4.672 -4.153,4.672 -2.109,0 -3.825,-1.716 -3.825,-3.829 0,-2.111 -0.23,-9.399 3.825,-9.462 z m -8.802,-8.091 v 6.222 l -1.874,0.432 c 0,-3.679 1.874,-6.654 1.874,-6.654 z m -0.713,8.091 c 4.399,-0.406 3.824,7.354 3.824,9.465 0,2.11 -1.712,3.828 -3.824,3.828 -2.111,0 -2.969,-1.899 -3.825,-3.828 -1.052,-2.353 -0.573,-9.059 3.825,-9.465 z M 17.1,22.678 v 6.031 l -1.873,0.622 C 15.23,25.654 17.1,22.678 17.1,22.678 z m -0.196,18.114 c -0.85,-1.927 -3.119,-8.754 -0.322,-10.202 2.791,-1.451 6.47,5.181 7.317,7.111 0.855,1.93 -0.018,4.193 -1.948,5.044 -1.933,0.856 -4.189,-0.023 -5.047,-1.953 z m 28.065,8.355 c -3.171,5.594 -5.68,0.664 -12.688,0.664 -7.007,0 -9.346,4.986 -12.692,-0.664 -1.75,-2.956 4.039,-5.265 5.898,-7.003 2.327,-2.171 2.898,-6.117 6.792,-6.117 3.712,0 4.506,3.88 6.827,5.905 2.063,1.797 7.743,3.911 5.863,7.215 z m 2.975,-8.35 c -0.721,1.986 -2.915,3.014 -4.899,2.288 -1.985,-0.721 -3.864,-3.552 -3.144,-5.534 0.316,-0.866 2.352,-0.999 3.524,-2.505 1.503,-1.925 2.326,-5.12 4.162,-4.444 3.277,1.195 1.078,8.217 0.357,10.195 z m 0.36,-12.088 v -6.031 c 0,0 1.87,2.976 1.87,6.653 l -1.87,-0.622 z"
         inkscape:connector-curvature="0" /></g></g><g
     id="g7"
     transform="translate(0,190.598)" /><g
     id="g9"
     transform="translate(0,190.598)" /><g
     id="g11"
     transform="translate(0,190.598)" /><g
     id="g13"
     transform="translate(0,190.598)" /><g
     id="g15"
     transform="translate(0,190.598)" /><g
     id="g17"
     transform="translate(0,190.598)" /><g
     id="g19"
     transform="translate(0,190.598)" /><g
     id="g21"
     transform="translate(0,190.598)" /><g
     id="g23"
     transform="translate(0,190.598)" /><g
     id="g25"
     transform="translate(0,190.598)" /><g
     id="g27"
     transform="translate(0,190.598)" /><g
     id="g29"
     transform="translate(0,190.598)" /><g
     id="g31"
     transform="translate(0,190.598)" /><g
     id="g33"
     transform="translate(0,190.598)" /><g
     id="g35"
     transform="translate(0,190.598)" /></svg>