<?xml version="1.0" encoding="UTF-8" standalone="no"?>
<!-- Created with Inkscape (http://www.inkscape.org/) -->

<svg
   xmlns:dc="http://purl.org/dc/elements/1.1/"
   xmlns:cc="http://creativecommons.org/ns#"
   xmlns:rdf="http://www.w3.org/1999/02/22-rdf-syntax-ns#"
   xmlns:svg="http://www.w3.org/2000/svg"
   xmlns="http://www.w3.org/2000/svg"
   xmlns:sodipodi="http://sodipodi.sourceforge.net/DTD/sodipodi-0.dtd"
   xmlns:inkscape="http://www.inkscape.org/namespaces/inkscape"
   width="512"
   height="512"
   id="svg2"
   version="1.1"
   inkscape:version="0.48.4 r9939"
   sodipodi:docname="deb.svg">
  <defs
     id="defs4" />
  <sodipodi:namedview
     id="base"
     pagecolor="#ffffff"
     bordercolor="#666666"
     borderopacity="1.0"
     inkscape:pageopacity="0.0"
     inkscape:pageshadow="2"
     inkscape:zoom="0.9"
     inkscape:cx="54.843148"
     inkscape:cy="243.88177"
     inkscape:document-units="px"
     inkscape:current-layer="layer1"
     showgrid="false"
     inkscape:showpageshadow="false"
     borderlayer="true"
     inkscape:window-width="1366"
     inkscape:window-height="695"
     inkscape:window-x="0"
     inkscape:window-y="0"
     inkscape:window-maximized="1" />
  <metadata
     id="metadata7">
    <rdf:RDF>
      <cc:Work
         rdf:about="">
        <dc:format>image/svg+xml</dc:format>
        <dc:type
           rdf:resource="http://purl.org/dc/dcmitype/StillImage" />
        <dc:title />
      </cc:Work>
    </rdf:RDF>
  </metadata>
  <g
     inkscape:label="Layer 1"
     inkscape:groupmode="layer"
     id="layer1"
     transform="translate(0,-540.3622)">
    <g
       id="g3017">
      <rect
         ry="26.183645"
         y="593.86261"
         x="53.5"
         height="401.8833"
         width="405"
         id="rect3147"
         style="fill:#c8a677;fill-opacity:1;stroke:none" />
      <path
         sodipodi:nodetypes="ccccc"
         inkscape:connector-curvature="0"
         id="path3752"
         d="M 61.993131,603.44997 268.57677,724.10458 447.36131,600.76068 267.37569,724.7908 l 0,270.31048"
         style="opacity:0.32067512;fill:none;stroke:#5f4a1a;stroke-width:7.56202745;stroke-linecap:butt;stroke-linejoin:miter;stroke-miterlimit:4;stroke-opacity:1;stroke-dasharray:none" />
      <path
         d="m 367.83435,768.70302 c 0.36754,9.08106 -2.87893,13.49433 -5.81502,21.29779 l -5.28009,2.41727 c -4.31635,7.72071 0.42873,4.90099 -2.66251,11.03944 -6.74609,5.51408 -20.44247,17.25062 -24.82826,18.3251 -3.20561,0 2.16841,-3.48046 2.87079,-4.81573 -9.02066,5.69839 -7.24023,8.55448 -21.03867,12.02366 l -0.40023,-0.84003 c -34.01633,14.73431 -81.27166,-14.46223 -80.65098,-54.28949 -0.35943,2.52509 -1.03319,1.89194 -1.78451,2.90749 -1.75595,-20.4891 10.28249,-41.06848 30.58611,-49.48504 19.8585,-9.04344 43.13908,-5.33855 57.35407,6.87567 -7.80782,-9.42082 -23.36224,-19.4071 -41.78332,-18.48307 -18.05355,0.27583 -34.9474,10.83006 -40.58278,22.2983 -9.24524,5.3561 -10.3233,20.65836 -14.34974,23.46179 -5.42708,36.68656 10.19675,52.53171 36.62985,71.17903 4.14894,2.57775 1.16787,2.97268 1.72327,4.93609 -8.77972,-3.78263 -16.81623,-9.49605 -23.43166,-16.49084 3.5119,4.72546 7.29739,9.31802 12.19362,12.92637 -8.28561,-2.57524 -19.34807,-18.46678 -22.57002,-19.11372 14.27217,23.52448 57.89718,41.25404 80.75305,32.45383 -10.57651,0.35106 -24.00743,0.20061 -35.88252,-3.84155 -5.0024,-2.36461 -11.7771,-7.25431 -10.56426,-8.16706 31.18232,10.71723 63.38553,8.1119 90.36174,-11.7917 6.86861,-4.92356 14.36609,-13.29623 16.53449,-13.40782 -3.26282,4.51859 0.55948,2.17153 -1.94789,6.15977 6.82777,-10.15177 -2.97694,-4.13493 7.06463,-17.53146 l 3.70791,4.69913 c -1.38846,-8.43411 11.37279,-18.66613 10.07422,-31.99495 2.92794,-4.07601 3.26278,4.38944 0.15976,13.76388 4.30818,-10.40127 1.13936,-12.0738 2.24188,-20.65837 1.18839,2.88744 2.76869,5.94914 3.57314,8.99831 -2.80951,-10.05398 2.87077,-16.92589 4.2837,-22.76971 -1.39654,-0.55166 -4.33268,4.44085 -5.01057,-7.42859 0.10135,-5.15801 1.56393,-2.70313 2.12348,-3.9732 -1.09439,-0.57673 -3.98154,-4.53614 -5.73338,-12.11894 1.26188,-1.78537 3.39754,4.62014 5.129,4.87842 -1.11491,-6.02562 -3.03003,-10.62194 -3.11171,-15.2496 -5.06366,-9.73553 -1.79261,1.30141 -5.89263,-4.18007 -5.39034,-15.464 4.46745,-3.58954 5.13717,-10.61066 8.15901,10.88273 12.81024,27.75972 14.95412,34.74698 -1.63345,-8.52187 -4.26736,-16.78045 -7.48931,-24.76822 2.4869,0.9654 -3.99785,-17.5277 3.23013,-5.28088 -7.71391,-26.106 -32.98728,-50.5006 -56.24336,-61.9425 2.83811,2.3947 6.42759,5.40124 5.14536,5.87516 -11.57293,-6.33404 -9.5393,-6.8343 -11.19723,-9.50984 -9.41268,-3.53062 -10.04154,0.27583 -16.26903,0.008 -17.76364,-8.67609 -21.18569,-7.75456 -37.5323,-13.18213 l 0.74331,3.20087 c -11.76483,-3.6071 -13.70863,1.35783 -26.42085,0.008 -0.77182,-0.55166 4.07542,-2.01355 8.06916,-2.54264 -11.37688,1.37538 -10.84602,-2.06747 -21.97788,0.37613 2.74009,-1.76656 5.6476,-2.94636 8.57146,-4.45088 -9.27385,0.51404 -22.14941,4.96994 -18.17608,0.91525 -15.12972,6.21493 -42.00385,14.94117 -57.08453,27.95781 l -0.47371,-2.91752 c -6.90945,7.6342 -30.13284,22.80106 -31.9827,32.69832 l -1.84989,0.38867 c -3.58948,5.60435 -5.92121,11.95344 -8.77156,17.71577 -4.70022,7.37718 -6.8931,2.84104 -6.22339,3.99952 -9.24934,17.2594 -13.85154,31.76175 -17.81673,43.66379 2.82585,3.8892 0.0697,23.42544 1.13525,39.0587 -4.63894,77.22219 58.87726,152.19262 128.30651,169.49966 10.17632,3.35759 25.30604,3.23598 38.17752,3.56697 -15.18279,-3.99827 -17.14291,-2.11511 -31.94187,-6.86439 -10.67042,-4.63142 -13.00623,-9.91105 -20.56905,-15.95297 l 2.99327,4.86839 c -14.82344,-4.83077 -8.62046,-5.97547 -20.68339,-9.48978 l 3.19745,-3.8403 c -4.80642,-0.33852 -12.72857,-7.4499 -14.89287,-11.39928 l -5.25967,0.18807 c -6.31325,-7.16655 -9.68218,-12.34086 -9.4331,-16.35292 l -1.69884,2.79089 c -1.92337,-3.04164 -23.23974,-26.90841 -12.18137,-21.35295 -2.05406,-1.71015 -4.78598,-2.80719 -7.74658,-7.76335 l 2.25005,-2.36586 c -5.31275,-6.3027 -9.79245,-14.382 -9.44942,-17.07133 2.83809,3.52435 4.80637,4.18634 6.75835,4.79065 -13.43911,-30.68727 -14.19458,-1.69133 -24.36681,-31.23642 l 2.14797,-0.18807 c -1.64569,-2.29565 -2.65434,-4.7731 -3.97742,-7.21168 l 0.93923,-8.59083 c -9.66995,-10.28342 -2.70333,-43.77162 -1.30265,-62.13433 0.95965,-7.46495 8.07326,-15.4151 13.47585,-27.88384 l -3.29137,-0.52659 c 6.2969,-10.10287 35.94379,-40.59205 49.68098,-39.0286 6.65219,-7.69062 -1.32307,0 -2.62574,-1.96215 14.61517,-13.92061 19.20925,-9.83332 29.07111,-12.3396 10.6296,-5.80872 -9.12684,2.27057 -4.08767,-2.21416 18.38842,-4.31924 13.02665,-9.82705 37.00962,-12.01739 2.53183,1.32022 -5.86814,2.04365 -7.97528,3.76131 15.31349,-6.90075 48.46816,-5.32476 70.0132,3.82651 24.97937,10.75484 53.06224,42.52788 54.17296,72.42402 l 1.26188,0.31344 c -0.63715,11.88449 1.97644,25.63082 -2.56044,38.25377 l 3.06678,-5.97922"
         inkscape:connector-curvature="0"
         id="path2536"
         style="fill:#d70751;display:inline" />
      <g
         transform="matrix(1.6679455,0,0,1.5353255,274.94711,743.46463)"
         id="g2608"
         style="display:inline">
        <path
           d="m 13.437,125.506 c -0.045,0.047 -0.045,7.506 -0.138,9.453 -0.092,1.574 -0.232,4.957 -3.568,4.957 -3.429,0 -4.263,-3.939 -4.541,-5.652 -0.324,-1.9 -0.324,-3.477 -0.324,-4.17 0,-2.225 0.139,-8.436 5.375,-8.436 1.576,0 2.456,0.465 3.151,0.834 l 0.045,3.014 z M 0,130.975 c 0,13.066 6.951,13.066 7.97,13.066 2.873,0 4.727,-1.576 5.514,-4.309 l 0.093,4.123 c 0.881,-0.047 1.761,-0.139 3.197,-0.139 0.51,0 0.926,0 1.298,0.047 0.371,0 0.741,0.045 1.158,0.092 -0.741,-1.482 -1.297,-4.818 -1.297,-12.049 0,-7.043 0,-18.951 0.602,-22.566 -1.667,0.789 -3.105,1.299 -6.256,1.576 1.251,1.344 1.251,2.039 1.251,8.154 -0.879,-0.277 -1.992,-0.602 -3.892,-0.602 C 1.344,118.369 0,125.598 0,130.975"
           inkscape:connector-curvature="0"
           id="path2550" />
        <path
           d="m 25.13,128.609 c 0.047,-3.846 0.835,-7.275 4.124,-7.275 3.615,0 3.891,3.984 3.799,7.275 l -7.923,0 z m 12.51,0.465 c 0,-5.422 -1.065,-10.752 -7.923,-10.752 -9.452,0 -9.452,10.475 -9.452,12.697 0,9.406 4.216,13.113 11.306,13.113 3.149,0 4.68,-0.461 5.514,-0.695 -0.046,-1.668 0.185,-2.734 0.465,-4.17 -0.975,0.604 -2.226,1.391 -5.006,1.391 -7.229,0 -7.322,-6.582 -7.322,-8.852 l 12.328,0 0.09,-2.732"
           inkscape:connector-curvature="0"
           id="path2552" />
        <path
           d="m 52.715,131.066 c 0,4.309 -0.787,10.102 -6.162,10.102 -0.742,0 -1.668,-0.141 -2.27,-0.279 -0.093,-1.668 -0.093,-4.541 -0.093,-7.877 0,-3.986 0.416,-6.068 0.742,-7.09 0.972,-3.289 3.15,-3.334 3.566,-3.334 3.522,0 4.217,4.865 4.217,8.478 z m -13.298,5.051 c 0,3.43 0,5.375 -0.556,6.857 1.9,0.742 4.262,1.158 7.09,1.158 1.807,0 7.043,0 9.869,-5.791 1.344,-2.688 1.807,-6.303 1.807,-9.037 0,-1.668 -0.186,-5.328 -1.529,-7.646 -1.296,-2.176 -3.382,-3.289 -5.605,-3.289 -4.449,0 -5.746,3.707 -6.44,5.607 0,-2.363 0.045,-10.611 0.415,-14.828 -3.011,1.391 -4.866,1.621 -6.857,1.807 1.807,0.74 1.807,3.801 1.807,13.764 l 0,11.398"
           inkscape:connector-curvature="0"
           id="path2554" />
        <path
           d="m 66.535,143.855 c -0.928,-0.139 -1.578,-0.232 -2.922,-0.232 -1.48,0 -2.502,0.094 -3.566,0.232 0.463,-0.881 0.648,-1.299 0.787,-4.309 0.186,-4.125 0.232,-15.154 -0.092,-17.471 -0.232,-1.762 -0.648,-2.039 -1.297,-2.502 3.799,-0.371 4.865,-0.648 6.625,-1.482 -0.369,2.037 -0.418,3.059 -0.418,6.162 -0.091,15.989 -0.138,17.702 0.883,19.602"
           inkscape:connector-curvature="0"
           id="path2556" />
        <path
           d="m 81.373,130.74 c -0.092,2.92 -0.139,4.959 -0.928,6.58 -0.973,2.086 -2.594,2.688 -3.799,2.688 -2.783,0 -3.383,-2.316 -3.383,-4.586 0,-4.355 3.893,-4.682 5.652,-4.682 l 2.458,0 z m -12.744,5.701 c 0,2.92 0.881,5.838 3.477,7.09 1.158,0.51 2.316,0.51 2.688,0.51 4.264,0 5.699,-3.152 6.58,-5.098 -0.047,2.039 0,3.289 0.139,4.912 0.834,-0.047 1.668,-0.139 3.059,-0.139 0.787,0 1.529,0.092 2.316,0.139 -0.51,-0.787 -0.787,-1.252 -0.928,-3.059 -0.092,-1.76 -0.092,-3.521 -0.092,-5.977 l 0.047,-9.453 c 0,-3.523 -0.928,-6.998 -7.879,-6.998 -4.586,0 -7.273,1.391 -8.617,2.086 0.557,1.02 1.02,1.898 1.436,3.893 1.809,-1.576 4.172,-2.41 6.58,-2.41 3.848,0 3.848,2.549 3.848,6.162 -0.881,-0.045 -1.623,-0.137 -2.875,-0.137 -5.887,10e-4 -9.779,2.268 -9.779,8.479"
           inkscape:connector-curvature="0"
           id="path2558" />
        <path
           d="m 108.063,139.268 c 0.047,1.576 0.047,3.244 0.695,4.588 -1.021,-0.092 -1.623,-0.232 -3.521,-0.232 -1.113,0 -1.715,0.094 -2.596,0.232 0.184,-0.602 0.279,-0.834 0.371,-1.623 0.139,-1.064 0.232,-4.633 0.232,-5.885 l 0,-5.004 c 0,-2.178 0,-5.33 -0.141,-6.441 -0.092,-0.787 -0.322,-2.918 -3.012,-2.918 -2.641,0 -3.521,1.945 -3.846,3.521 -0.369,1.621 -0.369,3.383 -0.369,10.24 0.045,5.932 0.045,6.486 0.508,8.109 -0.787,-0.092 -1.76,-0.184 -3.15,-0.184 -1.113,0 -1.854,0.045 -2.779,0.184 0.324,-0.742 0.51,-1.113 0.602,-3.707 0.094,-2.549 0.279,-15.061 -0.141,-18.025 -0.23,-1.809 -0.695,-2.225 -1.203,-2.688 3.754,-0.186 4.957,-0.789 6.117,-1.389 l 0,4.91 c 0.555,-1.438 1.713,-4.635 6.348,-4.635 5.793,0 5.838,4.217 5.885,6.996 l 0,13.951"
           inkscape:connector-curvature="0"
           id="path2560" />
        <path
           d="m 66.926,111.533 -3.838,3.836 -3.836,-3.836 3.836,-3.836 3.838,3.836"
           inkscape:connector-curvature="0"
           id="path2562"
           style="fill:#d70751" />
      </g>
    </g>
  </g>
</svg>
