<?xml version="1.0" encoding="UTF-8" standalone="no"?>
<!-- Created with Inkscape (http://www.inkscape.org/) -->

<svg
   xmlns:dc="http://purl.org/dc/elements/1.1/"
   xmlns:cc="http://creativecommons.org/ns#"
   xmlns:rdf="http://www.w3.org/1999/02/22-rdf-syntax-ns#"
   xmlns:svg="http://www.w3.org/2000/svg"
   xmlns="http://www.w3.org/2000/svg"
   xmlns:sodipodi="http://sodipodi.sourceforge.net/DTD/sodipodi-0.dtd"
   xmlns:inkscape="http://www.inkscape.org/namespaces/inkscape"
   width="512"
   height="512"
   id="svg2"
   version="1.1"
   inkscape:version="0.48.4 r9939"
   sodipodi:docname="gpicview2.svg">
  <defs
     id="defs4" />
  <sodipodi:namedview
     id="base"
     pagecolor="#ffffff"
     bordercolor="#666666"
     borderopacity="1.0"
     inkscape:pageopacity="0.0"
     inkscape:pageshadow="2"
     inkscape:zoom="0.48"
     inkscape:cx="274.33972"
     inkscape:cy="442.90156"
     inkscape:document-units="px"
     inkscape:current-layer="layer1"
     showgrid="false"
     inkscape:showpageshadow="false"
     borderlayer="true"
     inkscape:window-width="1366"
     inkscape:window-height="695"
     inkscape:window-x="0"
     inkscape:window-y="0"
     inkscape:window-maximized="1" />
  <metadata
     id="metadata7">
    <rdf:RDF>
      <cc:Work
         rdf:about="">
        <dc:format>image/svg+xml</dc:format>
        <dc:type
           rdf:resource="http://purl.org/dc/dcmitype/StillImage" />
        <dc:title />
      </cc:Work>
    </rdf:RDF>
  </metadata>
  <g
     inkscape:label="Layer 1"
     inkscape:groupmode="layer"
     id="layer1"
     transform="translate(0,-540.3622)">
    <g
       id="g3828"
       transform="matrix(0.97637415,0,0,0.97637415,6.0482176,18.814736)">
      <rect
         transform="translate(0,540.3622)"
         y="84.501251"
         x="56.830193"
         height="214.5976"
         width="397.81134"
         id="rect3810"
         style="fill:#7abbe2;fill-opacity:1;stroke:none" />
      <g
         transform="translate(0,92)"
         id="g3979">
        <path
           style="fill:#b3b3b3;fill-opacity:1;stroke:none"
           d="m 53.645833,828.07053 404.166667,0 0,50 c 0.31595,9.91378 2.81515,17.33812 -15.53836,26.91323 l -369.878307,0 C 53.174341,901.87426 56.577053,893.91462 54.25172,886.83965 z"
           id="path3159"
           inkscape:connector-curvature="0"
           sodipodi:nodetypes="ccccccc" />
        <rect
           style="fill:#7d8289;fill-opacity:1;stroke:none"
           id="rect3931"
           width="41.145832"
           height="41.145832"
           x="89.583336"
           y="844.92468" />
        <rect
           style="fill:#7d8289;fill-opacity:1;stroke:none"
           id="rect3931-7"
           width="41.145832"
           height="41.145832"
           x="315.36459"
           y="844.14349" />
        <rect
           style="fill:#7d8289;fill-opacity:1;stroke:none"
           id="rect3931-2"
           width="41.145832"
           height="41.145832"
           x="261.71875"
           y="844.14349" />
        <rect
           style="fill:#7d8289;fill-opacity:1;stroke:none"
           id="rect3931-5"
           width="41.145832"
           height="41.145832"
           x="207.03125"
           y="844.14349" />
        <rect
           style="fill:#7d8289;fill-opacity:1;stroke:none"
           id="rect3931-8"
           width="41.145832"
           height="41.145832"
           x="148.69792"
           y="844.14349" />
        <rect
           style="fill:#7d8289;fill-opacity:1;stroke:none"
           id="rect3931-0"
           width="41.145832"
           height="41.145832"
           x="375.26041"
           y="844.66431" />
      </g>
      <path
         sodipodi:nodetypes="ccccc"
         inkscape:connector-curvature="0"
         id="path3988"
         d="m 53.645833,626.84137 404.687497,0.52083 c 0.91457,-14.49797 -2.2567,-27.11015 -19.27083,-33.33333 l -361.458333,0 c -15.064193,3.21595 -24.155216,12.9481 -23.958334,32.8125 z"
         style="fill:#000000;fill-opacity:0.725;stroke:none" />
      <path
         inkscape:connector-curvature="0"
         id="path3040"
         d="m 58.068561,844.31909 0,-48.60846 6.73943,7.11342 6.73944,-4.74229 6.73943,8.29901 5.897011,0 4.212138,3.55673 7.581867,-4.7423 5.897003,4.7423 4.21215,-5.92787 2.52729,0 8.42429,-7.11344 4.21213,10.67014 5.0546,1.18558 10.10915,4.74229 3.36971,0 22.74559,-24.89702 7.58187,0 18.53344,26.08261 10.95158,4.74228 7.58185,5.92786 12.63646,7.11343 24.43044,-7.11343 34.5396,-13.0413 49.70333,-48.60847 7.58186,0 10.95159,-10.67016 18.53343,16.59803 30.32746,28.45373 33.69716,18.96916 16.00616,5.92786 8.4243,4.7423 0,32.01045 -395.941759,0 z"
         style="fill:#4177a3;fill-opacity:1;stroke:none" />
      <path
         inkscape:connector-curvature="0"
         id="path3038"
         d="m 55.970613,851.33228 21.026421,0.84831 29.436966,0 28.59592,-1.69662 27.75487,-3.39324 23.54959,0.84831 12.61584,-0.84831 10.93374,5.93817 7.56951,-1.69662 28.59592,0.84831 11.77481,2.54493 7.56949,-3.39324 4.20529,4.24154 116.06581,1.69663 31.96014,0.84831 22.70853,0 12.61586,-2.54494 0,64.47155 -397.819764,0 z"
         style="fill:#5589d9;fill-opacity:1;stroke:none" />
      <rect
         ry="26.141008"
         y="595.74774"
         x="55.385498"
         height="401.22891"
         width="401.229"
         id="rect3147"
         style="fill:none;stroke:#7d8289;stroke-width:13.5710001;stroke-miterlimit:4;stroke-opacity:1;stroke-dasharray:none" />
    </g>
  </g>
</svg>
