<?xml version="1.0" encoding="UTF-8" standalone="no"?>
<!-- Created with Inkscape (http://www.inkscape.org/) -->

<svg
   xmlns:dc="http://purl.org/dc/elements/1.1/"
   xmlns:cc="http://creativecommons.org/ns#"
   xmlns:rdf="http://www.w3.org/1999/02/22-rdf-syntax-ns#"
   xmlns:svg="http://www.w3.org/2000/svg"
   xmlns="http://www.w3.org/2000/svg"
   xmlns:sodipodi="http://sodipodi.sourceforge.net/DTD/sodipodi-0.dtd"
   xmlns:inkscape="http://www.inkscape.org/namespaces/inkscape"
   width="512"
   height="512"
   id="svg2"
   version="1.1"
   inkscape:version="0.48.4 r9939"
   sodipodi:docname="application-excel.svg">
  <defs
     id="defs4" />
  <sodipodi:namedview
     id="base"
     pagecolor="#ffffff"
     bordercolor="#666666"
     borderopacity="1.0"
     inkscape:pageopacity="0.0"
     inkscape:pageshadow="2"
     inkscape:zoom="0.59714111"
     inkscape:cx="-155.87456"
     inkscape:cy="151.18988"
     inkscape:document-units="px"
     inkscape:current-layer="layer1"
     showgrid="false"
     inkscape:showpageshadow="false"
     borderlayer="true"
     inkscape:window-width="1366"
     inkscape:window-height="695"
     inkscape:window-x="0"
     inkscape:window-y="0"
     inkscape:window-maximized="1" />
  <metadata
     id="metadata7">
    <rdf:RDF>
      <cc:Work
         rdf:about="">
        <dc:format>image/svg+xml</dc:format>
        <dc:type
           rdf:resource="http://purl.org/dc/dcmitype/StillImage" />
        <dc:title />
      </cc:Work>
    </rdf:RDF>
  </metadata>
  <g
     inkscape:label="Layer 1"
     inkscape:groupmode="layer"
     id="layer1"
     transform="translate(0,-540.3622)">
    <g
       id="g3756"
       transform="matrix(12.669403,0,0,12.705185,53.514425,-12371.193)">
      <rect
         ry="2.0768454"
         y="1020.486"
         x="0.088039666"
         height="31.876749"
         width="31.96678"
         id="rect3147"
         style="fill:#009e55;fill-opacity:1;stroke:none" />
      <g
         id="text3836"
         style="font-size:40px;font-style:normal;font-weight:normal;line-height:125%;letter-spacing:0px;word-spacing:0px;fill:#ffffff;fill-opacity:1;stroke:none;font-family:Sans">
        <path
           id="path2986"
           style="font-size:32px;font-variant:normal;font-stretch:normal;fill:#ffffff;fill-opacity:1;font-family:Tinos;-inkscape-font-specification:Tinos"
           d="m 9.3359375,1045.5887 2.5937505,0.4219 0,0.8281 -6.8437505,0 0,-0.8281 2.3125,-0.4219 7.1250005,-9.4687 -6.0781255,-9 -2.359375,-0.4063 0,-0.8281 8.6406255,0 0,0.8281 -2.65625,0.4063 4.343749,6.4687 4.859375,-6.4687 -2.59375,-0.4063 0,-0.8281 6.859375,0 0,0.8281 -2.3125,0.4063 -5.890625,7.8437 7.203125,10.625 2.375,0.4219 0,0.8281 -8.640625,0 0,-0.8281 2.65625,-0.4219 -5.499999,-8.125 -6.0937505,8.125"
           inkscape:connector-curvature="0" />
      </g>
    </g>
  </g>
</svg>
