<?xml version="1.0" encoding="UTF-8" standalone="no"?>
<!-- Created with Inkscape (http://www.inkscape.org/) -->

<svg
   xmlns:dc="http://purl.org/dc/elements/1.1/"
   xmlns:cc="http://creativecommons.org/ns#"
   xmlns:rdf="http://www.w3.org/1999/02/22-rdf-syntax-ns#"
   xmlns:svg="http://www.w3.org/2000/svg"
   xmlns="http://www.w3.org/2000/svg"
   xmlns:xlink="http://www.w3.org/1999/xlink"
   xmlns:sodipodi="http://sodipodi.sourceforge.net/DTD/sodipodi-0.dtd"
   xmlns:inkscape="http://www.inkscape.org/namespaces/inkscape"
   width="512"
   height="512"
   id="svg2"
   version="1.1"
   inkscape:version="0.48.4 r9939"
   sodipodi:docname="application-x-java.svg">
  <defs
     id="defs4">
    <linearGradient
       inkscape:collect="always"
       xlink:href="#linearGradient3763"
       id="linearGradient3049"
       gradientUnits="userSpaceOnUse"
       gradientTransform="matrix(1.231823,0,0,1.231823,78.353343,-24.964761)"
       x1="64"
       y1="60"
       x2="62"
       y2="7" />
    <linearGradient
       id="linearGradient3763">
      <stop
         id="stop3765"
         style="stop-color:#ff7700;stop-opacity:1"
         offset="0" />
      <stop
         id="stop3767"
         style="stop-color:#ffb15d;stop-opacity:1"
         offset="1" />
    </linearGradient>
  </defs>
  <sodipodi:namedview
     id="base"
     pagecolor="#ffffff"
     bordercolor="#666666"
     borderopacity="1.0"
     inkscape:pageopacity="0.0"
     inkscape:pageshadow="2"
     inkscape:zoom="0.9"
     inkscape:cx="-13.196427"
     inkscape:cy="238.11268"
     inkscape:document-units="px"
     inkscape:current-layer="layer1"
     showgrid="false"
     inkscape:showpageshadow="false"
     borderlayer="true"
     inkscape:window-width="1366"
     inkscape:window-height="695"
     inkscape:window-x="0"
     inkscape:window-y="0"
     inkscape:window-maximized="1" />
  <metadata
     id="metadata7">
    <rdf:RDF>
      <cc:Work
         rdf:about="">
        <dc:format>image/svg+xml</dc:format>
        <dc:type
           rdf:resource="http://purl.org/dc/dcmitype/StillImage" />
        <dc:title />
      </cc:Work>
    </rdf:RDF>
  </metadata>
  <g
     inkscape:label="Layer 1"
     inkscape:groupmode="layer"
     id="layer1"
     transform="translate(0,-540.3622)">
    <g
       id="g2988"
       transform="matrix(12.693083,0,0,12.657957,54.270637,-12322.653)">
      <rect
         ry="2.0652111"
         y="1020.5753"
         x="0.088039666"
         height="31.698179"
         width="31.609636"
         id="rect3147"
         style="fill:none;stroke:#000000;stroke-width:0.29750592;stroke-miterlimit:4;stroke-opacity:1;stroke-dasharray:none" />
      <path
         d="m 18.75768,1022.6012 c 1.153304,4.5435 -4.071357,5.925 -5.955821,8.7546 -1.283281,1.9281 0.629891,3.9932 3.238275,6.3464 -1.017197,-2.2993 -4.468132,-4.3143 0,-7.8435 5.571694,-4.3977 2.717546,-7.2575 2.717546,-7.2575 z m 3.433548,5.6304 c 6.3e-5,0 -9.413791,2.3493 -4.914364,7.5342 1.328267,1.5289 -0.34173,2.8965 -0.34173,2.8965 0,0 3.370227,-1.7257 1.822546,-3.9054 -1.446009,-2.0317 -2.568258,-3.0448 3.433548,-6.5253 z m 1.529639,9.2591 c -0.288551,0.014 -0.585912,0.07 -0.894999,0.179 -0.289118,0.103 -0.439364,0.3417 -0.439364,0.3417 0,0 0.178291,-0.078 0.585819,-0.1626 1.666518,-0.3473 4.057133,2.2317 -1.106546,4.9142 -0.02392,0.064 -0.0977,0.1464 -0.09763,0.1464 6.248681,-1.6426 4.742057,-5.5617 1.952729,-5.4187 z m -11.163102,0.2603 c -0.658332,0.016 -2.212002,0.1587 -4.0030949,1.0253 -2.8251143,1.3659 6.9943459,1.987 12.0743789,0.6508 0.528129,-0.3604 1.252999,-0.6671 1.252999,-0.6671 0,0 -2.079279,0.3633 -4.149549,0.5369 -2.53393,0.2126 -5.242302,0.2639 -6.606733,0.081 -3.2304534,-0.4317 1.773726,-1.6272 1.773726,-1.6272 0,0 -0.122282,-0.013 -0.341727,0 z m -0.829911,3.1245 c -4.6602664,1.5465 2.599479,3.3044 9.112736,1.3993 -0.692016,-0.2439 -1.139091,-0.6834 -1.139091,-0.6834 -3.184546,0.6129 -5.025356,0.5823 -7.355279,0.3417 -1.801302,-0.1861 -0.618366,-1.0576 -0.618366,-1.0576 z m 0.650911,3.0104 c -4.2315567,1.1823 2.585748,3.6264 7.973646,1.3181 -0.882447,-0.343 -1.513368,-0.7322 -1.513368,-0.7322 -2.40267,0.4541 -3.530784,0.4931 -5.71173,0.2439 -1.799964,-0.2063 -0.748548,-0.8298 -0.748548,-0.8298 z m -2.7338201,2.0015 c -1.8184273,-0.07 -5.9328442,1.7389 -2.4083671,2.3108 10.9844362,1.7804 20.0166082,-0.7975 17.1677462,-2.083 0,0 0.772647,0.6432 -0.862453,1.1391 -3.10918,0.9418 -12.939233,1.2207 -15.6706578,0.032 -0.9811927,-0.4274 0.8527967,-1.014 1.4320047,-1.1391 0.603923,-0.1307 0.9600901,-0.098 0.9600901,-0.098 -0.136499,-0.095 -0.3585881,-0.1528 -0.6183631,-0.1627 z m 16.5005621,1.6273 c 0,0 -0.35128,0.8894 -4.10073,1.5947 -4.229974,0.7965 -9.436178,0.7061 -12.5300131,0.1952 0,0 0.6323741,0.5228 3.8891841,0.7324 4.955411,0.3168 12.561417,-0.1772 12.741559,-2.5223 z"
         inkscape:connector-curvature="0"
         id="path3672"
         style="fill:#d45500;fill-opacity:1;fill-rule:evenodd;display:inline" />
    </g>
  </g>
</svg>
