<?xml version="1.0" encoding="UTF-8" standalone="no"?>
<!-- Created with Inkscape (http://www.inkscape.org/) -->

<svg
   xmlns:dc="http://purl.org/dc/elements/1.1/"
   xmlns:cc="http://creativecommons.org/ns#"
   xmlns:rdf="http://www.w3.org/1999/02/22-rdf-syntax-ns#"
   xmlns:svg="http://www.w3.org/2000/svg"
   xmlns="http://www.w3.org/2000/svg"
   xmlns:xlink="http://www.w3.org/1999/xlink"
   xmlns:sodipodi="http://sodipodi.sourceforge.net/DTD/sodipodi-0.dtd"
   xmlns:inkscape="http://www.inkscape.org/namespaces/inkscape"
   width="512"
   height="512"
   id="svg2"
   version="1.1"
   inkscape:version="0.48.4 r9939"
   sodipodi:docname="application-x-trash.svg">
  <defs
     id="defs4">
    <linearGradient
       inkscape:collect="always"
       xlink:href="#linearGradient4360"
       id="linearGradient3042"
       gradientUnits="userSpaceOnUse"
       gradientTransform="matrix(0.7525584,0,0,0.8008702,126.93388,-53.289594)"
       x1="62.136082"
       y1="103.95654"
       x2="62.136082"
       y2="24.043467" />
    <linearGradient
       id="linearGradient4360">
      <stop
         id="stop4362"
         style="stop-color:#4f821e;stop-opacity:1"
         offset="0" />
      <stop
         id="stop4364"
         style="stop-color:#639632;stop-opacity:1"
         offset="1" />
    </linearGradient>
  </defs>
  <sodipodi:namedview
     id="base"
     pagecolor="#ffffff"
     bordercolor="#666666"
     borderopacity="1.0"
     inkscape:pageopacity="0.0"
     inkscape:pageshadow="2"
     inkscape:zoom="0.9"
     inkscape:cx="-172.68055"
     inkscape:cy="238.11268"
     inkscape:document-units="px"
     inkscape:current-layer="layer1"
     showgrid="false"
     inkscape:showpageshadow="false"
     borderlayer="true"
     inkscape:window-width="1366"
     inkscape:window-height="695"
     inkscape:window-x="0"
     inkscape:window-y="0"
     inkscape:window-maximized="1" />
  <metadata
     id="metadata7">
    <rdf:RDF>
      <cc:Work
         rdf:about="">
        <dc:format>image/svg+xml</dc:format>
        <dc:type
           rdf:resource="http://purl.org/dc/dcmitype/StillImage" />
        <dc:title />
      </cc:Work>
    </rdf:RDF>
  </metadata>
  <g
     inkscape:label="Layer 1"
     inkscape:groupmode="layer"
     id="layer1"
     transform="translate(0,-540.3622)">
    <g
       id="g2988"
       transform="matrix(12.693083,0,0,12.657957,54.270637,-12322.653)">
      <rect
         ry="2.0652111"
         y="1020.5753"
         x="0.088039666"
         height="31.698179"
         width="31.609636"
         id="rect3147"
         style="fill:none;stroke:#000000;stroke-width:0.29750592;stroke-miterlimit:4;stroke-opacity:1;stroke-dasharray:none" />
      <path
         d="m 20.029438,1024.6583 -6.435856,0.012 c 0.700455,0.4456 1.628888,1.4445 2.394138,2.5873 0.854751,1.2765 1.535021,2.7453 2.046602,4.0288 l -1.814911,1.0555 5.792271,-0.013 2.703059,-5.097 -1.441632,0.9653 -0.913892,-1.7377 c -0.612717,-0.9806 -1.174452,-1.6916 -2.329779,-1.802 z m -7.967589,0.2057 c -0.392948,-0.011 -0.811742,0.062 -1.2743,0.2447 l -2.8060333,4.1576 4.9427373,3.308 2.651573,-5.0072 c -0.732802,-1.0809 -1.811213,-2.6668 -3.513977,-2.7031 z m 13.579655,7.0669 -4.981352,3.2049 2.304036,4.9943 1.982244,0.012 c 1.157626,0.014 3.020568,-1.6927 2.947623,-2.922 l -2.252551,-5.2902 z m -16.5144054,1.2484 -5.380376,0.2961 1.7248092,0.9395 -0.5792269,1.2228 c -1.8693189,3.9965 0.4951922,5.9454 3.2951587,9.8341 -0.4001147,-0.9655 -0.3760809,-1.9985 -0.025745,-2.9991 l 2.4842394,-5.3161 1.557477,0.8109 -3.0763378,-4.7882 z m 10.5676744,5.7278 -2.651572,5.0587 2.651572,4.9942 0.01289,-2.0594 1.300044,0 c 4.194884,0 4.774445,-3.1159 6.796263,-7.5171 -0.633494,0.8115 -1.512229,1.2389 -2.509983,1.3515 l -5.586324,0.013 -0.01289,-1.8406 z m -4.183306,1.6477 -5.7793979,0.1929 -0.90102,1.8666 c -0.5274893,1.0966 0.079116,3.6401 1.1455822,4.1189 l 5.4962207,0 0.03859,-6.1784 z"
         inkscape:connector-curvature="0"
         id="path4068"
         style="fill:#008000;fill-opacity:1;stroke:none;display:inline" />
    </g>
  </g>
</svg>
