<?xml version="1.0" encoding="UTF-8" standalone="no"?>
<!-- Created with Inkscape (http://www.inkscape.org/) -->

<svg
   xmlns:dc="http://purl.org/dc/elements/1.1/"
   xmlns:cc="http://creativecommons.org/ns#"
   xmlns:rdf="http://www.w3.org/1999/02/22-rdf-syntax-ns#"
   xmlns:svg="http://www.w3.org/2000/svg"
   xmlns="http://www.w3.org/2000/svg"
   xmlns:sodipodi="http://sodipodi.sourceforge.net/DTD/sodipodi-0.dtd"
   xmlns:inkscape="http://www.inkscape.org/namespaces/inkscape"
   width="512"
   height="512"
   id="svg2"
   version="1.1"
   inkscape:version="0.48.4 r9939"
   sodipodi:docname="application-xml.svg">
  <defs
     id="defs4" />
  <sodipodi:namedview
     id="base"
     pagecolor="#ffffff"
     bordercolor="#666666"
     borderopacity="1.0"
     inkscape:pageopacity="0.0"
     inkscape:pageshadow="2"
     inkscape:zoom="0.9"
     inkscape:cx="30.111107"
     inkscape:cy="256"
     inkscape:document-units="px"
     inkscape:current-layer="layer1"
     showgrid="false"
     inkscape:showpageshadow="false"
     borderlayer="true"
     inkscape:window-width="1366"
     inkscape:window-height="695"
     inkscape:window-x="0"
     inkscape:window-y="0"
     inkscape:window-maximized="1" />
  <metadata
     id="metadata7">
    <rdf:RDF>
      <cc:Work
         rdf:about="">
        <dc:format>image/svg+xml</dc:format>
        <dc:type
           rdf:resource="http://purl.org/dc/dcmitype/StillImage" />
        <dc:title></dc:title>
      </cc:Work>
    </rdf:RDF>
  </metadata>
  <g
     inkscape:label="Layer 1"
     inkscape:groupmode="layer"
     id="layer1"
     transform="translate(0,-540.3622)">
    <rect
       style="fill:none;stroke:#000000;stroke-width:3.77103853;stroke-miterlimit:4;stroke-opacity:1;stroke-dasharray:none"
       id="rect3147"
       width="401.22372"
       height="401.23419"
       x="55.38813"
       y="595.74548"
       ry="26.141354" />
    <rect
       style="fill:#ec7b1e;fill-opacity:1;stroke:none"
       id="rect3919"
       width="117.34037"
       height="27.124195"
       x="238.44093"
       y="694.08569" />
    <rect
       style="fill:#ec7b1e;fill-opacity:1;stroke:none"
       id="rect3919-8"
       width="199.56259"
       height="27.124195"
       x="156.2187"
       y="744.94312" />
    <rect
       style="fill:#ec7b1e;fill-opacity:1;stroke:none"
       id="rect3919-2"
       width="199.56259"
       height="27.124195"
       x="156.2187"
       y="794.67102" />
    <rect
       style="fill:#ec7b1e;fill-opacity:1;stroke:none"
       id="rect3919-6"
       width="153.95782"
       height="27.124195"
       x="154.57663"
       y="846.65796" />
    <g
       transform="matrix(1.2069371,0,0,1.2069371,76.386832,206.2577)"
       style="font-size:40px;font-style:normal;font-weight:normal;line-height:125%;letter-spacing:0px;word-spacing:0px;fill:#000000;fill-opacity:1;stroke:none;font-family:Sans"
       id="flowRoot2990">
      <path
         d="m 127.5625,436.97945 0,7.03125 -6.78125,0 c -4.54169,-10e-6 -7.85419,-0.91668 -9.9375,-2.75 -2.08335,-1.83334 -3.12502,-4.76042 -3.125,-8.78125 l 0,-6 c -2e-5,-3.12499 -0.56252,-5.29166 -1.6875,-6.5 -1.12501,-1.22916 -3.16668,-1.84374 -6.125,-1.84375 l -1.90625,0 0,-6.96875 1.90625,0 c 2.95832,2e-5 4.99999,-0.60415 6.125,-1.8125 1.12498,-1.20831 1.68748,-3.37498 1.6875,-6.5 l 0,-6.40625 c -2e-5,-4.0208 1.04165,-6.93746 3.125,-8.75 2.08331,-1.83329 5.39581,-2.74996 9.9375,-2.75 l 6.78125,0 0,7.03125 -2.15625,0 c -2.93753,4e-5 -4.8542,0.45837 -5.75,1.375 -0.87503,0.89587 -1.31253,2.82295 -1.3125,5.78125 l 0,5.1875 c -3e-5,3.27086 -0.46878,5.64585 -1.40625,7.125 -0.93753,1.47918 -2.55211,2.47918 -4.84375,3 2.31248,0.56251 3.92706,1.58335 4.84375,3.0625 0.93747,1.47918 1.40622,3.84376 1.40625,7.09375 l 0,5.1875 c -3e-5,2.97916 0.43747,4.91666 1.3125,5.8125 0.8958,0.91666 2.81247,1.37499 5.75,1.375 l 2.15625,0"
         style="font-size:64px;font-weight:bold;-inkscape-font-specification:Sans Bold;fill:#ec7b1e;fill-opacity:1"
         id="path2999"
         inkscape:connector-curvature="0" />
    </g>
    <g
       transform="matrix(-1.2069371,0,0,1.2069371,475.00876,362.11158)"
       style="font-size:40px;font-style:normal;font-weight:normal;line-height:125%;letter-spacing:0px;word-spacing:0px;fill:#ec7b1e;fill-opacity:1;stroke:none;font-family:Sans"
       id="flowRoot2990-0">
      <path
         d="m 127.5625,436.97945 0,7.03125 -6.78125,0 c -4.54169,-10e-6 -7.85419,-0.91668 -9.9375,-2.75 -2.08335,-1.83334 -3.12502,-4.76042 -3.125,-8.78125 l 0,-6 c -2e-5,-3.12499 -0.56252,-5.29166 -1.6875,-6.5 -1.12501,-1.22916 -3.16668,-1.84374 -6.125,-1.84375 l -1.90625,0 0,-6.96875 1.90625,0 c 2.95832,2e-5 4.99999,-0.60415 6.125,-1.8125 1.12498,-1.20831 1.68748,-3.37498 1.6875,-6.5 l 0,-6.40625 c -2e-5,-4.0208 1.04165,-6.93746 3.125,-8.75 2.08331,-1.83329 5.39581,-2.74996 9.9375,-2.75 l 6.78125,0 0,7.03125 -2.15625,0 c -2.93753,4e-5 -4.8542,0.45837 -5.75,1.375 -0.87503,0.89587 -1.31253,2.82295 -1.3125,5.78125 l 0,5.1875 c -3e-5,3.27086 -0.46878,5.64585 -1.40625,7.125 -0.93753,1.47918 -2.55211,2.47918 -4.84375,3 2.31248,0.56251 3.92706,1.58335 4.84375,3.0625 0.93747,1.47918 1.40622,3.84376 1.40625,7.09375 l 0,5.1875 c -3e-5,2.97916 0.43747,4.91666 1.3125,5.8125 0.8958,0.91666 2.81247,1.37499 5.75,1.375 l 2.15625,0"
         style="font-size:64px;font-weight:bold;-inkscape-font-specification:Sans Bold;fill:#ec7b1e;fill-opacity:1"
         id="path2999-5"
         inkscape:connector-curvature="0" />
    </g>
    <g
       transform="matrix(1.2339181,0,0,1.2339181,16.929821,513.93426)"
       style="font-size:40px;font-style:normal;font-weight:normal;line-height:125%;letter-spacing:0px;word-spacing:0px;fill:#ec7b1e;fill-opacity:1;stroke:none;font-family:Sans"
       id="flowRoot3043">
      <path
         d="m 103,184.22945 -9.28125,0 c -3.187512,-5.14584 -5.541676,-10.03125 -7.0625,-14.65625 -1.52084,-4.64583 -2.281256,-9.24999 -2.28125,-13.8125 -6e-6,-4.56248 0.76041,-9.17706 2.28125,-13.84375 1.541657,-4.68747 3.895822,-9.58329 7.0625,-14.6875 l 9.28125,0 c -2.66669,4.93754 -4.666686,9.77087 -6,14.5 -1.33335,4.70836 -2.000016,9.3646 -2,13.96875 -1.6e-5,4.60418 0.656233,9.27084 1.96875,14 1.333314,4.72916 3.34373,9.57291 6.03125,14.53125"
         style="font-size:64px;font-weight:bold;-inkscape-font-specification:Sans Bold;fill:#ec7b1e;fill-opacity:1"
         id="path3052"
         inkscape:connector-curvature="0" />
      <path
         d="m 113.25,184.22945 c 2.66666,-4.95834 4.66666,-9.80209 6,-14.53125 1.33332,-4.72916 1.99999,-9.39582 2,-14 -1e-5,-4.60415 -0.66668,-9.26039 -2,-13.96875 -1.33334,-4.72913 -3.33334,-9.56246 -6,-14.5 l 9.28125,0 c 3.16665,5.10421 5.5104,10.00003 7.03125,14.6875 1.54164,4.66669 2.31248,9.28127 2.3125,13.84375 -2e-5,4.56251 -0.76044,9.16667 -2.28125,13.8125 -1.52085,4.625 -3.87502,9.51041 -7.0625,14.65625 l -9.28125,0"
         style="font-size:64px;font-weight:bold;-inkscape-font-specification:Sans Bold;fill:#ec7b1e;fill-opacity:1"
         id="path3054"
         inkscape:connector-curvature="0" />
    </g>
  </g>
</svg>
