<?xml version="1.0" encoding="UTF-8" standalone="no"?>
<!-- Created with Inkscape (http://www.inkscape.org/) -->

<svg
   xmlns:dc="http://purl.org/dc/elements/1.1/"
   xmlns:cc="http://creativecommons.org/ns#"
   xmlns:rdf="http://www.w3.org/1999/02/22-rdf-syntax-ns#"
   xmlns:svg="http://www.w3.org/2000/svg"
   xmlns="http://www.w3.org/2000/svg"
   xmlns:sodipodi="http://sodipodi.sourceforge.net/DTD/sodipodi-0.dtd"
   xmlns:inkscape="http://www.inkscape.org/namespaces/inkscape"
   width="512"
   height="512"
   id="svg2"
   version="1.1"
   inkscape:version="0.48.4 r9939"
   sodipodi:docname="application-octet-stream.svg"
   inkscape:export-filename="/home/richjack/Pictures/Icons by type/Mimetypes/application-octet-stream.png"
   inkscape:export-xdpi="90"
   inkscape:export-ydpi="90">
  <defs
     id="defs4" />
  <sodipodi:namedview
     id="base"
     pagecolor="#ffffff"
     bordercolor="#666666"
     borderopacity="1.0"
     inkscape:pageopacity="0.0"
     inkscape:pageshadow="2"
     inkscape:zoom="0.9"
     inkscape:cx="116.87063"
     inkscape:cy="256"
     inkscape:document-units="px"
     inkscape:current-layer="layer1"
     showgrid="false"
     inkscape:showpageshadow="false"
     borderlayer="true"
     inkscape:window-width="1366"
     inkscape:window-height="695"
     inkscape:window-x="0"
     inkscape:window-y="0"
     inkscape:window-maximized="1" />
  <metadata
     id="metadata7">
    <rdf:RDF>
      <cc:Work
         rdf:about="">
        <dc:format>image/svg+xml</dc:format>
        <dc:type
           rdf:resource="http://purl.org/dc/dcmitype/StillImage" />
        <dc:title />
      </cc:Work>
    </rdf:RDF>
  </metadata>
  <g
     inkscape:label="Layer 1"
     inkscape:groupmode="layer"
     id="layer1"
     transform="translate(0,-540.3622)">
    <g
       id="g3760"
       transform="matrix(12.693083,0,0,12.657957,54.270637,-12322.653)">
      <rect
         ry="2.0652111"
         y="1020.5753"
         x="0.088039666"
         height="31.698179"
         width="31.609636"
         id="rect3147"
         style="fill:none;stroke:#000000;stroke-width:0.29750592;stroke-miterlimit:4;stroke-opacity:1;stroke-dasharray:none" />
      <g
         id="text2995"
         style="font-size:40px;font-style:normal;font-weight:normal;line-height:125%;letter-spacing:0px;word-spacing:0px;fill:#737373;fill-opacity:1;stroke:none;font-family:Sans">
        <path
           id="path3824"
           style="font-size:8px;font-variant:normal;font-stretch:normal;fill:#737373;fill-opacity:1;font-family:Monospace;-inkscape-font-specification:Monospace"
           d="m 5.5474331,1026.2181 c -1.8e-6,-0.1432 0.049477,-0.2669 0.1484375,-0.3711 0.1015604,-0.1041 0.222654,-0.1562 0.3632813,-0.1562 0.1458308,0 0.2708307,0.052 0.375,0.1562 0.1041638,0.1042 0.1562471,0.2279 0.15625,0.3711 -2.9e-6,0.1459 -0.052086,0.2696 -0.15625,0.3711 -0.1015652,0.1016 -0.2265651,0.1524 -0.375,0.1524 -0.1458356,0 -0.2682313,-0.05 -0.3671875,-0.1485 -0.096356,-0.099 -0.1445331,-0.2239 -0.1445313,-0.375 m 0.5195313,-2.3828 c -0.3671896,0 -0.6419289,0.1979 -0.8242188,0.5938 -0.1796889,0.3958 -0.2695325,0.9987 -0.2695312,1.8086 -1.3e-6,0.8073 0.089842,1.4088 0.2695312,1.8047 0.1822899,0.3958 0.4570292,0.5937 0.8242188,0.5937 0.3697889,0 0.6445282,-0.1979 0.8242187,-0.5937 0.1822883,-0.3959 0.273434,-0.9974 0.2734375,-1.8047 -3.5e-6,-0.8099 -0.091149,-1.4128 -0.2734375,-1.8086 -0.1796905,-0.3959 -0.4544298,-0.5938 -0.8242187,-0.5938 m 0,-0.625 c 0.6223928,0 1.0924444,0.2552 1.4101562,0.7657 0.3203084,0.5104 0.4804645,1.2643 0.4804688,2.2617 -4.3e-6,0.9948 -0.1601604,1.7474 -0.4804688,2.2578 -0.3177118,0.5104 -0.7877634,0.7656 -1.4101562,0.7656 -0.6223976,0 -1.0924492,-0.2552 -1.4101563,-0.7656 -0.317709,-0.5104 -0.476563,-1.263 -0.4765625,-2.2578 -5e-7,-0.9974 0.1588535,-1.7513 0.4765625,-2.2617 0.3177071,-0.5105 0.7877587,-0.7657 1.4101563,-0.7657"
           inkscape:connector-curvature="0" />
        <path
           id="path3826"
           style="font-size:8px;font-variant:normal;font-stretch:normal;fill:#737373;fill-opacity:1;font-family:Monospace;-inkscape-font-specification:Monospace"
           d="m 14.340402,1028.4838 1.226562,0 0,-4.4571 -1.320312,0.2969 0,-0.7187 1.3125,-0.2891 0.789062,0 0,5.168 1.210938,0 0,0.664 -3.21875,0 0,-0.664"
           inkscape:connector-curvature="0" />
        <path
           id="path3828"
           style="font-size:8px;font-variant:normal;font-stretch:normal;fill:#737373;fill-opacity:1;font-family:Monospace;-inkscape-font-specification:Monospace"
           d="m 24.797433,1026.2181 c -2e-6,-0.1432 0.04948,-0.2669 0.148438,-0.3711 0.10156,-0.1041 0.222654,-0.1562 0.363281,-0.1562 0.145831,0 0.270831,0.052 0.375,0.1562 0.104164,0.1042 0.156247,0.2279 0.15625,0.3711 -3e-6,0.1459 -0.05209,0.2696 -0.15625,0.3711 -0.101565,0.1016 -0.226565,0.1524 -0.375,0.1524 -0.145836,0 -0.268231,-0.05 -0.367188,-0.1485 -0.09636,-0.099 -0.144533,-0.2239 -0.144531,-0.375 m 0.519531,-2.3828 c -0.367189,0 -0.641928,0.1979 -0.824218,0.5938 -0.179689,0.3958 -0.269533,0.9987 -0.269532,1.8086 -10e-7,0.8073 0.08984,1.4088 0.269532,1.8047 0.18229,0.3958 0.457029,0.5937 0.824218,0.5937 0.369789,0 0.644529,-0.1979 0.824219,-0.5937 0.182288,-0.3959 0.273434,-0.9974 0.273438,-1.8047 -4e-6,-0.8099 -0.09115,-1.4128 -0.273438,-1.8086 -0.17969,-0.3959 -0.45443,-0.5938 -0.824219,-0.5938 m 0,-0.625 c 0.622393,0 1.092445,0.2552 1.410157,0.7657 0.320308,0.5104 0.480464,1.2643 0.480468,2.2617 -4e-6,0.9948 -0.16016,1.7474 -0.480468,2.2578 -0.317712,0.5104 -0.787764,0.7656 -1.410157,0.7656 -0.622397,0 -1.092449,-0.2552 -1.410156,-0.7656 -0.317709,-0.5104 -0.476563,-1.263 -0.476562,-2.2578 -1e-6,-0.9974 0.158853,-1.7513 0.476562,-2.2617 0.317707,-0.5105 0.787759,-0.7657 1.410156,-0.7657"
           inkscape:connector-curvature="0" />
        <path
           id="path3830"
           style="font-size:8px;font-variant:normal;font-stretch:normal;fill:#737373;fill-opacity:1;font-family:Monospace;-inkscape-font-specification:Monospace"
           d="m 4.7154019,1038.4838 1.2265625,0 0,-4.4571 -1.3203125,0.2969 0,-0.7187 1.3125,-0.2891 0.7890625,0 0,5.168 1.2109375,0 0,0.664 -3.21875,0 0,-0.664"
           inkscape:connector-curvature="0" />
        <path
           id="path3832"
           style="font-size:8px;font-variant:normal;font-stretch:normal;fill:#737373;fill-opacity:1;font-family:Monospace;-inkscape-font-specification:Monospace"
           d="m 15.172433,1036.2181 c -2e-6,-0.1432 0.04948,-0.2669 0.148438,-0.3711 0.10156,-0.1041 0.222654,-0.1562 0.363281,-0.1562 0.145831,0 0.270831,0.052 0.375,0.1562 0.104164,0.1042 0.156247,0.2279 0.15625,0.3711 -3e-6,0.1459 -0.05209,0.2696 -0.15625,0.3711 -0.101565,0.1016 -0.226565,0.1524 -0.375,0.1524 -0.145836,0 -0.268231,-0.05 -0.367188,-0.1485 -0.09636,-0.099 -0.144533,-0.2239 -0.144531,-0.375 m 0.519531,-2.3828 c -0.367189,0 -0.641928,0.1979 -0.824218,0.5938 -0.179689,0.3958 -0.269533,0.9987 -0.269532,1.8086 -1e-6,0.8073 0.08984,1.4088 0.269532,1.8047 0.18229,0.3958 0.457029,0.5937 0.824218,0.5937 0.369789,0 0.644529,-0.1979 0.824219,-0.5937 0.182288,-0.3959 0.273434,-0.9974 0.273438,-1.8047 -4e-6,-0.8099 -0.09115,-1.4128 -0.273438,-1.8086 -0.17969,-0.3959 -0.45443,-0.5938 -0.824219,-0.5938 m 0,-0.625 c 0.622393,0 1.092445,0.2552 1.410157,0.7657 0.320308,0.5104 0.480464,1.2643 0.480468,2.2617 -4e-6,0.9948 -0.16016,1.7474 -0.480468,2.2578 -0.317712,0.5104 -0.787764,0.7656 -1.410157,0.7656 -0.622397,0 -1.092449,-0.2552 -1.410156,-0.7656 -0.317709,-0.5104 -0.476563,-1.263 -0.476562,-2.2578 -1e-6,-0.9974 0.158853,-1.7513 0.476562,-2.2617 0.317707,-0.5105 0.787759,-0.7657 1.410156,-0.7657"
           inkscape:connector-curvature="0" />
        <path
           id="path3834"
           style="font-size:8px;font-variant:normal;font-stretch:normal;fill:#737373;fill-opacity:1;font-family:Monospace;-inkscape-font-specification:Monospace"
           d="m 23.965402,1038.4838 1.226562,0 0,-4.4571 -1.320312,0.2969 0,-0.7187 1.3125,-0.2891 0.789062,0 0,5.168 1.210938,0 0,0.664 -3.21875,0 0,-0.664"
           inkscape:connector-curvature="0" />
        <path
           id="path3836"
           style="font-size:8px;font-variant:normal;font-stretch:normal;fill:#737373;fill-opacity:1;font-family:Monospace;-inkscape-font-specification:Monospace"
           d="m 5.5474331,1046.2181 c -1.8e-6,-0.1432 0.049477,-0.2669 0.1484375,-0.3711 0.1015604,-0.1041 0.222654,-0.1562 0.3632813,-0.1562 0.1458308,0 0.2708307,0.052 0.375,0.1562 0.1041638,0.1042 0.1562471,0.2279 0.15625,0.3711 -2.9e-6,0.1459 -0.052086,0.2696 -0.15625,0.3711 -0.1015652,0.1016 -0.2265651,0.1524 -0.375,0.1524 -0.1458356,0 -0.2682313,-0.05 -0.3671875,-0.1485 -0.096356,-0.099 -0.1445331,-0.2239 -0.1445313,-0.375 m 0.5195313,-2.3828 c -0.3671896,0 -0.6419289,0.1979 -0.8242188,0.5938 -0.1796889,0.3958 -0.2695325,0.9987 -0.2695312,1.8086 -1.3e-6,0.8073 0.089842,1.4088 0.2695312,1.8047 0.1822899,0.3958 0.4570292,0.5937 0.8242188,0.5937 0.3697889,0 0.6445282,-0.1979 0.8242187,-0.5937 0.1822883,-0.3959 0.273434,-0.9974 0.2734375,-1.8047 -3.5e-6,-0.8099 -0.091149,-1.4128 -0.2734375,-1.8086 -0.1796905,-0.3959 -0.4544298,-0.5938 -0.8242187,-0.5938 m 0,-0.625 c 0.6223928,0 1.0924444,0.2552 1.4101562,0.7657 0.3203084,0.5104 0.4804645,1.2643 0.4804688,2.2617 -4.3e-6,0.9948 -0.1601604,1.7474 -0.4804688,2.2578 -0.3177118,0.5104 -0.7877634,0.7656 -1.4101562,0.7656 -0.6223976,0 -1.0924492,-0.2552 -1.4101563,-0.7656 -0.317709,-0.5104 -0.476563,-1.263 -0.4765625,-2.2578 -5e-7,-0.9974 0.1588535,-1.7513 0.4765625,-2.2617 0.3177071,-0.5105 0.7877587,-0.7657 1.4101563,-0.7657"
           inkscape:connector-curvature="0" />
        <path
           id="path3838"
           style="font-size:8px;font-variant:normal;font-stretch:normal;fill:#737373;fill-opacity:1;font-family:Monospace;-inkscape-font-specification:Monospace"
           d="m 14.340402,1048.4838 1.226562,0 0,-4.4571 -1.320312,0.2969 0,-0.7187 1.3125,-0.2891 0.789062,0 0,5.168 1.210938,0 0,0.664 -3.21875,0 0,-0.664"
           inkscape:connector-curvature="0" />
      </g>
    </g>
  </g>
</svg>
