<?xml version="1.0" encoding="UTF-8" standalone="no"?>
<!-- Created with Inkscape (http://www.inkscape.org/) -->

<svg
   xmlns:dc="http://purl.org/dc/elements/1.1/"
   xmlns:cc="http://creativecommons.org/ns#"
   xmlns:rdf="http://www.w3.org/1999/02/22-rdf-syntax-ns#"
   xmlns:svg="http://www.w3.org/2000/svg"
   xmlns="http://www.w3.org/2000/svg"
   xmlns:sodipodi="http://sodipodi.sourceforge.net/DTD/sodipodi-0.dtd"
   xmlns:inkscape="http://www.inkscape.org/namespaces/inkscape"
   width="512"
   height="512"
   id="svg2"
   version="1.1"
   inkscape:version="0.48.4 r9939"
   sodipodi:docname="application-mspowerpoint.svg">
  <defs
     id="defs4" />
  <sodipodi:namedview
     id="base"
     pagecolor="#ffffff"
     bordercolor="#666666"
     borderopacity="1.0"
     inkscape:pageopacity="0.0"
     inkscape:pageshadow="2"
     inkscape:zoom="0.93554688"
     inkscape:cx="256"
     inkscape:cy="256"
     inkscape:document-units="px"
     inkscape:current-layer="layer1"
     showgrid="false"
     inkscape:showpageshadow="false"
     borderlayer="true"
     inkscape:window-width="1366"
     inkscape:window-height="695"
     inkscape:window-x="0"
     inkscape:window-y="0"
     inkscape:window-maximized="1" />
  <metadata
     id="metadata7">
    <rdf:RDF>
      <cc:Work
         rdf:about="">
        <dc:format>image/svg+xml</dc:format>
        <dc:type
           rdf:resource="http://purl.org/dc/dcmitype/StillImage" />
        <dc:title />
      </cc:Work>
    </rdf:RDF>
  </metadata>
  <g
     inkscape:label="Layer 1"
     inkscape:groupmode="layer"
     id="layer1"
     transform="translate(0,-540.3622)">
    <g
       id="g3756"
       transform="matrix(12.669403,0,0,12.705185,53.133856,-12371.54)">
      <rect
         ry="2.0768454"
         y="1020.486"
         x="0.088039666"
         height="31.876749"
         width="31.96678"
         id="rect3147"
         style="fill:#ff752a;fill-opacity:1;stroke:none" />
      <g
         id="text3836"
         style="font-size:40px;font-style:normal;font-weight:normal;line-height:125%;letter-spacing:0px;word-spacing:0px;fill:#ffffff;fill-opacity:1;stroke:none;font-family:Sans">
        <path
           id="path2986"
           style="font-size:32px;font-variant:normal;font-stretch:normal;fill:#ffffff;fill-opacity:1;font-family:Tinos;-inkscape-font-specification:Tinos"
           d="m 20.6875,1032.0887 c -1.3e-5,-1.7187 -0.401055,-2.9479 -1.203125,-3.6875 -0.802095,-0.7395 -2.151052,-1.1093 -4.046875,-1.1093 l -1.53125,0 0,9.9218 1.625,0 c 1.760407,10e-5 3.05728,-0.401 3.890625,-1.2031 0.843737,-0.8021 1.265612,-2.1093 1.265625,-3.9219 m -6.78125,6.5313 0,6.9687 3.328125,0.4219 0,0.8281 -8.828125,0 0,-0.8281 2.484375,-0.4219 0,-18.4687 -2.6875,-0.4063 0,-0.8281 7.90625,0 c 5.124986,0 7.687483,2.0573 7.6875,6.1719 -1.7e-5,2.1458 -0.651058,3.776 -1.953125,4.8906 -1.29168,1.1146 -3.151053,1.6719 -5.578125,1.6719 l -2.359375,0"
           inkscape:connector-curvature="0" />
      </g>
    </g>
  </g>
</svg>
