<?xml version="1.0" encoding="UTF-8" standalone="no"?>
<!-- Created with Inkscape (http://www.inkscape.org/) -->

<svg
   xmlns:dc="http://purl.org/dc/elements/1.1/"
   xmlns:cc="http://creativecommons.org/ns#"
   xmlns:rdf="http://www.w3.org/1999/02/22-rdf-syntax-ns#"
   xmlns:svg="http://www.w3.org/2000/svg"
   xmlns="http://www.w3.org/2000/svg"
   xmlns:sodipodi="http://sodipodi.sourceforge.net/DTD/sodipodi-0.dtd"
   xmlns:inkscape="http://www.inkscape.org/namespaces/inkscape"
   width="512"
   height="512"
   id="svg2"
   version="1.1"
   inkscape:version="0.48.4 r9939"
   sodipodi:docname="playlist.svg">
  <defs
     id="defs4" />
  <sodipodi:namedview
     id="base"
     pagecolor="#ffffff"
     bordercolor="#666666"
     borderopacity="1.0"
     inkscape:pageopacity="0.0"
     inkscape:pageshadow="2"
     inkscape:zoom="0.9"
     inkscape:cx="-10.339287"
     inkscape:cy="245.72154"
     inkscape:document-units="px"
     inkscape:current-layer="layer1"
     showgrid="false"
     inkscape:showpageshadow="false"
     borderlayer="true"
     inkscape:window-width="1366"
     inkscape:window-height="695"
     inkscape:window-x="0"
     inkscape:window-y="0"
     inkscape:window-maximized="1" />
  <metadata
     id="metadata7">
    <rdf:RDF>
      <cc:Work
         rdf:about="">
        <dc:format>image/svg+xml</dc:format>
        <dc:type
           rdf:resource="http://purl.org/dc/dcmitype/StillImage" />
        <dc:title />
      </cc:Work>
    </rdf:RDF>
  </metadata>
  <g
     inkscape:label="Layer 1"
     inkscape:groupmode="layer"
     id="layer1"
     transform="translate(0,-540.3622)">
    <g
       id="g3008"
       transform="matrix(12.669403,0,0,12.705185,52.38459,-12371.602)">
      <rect
         ry="2.0768454"
         y="1020.486"
         x="0.088039666"
         height="31.876749"
         width="31.96678"
         id="rect3147"
         style="fill:#dd4330;fill-opacity:1;stroke:none" />
      <g
         style="fill:#ffffff;fill-opacity:1"
         transform="matrix(1.2796352,0,0,1.2796352,-587.52714,775.96629)"
         id="layer13">
        <path
           d="m 464.5,203.01 c -1.9212,0 -3.5034,1.5501 -3.5034,3.4712 0,1.9212 1.5822,3.5034 3.5034,3.5034 1.9212,0 3.5034,-1.5822 3.5034,-3.5034 0,-1.9212 -1.5822,-3.4712 -3.5034,-3.4712 z m 0,1.9928 c 0.84027,0 1.5106,0.63823 1.5106,1.4785 0,0.84027 -0.67037,1.5106 -1.5106,1.5106 -0.84027,0 -1.5106,-0.67036 -1.5106,-1.5106 0,-0.84027 0.67037,-1.4785 1.5106,-1.4785 z"
           style="text-indent:0;text-transform:none;block-progression:tb;color:#000000;fill:#ffffff;fill-opacity:1;enable-background:new"
           id="path5005"
           inkscape:connector-curvature="0" />
        <path
           d="m 472.5,203.01 c -1.9212,0 -3.5034,1.5501 -3.5034,3.4712 0,1.9212 1.5822,3.5034 3.5034,3.5034 1.9212,0 3.5034,-1.5822 3.5034,-3.5034 0,-1.9212 -1.5822,-3.4712 -3.5034,-3.4712 z m 0,1.9928 c 0.84027,0 1.5106,0.63823 1.5106,1.4785 0,0.84027 -0.67037,1.5106 -1.5106,1.5106 -0.84027,0 -1.5106,-0.67036 -1.5106,-1.5106 0,-0.84027 0.67037,-1.4785 1.5106,-1.4785 z"
           style="text-indent:0;text-transform:none;block-progression:tb;color:#000000;fill:#ffffff;fill-opacity:1;enable-background:new"
           id="path5007"
           inkscape:connector-curvature="0" />
        <rect
           x="466"
           y="197"
           width="2"
           height="9.5157003"
           style="color:#000000;fill:#ffffff;fill-opacity:1;enable-background:new"
           id="rect5009" />
        <rect
           x="474"
           y="197"
           width="2"
           height="9.5627003"
           style="color:#000000;fill:#ffffff;fill-opacity:1;enable-background:new"
           id="rect5011" />
        <rect
           x="466"
           y="197"
           width="10"
           height="2"
           style="color:#000000;fill:#ffffff;fill-opacity:1;enable-background:new"
           id="rect5013" />
      </g>
      <path
         inkscape:transform-center-x="1.0654836"
         transform="matrix(0,1.6970268,1.2218408,0,-6.5698406,988.84505)"
         d="m 22.362766,30.115257 -3.020809,-5.232196 6.041619,0 z"
         inkscape:randomized="0"
         inkscape:rounded="0"
         inkscape:flatsided="true"
         sodipodi:arg2="2.6179939"
         sodipodi:arg1="1.5707963"
         sodipodi:r2="1.7440652"
         sodipodi:r1="3.4881306"
         sodipodi:cy="26.627127"
         sodipodi:cx="22.362766"
         sodipodi:sides="3"
         id="path4953"
         style="fill:#ffffff;fill-opacity:1;stroke:none"
         sodipodi:type="star" />
    </g>
  </g>
</svg>
