<?xml version="1.0" encoding="UTF-8" standalone="no"?>
<!-- Created with Inkscape (http://www.inkscape.org/) -->

<svg
   xmlns:dc="http://purl.org/dc/elements/1.1/"
   xmlns:cc="http://creativecommons.org/ns#"
   xmlns:rdf="http://www.w3.org/1999/02/22-rdf-syntax-ns#"
   xmlns:svg="http://www.w3.org/2000/svg"
   xmlns="http://www.w3.org/2000/svg"
   xmlns:sodipodi="http://sodipodi.sourceforge.net/DTD/sodipodi-0.dtd"
   xmlns:inkscape="http://www.inkscape.org/namespaces/inkscape"
   width="512"
   height="512"
   id="svg2"
   version="1.1"
   inkscape:version="0.48.4 r9939"
   sodipodi:docname="x-office-address-book.svg">
  <defs
     id="defs4" />
  <sodipodi:namedview
     id="base"
     pagecolor="#ffffff"
     bordercolor="#666666"
     borderopacity="1.0"
     inkscape:pageopacity="0.0"
     inkscape:pageshadow="2"
     inkscape:zoom="0.88"
     inkscape:cx="109.36017"
     inkscape:cy="271.43028"
     inkscape:document-units="px"
     inkscape:current-layer="layer1"
     showgrid="false"
     inkscape:showpageshadow="false"
     borderlayer="true"
     inkscape:window-width="1366"
     inkscape:window-height="695"
     inkscape:window-x="0"
     inkscape:window-y="0"
     inkscape:window-maximized="1" />
  <metadata
     id="metadata7">
    <rdf:RDF>
      <cc:Work
         rdf:about="">
        <dc:format>image/svg+xml</dc:format>
        <dc:type
           rdf:resource="http://purl.org/dc/dcmitype/StillImage" />
        <dc:title />
      </cc:Work>
    </rdf:RDF>
  </metadata>
  <g
     inkscape:label="Layer 1"
     inkscape:groupmode="layer"
     id="layer1"
     transform="translate(0,-540.3622)">
    <g
       id="g3756"
       transform="matrix(12.669568,0,0,12.669862,53.513155,-12334.426)">
      <rect
         ry="2.0826354"
         y="1020.3969"
         x="-0.0010380649"
         height="31.96562"
         width="31.966362"
         id="rect3147"
         style="fill:#872735;fill-opacity:1;stroke:none" />
      <g
         id="text2983"
         style="font-size:32.76836014px;font-style:normal;font-weight:normal;line-height:125%;letter-spacing:0px;word-spacing:0px;fill:#ececec;fill-opacity:1;stroke:none;font-family:Sans">
        <path
           id="path3754"
           style="font-size:22.93785286px;fill:#ececec"
           d="m 13.110368,1036.4294 c -9e-6,1.0677 0.265061,1.9077 0.795209,2.52 0.530129,0.6048 1.258136,0.9072 2.184024,0.9072 0.918397,0 1.638938,-0.3061 2.161624,-0.9184 0.530125,-0.6123 0.795194,-1.4485 0.795208,-2.5088 -1.4e-5,-1.0454 -0.268817,-1.8742 -0.806409,-2.4864 -0.537619,-0.6198 -1.261892,-0.9296 -2.172823,-0.9297 -0.903488,10e-5 -1.624028,0.3062 -2.161624,0.9185 -0.530148,0.6122 -0.795218,1.4448 -0.795209,2.4976 m 6.104067,3.3488 c -0.448019,0.575 -0.963224,1.0006 -1.545617,1.2768 -0.574952,0.2688 -1.246959,0.4032 -2.016022,0.4032 -1.284291,0 -2.329634,-0.4629 -3.136035,-1.3888 -0.798949,-0.9333 -1.19842,-2.1467 -1.198413,-3.64 -7e-6,-1.4934 0.403197,-2.7067 1.209614,-3.6401 0.8064,-0.9333 1.84801,-1.4 3.124834,-1.4 0.769063,0 1.444803,0.1419 2.027222,0.4256 0.582393,0.2763 1.093865,0.6982 1.534417,1.2656 l 0,-1.4672 1.601618,0 0,8.2433 c 1.090128,-0.1642 1.941336,-0.6608 2.553628,-1.4896 0.619721,-0.8363 0.929591,-1.9152 0.92961,-3.2368 -1.9e-5,-0.799 -0.119487,-1.5494 -0.358404,-2.2513 -0.231488,-0.7018 -0.586158,-1.3514 -1.064011,-1.9488 -0.77656,-0.9781 -1.724836,-1.7248 -2.844832,-2.24 -1.11256,-0.5227 -2.325905,-0.784 -3.64004,-0.784 -0.918421,0 -1.799496,0.1232 -2.643229,0.3696 -0.843751,0.2389 -1.624025,0.5973 -2.340826,1.0752 -1.172285,0.7616 -2.0906943,1.7622 -2.7552302,3.0016 -0.6570773,1.2321 -0.985614,2.5686 -0.9856109,4.0097 -3.1e-6,1.1872 0.2127991,2.2997 0.6384071,3.3376 0.4330672,1.0379 1.0565402,1.9526 1.870421,2.744 0.784002,0.7766 1.691211,1.3665 2.72163,1.7697 1.030402,0.4106 2.131746,0.616 3.304036,0.616 0.963198,0 1.907741,-0.1643 2.833631,-0.4928 0.933328,-0.3211 1.78827,-0.784 2.564829,-1.3888 l 1.008011,1.2432 c -0.933361,0.7242 -1.952571,1.2768 -3.057634,1.6576 -1.097626,0.3883 -2.213904,0.5824 -3.348837,0.5824 -1.381359,0 -2.684305,-0.2464 -3.908843,-0.7392 -1.224553,-0.4854 -2.3146977,-1.1947 -3.2704361,-2.128 -0.9557474,-0.9334 -1.6837547,-2.0123 -2.1840241,-3.2369 -0.500274,-1.232 -0.7504098,-2.5536 -0.7504083,-3.9648 -1.5e-6,-1.359 0.2538677,-2.6544 0.7616084,-3.8865 0.5077362,-1.232 1.2320101,-2.3146 2.172824,-3.248 0.9632052,-0.9483 2.0757501,-1.6725 3.3376371,-2.1728 1.261871,-0.5077 2.598418,-0.7616 4.009644,-0.7616 1.582937,0 3.050152,0.3248 4.401648,0.9744 1.358931,0.6496 2.497609,1.5717 3.416038,2.7664 0.559986,0.7318 0.98559,1.527 1.276814,2.3856 0.298649,0.8587 0.447984,1.7473 0.448005,2.6657 -2.1e-5,1.9637 -0.593627,3.5131 -1.78082,4.648 -1.187231,1.135 -2.826181,1.7248 -4.916854,1.7696 l 0,-1.7248"
           inkscape:connector-curvature="0" />
      </g>
    </g>
  </g>
</svg>
