#define close_width 14
#define close_height 14
static unsigned char close_bits[] = {
   0x00, 0x00, 0x00, 0x00, 0x08, 0x04, 0x1c, 0x0e, 0x38, 0x07, 0xf0, 0x03,
   0xe0, 0x01, 0xe0, 0x01, 0xf0, 0x03, 0x38, 0x07, 0x1c, 0x0e, 0x08, 0x04,
   0x00, 0x00, 0x00, 0x00 };
