#define max_toggled_width 14
#define max_toggled_height 14
static unsigned char max_toggled_bits[] = {
   0x00, 0x00, 0x00, 0x00, 0xc0, 0x0f, 0xc0, 0x0f, 0xc0, 0x0c, 0xc0, 0x0c,
   0xdc, 0x0f, 0xdc, 0x0f, 0x0c, 0x00, 0xcc, 0x00, 0xfc, 0x00, 0xfc, 0x00,
   0x00, 0x00, 0x00, 0x00 };
