<?xml version="1.0" encoding="UTF-8" standalone="no"?>
<!-- Created with Inkscape (http://www.inkscape.org/) -->

<svg
   xmlns:dc="http://purl.org/dc/elements/1.1/"
   xmlns:cc="http://creativecommons.org/ns#"
   xmlns:rdf="http://www.w3.org/1999/02/22-rdf-syntax-ns#"
   xmlns:svg="http://www.w3.org/2000/svg"
   xmlns="http://www.w3.org/2000/svg"
   xmlns:sodipodi="http://sodipodi.sourceforge.net/DTD/sodipodi-0.dtd"
   xmlns:inkscape="http://www.inkscape.org/namespaces/inkscape"
   width="512"
   height="512"
   id="svg2"
   version="1.1"
   inkscape:version="0.48.4 r9939"
   sodipodi:docname="applications-system.svg">
  <defs
     id="defs4" />
  <sodipodi:namedview
     id="base"
     pagecolor="#ffffff"
     bordercolor="#666666"
     borderopacity="1.0"
     inkscape:pageopacity="0.0"
     inkscape:pageshadow="2"
     inkscape:zoom="0.9"
     inkscape:cx="-17.936073"
     inkscape:cy="259.63655"
     inkscape:document-units="px"
     inkscape:current-layer="layer1"
     showgrid="false"
     inkscape:showpageshadow="false"
     borderlayer="true"
     inkscape:window-width="1366"
     inkscape:window-height="695"
     inkscape:window-x="0"
     inkscape:window-y="0"
     inkscape:window-maximized="1" />
  <metadata
     id="metadata7">
    <rdf:RDF>
      <cc:Work
         rdf:about="">
        <dc:format>image/svg+xml</dc:format>
        <dc:type
           rdf:resource="http://purl.org/dc/dcmitype/StillImage" />
        <dc:title></dc:title>
      </cc:Work>
    </rdf:RDF>
  </metadata>
  <g
     inkscape:label="Layer 1"
     inkscape:groupmode="layer"
     id="layer1"
     transform="translate(0,-540.3622)">
    <rect
       style="fill:#94e326;fill-opacity:1;stroke:none"
       id="rect3147"
       width="405"
       height="405"
       x="53.5"
       y="593.86218"
       ry="26.386703" />
    <g
       transform="matrix(21.037726,0,0,21.037726,-10452.193,-9092.2647)"
       id="g4953"
       style="fill:#ffffff;fill-opacity:1">
      <path
         d="m 505.91,462.09 a 1.0001,1.0001 0 0 0 -0.375,1.875 l 0.46875,0.25 v 2.75 c -0.12616,0.19922 -0.25575,0.37424 -0.4375,0.6875 -0.27262,0.46989 -0.60717,1.0405 -0.96875,1.6875 -0.72316,1.294 -1.5404,2.8161 -2.1875,4 -0.57062,1.044 -0.56219,2.4414 0.28125,3.5 0.01,0.0131 0.0215,0.0184 0.0312,0.0312 0.67388,0.8899 1.7165,1.125 2.5938,1.125 h 7.375 c 0.87723,0 1.9199,-0.2351 2.5938,-1.125 0.009,-0.0115 0.0221,-0.0197 0.0312,-0.0312 0.83629,-1.0496 0.83721,-2.4276 0.28125,-3.4688 -0.004,-0.009 0.004,-0.0224 0,-0.0312 -1.1677,-2.3779 -2.4718,-4.2179 -3.5625,-6.4062 v -2.6875 l 0.5,-0.28125 a 1.0001,1.0001 0 0 0 -0.5,-1.875 h -6.0312 a 1.0001,1.0001 0 0 0 -0.0937,0 z m 2.0938,2 h 2.0312 v 3.125 a 1.0001,1.0001 0 0 0 0.0937,0.4375 c 1.2016,2.4572 2.5757,4.3202 3.6875,6.5938 a 1.0001,1.0001 0 0 0 0.0312,0.0625 c 0.23971,0.43859 0.25996,0.88106 -0.0937,1.3125 a 1.0001,1.0001 0 0 0 -0.0625,0.0312 c -0.14445,0.19822 -0.45965,0.34375 -1,0.34375 h -7.375 c -0.54035,0 -0.85555,-0.14553 -1,-0.34375 a 1.0001,1.0001 0 0 0 -0.07,-0.03 c -0.35372,-0.43145 -0.33346,-0.87393 -0.0937,-1.3125 0.64576,-1.1815 1.4703,-2.7167 2.1875,-4 0.35859,-0.64163 0.70549,-1.2025 0.96875,-1.6562 0.26326,-0.45377 0.47348,-0.83862 0.5,-0.875 a 1.0001,1.0001 0 0 0 0.19,-0.56 v -3.125 z"
         style="text-indent:0;text-transform:none;block-progression:tb;color:#000000;fill:#ffffff;fill-opacity:1"
         id="path29274-9-1"
         inkscape:connector-curvature="0" />
      <path
         d="m 507.22,471 -2.2188,3.999 h 8 L 510.7824,471 h -3.5625 z"
         style="opacity:0.25000000000000000;color:#000000;fill:#ffffff;fill-opacity:1"
         id="rect5725"
         inkscape:connector-curvature="0" />
    </g>
  </g>
</svg>
