<?xml version="1.0" encoding="UTF-8" standalone="no"?>
<!-- Created with Inkscape (http://www.inkscape.org/) -->

<svg
   xmlns:dc="http://purl.org/dc/elements/1.1/"
   xmlns:cc="http://creativecommons.org/ns#"
   xmlns:rdf="http://www.w3.org/1999/02/22-rdf-syntax-ns#"
   xmlns:svg="http://www.w3.org/2000/svg"
   xmlns="http://www.w3.org/2000/svg"
   xmlns:sodipodi="http://sodipodi.sourceforge.net/DTD/sodipodi-0.dtd"
   xmlns:inkscape="http://www.inkscape.org/namespaces/inkscape"
   width="512"
   height="512"
   id="svg2"
   version="1.1"
   inkscape:version="0.48.4 r9939"
   sodipodi:docname="applications-internet.svg">
  <defs
     id="defs4" />
  <sodipodi:namedview
     id="base"
     pagecolor="#ffffff"
     bordercolor="#666666"
     borderopacity="1.0"
     inkscape:pageopacity="0.0"
     inkscape:pageshadow="2"
     inkscape:zoom="0.78"
     inkscape:cx="74"
     inkscape:cy="170.74766"
     inkscape:document-units="px"
     inkscape:current-layer="layer1"
     showgrid="false"
     inkscape:showpageshadow="false"
     borderlayer="true"
     inkscape:window-width="1366"
     inkscape:window-height="695"
     inkscape:window-x="0"
     inkscape:window-y="0"
     inkscape:window-maximized="1" />
  <metadata
     id="metadata7">
    <rdf:RDF>
      <cc:Work
         rdf:about="">
        <dc:format>image/svg+xml</dc:format>
        <dc:type
           rdf:resource="http://purl.org/dc/dcmitype/StillImage" />
        <dc:title />
      </cc:Work>
    </rdf:RDF>
  </metadata>
  <g
     inkscape:label="Layer 1"
     inkscape:groupmode="layer"
     id="layer1"
     transform="translate(0,-540.3622)">
    <rect
       style="fill:#8cbde1;fill-opacity:1;stroke:none"
       id="rect3147"
       width="405"
       height="405"
       x="53.5"
       y="593.86218"
       ry="26.386703" />
    <path
       inkscape:connector-curvature="0"
       id="path6242"
       d="m 255.97478,713.93503 v 233.87215 l -52.81274,-51.55552 -30.17807,61.61337 c -7.39198,16.66441 -45.82137,3.2652 -34.89381,-19.0189 l 29.86488,-63.97236 H 101.3105 l 154.66428,-160.9527 z"
       style="color:#000000;fill:#ffffff;fill-opacity:1;display:block" />
    <path
       inkscape:connector-curvature="0"
       id="path23405"
       d="M 237.04872,628.54241 C 150.83146,638.90804 88.821543,717.71574 99.749095,803.8609 c 2.957645,23.31286 6.618945,31.13339 6.618945,31.13339 l 37.73948,-36.76615 c -7.45867,-62.03695 36.53633,-117.87111 98.57328,-125.32888 62.03695,-7.45867 117.87111,36.53633 125.32888,98.57328 7.06461,58.76094 -31.34743,113.2162 -89.42117,124.62366 l 0.70297,45.06207 c 0,0 11.73551,-2.38604 14.049,-2.95089 76.957,-18.7875 128.56884,-92.99234 119.0247,-172.36918 C 401.99955,679.62094 323.26169,618.17431 237.04669,628.53858 z"
       style="text-indent:0;text-transform:none;block-progression:tb;color:#000000;fill:#4071a0;fill-opacity:1" />
    <path
       inkscape:connector-curvature="0"
       id="path11289"
       d="m 168.32906,780.6269 v -4.63554 l -4.467,0.41908 c 0.37176,-2.95044 0.74127,-5.8957 1.11754,-8.84568 h -2.60865 l -2.60368,3.37041 -2.60865,1.25949 -3.72438,-2.09989 -0.37176,-4.63576 0.74578,-5.05552 5.58724,-4.2106 h 4.46701 l 0.74127,-2.53001 5.58454,1.25949 4.09682,5.06047 0.74578,-8.43089 7.07497,-5.8957 2.60616,-6.32108 5.2121,-2.1044 2.97861,-4.2106 6.70028,-1.27075 3.35374,-5.05033 h -10.05402 l 6.32987,-2.95044 h 4.4643 l 6.33257,-2.11116 0.74578,-2.52032 -2.23508,-2.11116 -2.60617,-0.84491 0.74578,-2.52528 -1.86106,-3.79017 -4.46949,1.68082 0.74578,-3.36772 -5.21233,-2.95066 -4.09411,7.15811 0.37176,2.53001 -4.09411,1.68983 -2.60865,5.47549 -1.11528,-5.05552 -7.0752,-2.95043 -1.11754,-3.79017 9.3087,-5.48068 4.09659,-3.79017 0.37176,-4.63306 -2.23282,-1.26624 -2.97838,-0.42358 -1.86106,4.63576 c 0,0 -3.11379,0.61059 -3.91432,0.80661 -10.22413,9.41887 -30.88329,29.74998 -35.6824,68.13385 0.18025,0.88997 3.47902,6.05048 3.47902,6.05048 l 7.81827,4.63058 7.81827,2.11116 m 89.36033,-96.89021 -9.68384,-3.79265 -11.16457,1.26399 -13.78021,3.79017 -2.60617,2.53001 8.5636,5.8957 v 3.37041 l -3.35149,3.37042 4.47151,8.85335 2.97139,-1.68983 3.73137,-5.89592 c 5.75217,-1.7777 10.90952,-3.79265 16.3769,-6.32063 l 4.47151,-11.37367 m 56.9855,7.70381 -8.44914,2.11116 -4.92867,3.52047 v 2.81638 l -8.44913,5.63276 2.11115,7.74504 4.92867,-3.52047 2.81638,3.52047 3.52047,2.11116 2.11116,-6.33685 -1.40819,-3.52048 1.40819,-2.11115 4.92866,-4.22457 h 2.11116 l -2.11116,4.92866 v 4.22457 c 2.00977,-0.54525 3.57793,-1.14908 5.63276,-1.40819 l -5.63276,4.22457 v 2.81638 l -7.04094,4.92866 -6.33686,-1.40819 v -3.52047 l -2.81638,1.40819 1.40819,3.52047 h -4.92866 l -2.81638,4.92867 -3.52048,3.52047 -2.11115,0.70297 v 4.22457 l 0.70296,3.52047 h -0.70296 v 11.96962 l 1.40819,-0.70297 2.11115,-4.92867 4.22457,-2.81638 0.70297,-2.11115 6.33686,-1.40819 3.52047,4.22457 4.22457,2.11115 -2.11116,4.22457 3.52047,-0.70297 1.40819,-4.92866 -4.22456,-4.92866 h 1.40819 l 4.92866,3.52047 0.70297,4.92866 3.52047,4.92867 1.40819,-7.04095 2.11116,-0.70297 c 2.16073,2.24409 3.81225,5.21887 5.63276,7.74504 h 6.33685 l 4.22457,2.81638 -2.11116,2.11116 -3.52047,3.52048 h -5.63276 l -7.74504,-2.11116 h -4.22457 l -2.81638,3.52047 -7.74505,-8.44914 -5.63275,-1.40819 -8.44914,1.40819 -3.52048,2.11116 v 54.21418 l 0.70297,0.70297 5.63276,-3.52048 2.11116,2.11116 h 6.33685 l 2.81638,3.52048 -2.11116,7.04094 4.22457,4.22457 v 8.44914 l 2.81638,5.63276 -2.11116,5.63276 c -0.20278,3.64079 0,6.92018 0,10.56142 1.79122,4.93295 3.23433,9.8179 4.92867,14.78599 l 1.40819,7.74505 v 4.22457 h 2.81638 l 4.92866,-2.81638 h 5.63276 l 8.44914,-9.85733 -0.70297,-3.52048 5.63276,-4.92866 -4.22457,-4.22457 4.92866,-4.22457 4.92867,-2.81638 2.11116,-2.81638 -1.40819,-5.63276 v -13.3778 l 4.22456,-8.44914 4.22457,-5.63275 5.63276,-12.67371 v -3.52048 c -2.62576,0.32896 -5.17583,0.52047 -7.74504,0.70297 -1.62674,0.11266 -3.25483,0 -4.92866,0 -2.78462,-5.84928 -4.91853,-11.48317 -7.04095,-17.60237 l -3.52048,-4.22457 -2.11116,-7.04095 1.40819,-1.40819 4.92867,5.63276 5.63276,12.67371 3.52047,3.52047 -1.40819,4.92867 3.52048,3.52047 5.63275,-5.63276 7.04095,-4.92866 3.52048,-4.22457 v -4.92866 c -0.87646,-1.64928 -1.23245,-3.27714 -2.11116,-4.92867 l -3.52048,4.22457 -2.81637,-3.52047 -4.22457,-2.81638 v -6.33686 l 4.92866,4.92867 4.92866,-0.70297 c 2.29051,2.07961 4.32709,4.67542 6.33686,7.04095 l 3.52047,-4.22457 c 0,-3.9346 -4.5008,-22.99067 -14.0819,-39.42931 -9.58154,-16.43234 -26.05038,-31.68314 -26.05038,-31.68314 l -1.40819,2.11115 -4.92866,4.92867 -5.63276,-5.63276 h 5.63276 l 2.81638,-2.81638 -10.56142,-2.11116 -5.63276,-2.11116 z"
       style="opacity:1;color:#000000;fill:#ccdff0;fill-opacity:1" />
  </g>
</svg>
