<?xml version="1.0" encoding="UTF-8" standalone="no"?>
<!-- Created with Inkscape (http://www.inkscape.org/) -->

<svg
   xmlns:dc="http://purl.org/dc/elements/1.1/"
   xmlns:cc="http://creativecommons.org/ns#"
   xmlns:rdf="http://www.w3.org/1999/02/22-rdf-syntax-ns#"
   xmlns:svg="http://www.w3.org/2000/svg"
   xmlns="http://www.w3.org/2000/svg"
   xmlns:sodipodi="http://sodipodi.sourceforge.net/DTD/sodipodi-0.dtd"
   xmlns:inkscape="http://www.inkscape.org/namespaces/inkscape"
   width="512"
   height="512"
   id="svg2"
   version="1.1"
   inkscape:version="0.48.4 r9939"
   sodipodi:docname="applications-system.svg">
  <defs
     id="defs4" />
  <sodipodi:namedview
     id="base"
     pagecolor="#ffffff"
     bordercolor="#666666"
     borderopacity="1.0"
     inkscape:pageopacity="0.0"
     inkscape:pageshadow="2"
     inkscape:zoom="0.9"
     inkscape:cx="-21.824962"
     inkscape:cy="259.63655"
     inkscape:document-units="px"
     inkscape:current-layer="layer1"
     showgrid="false"
     inkscape:showpageshadow="false"
     borderlayer="true"
     inkscape:window-width="1366"
     inkscape:window-height="695"
     inkscape:window-x="0"
     inkscape:window-y="0"
     inkscape:window-maximized="1" />
  <metadata
     id="metadata7">
    <rdf:RDF>
      <cc:Work
         rdf:about="">
        <dc:format>image/svg+xml</dc:format>
        <dc:type
           rdf:resource="http://purl.org/dc/dcmitype/StillImage" />
        <dc:title></dc:title>
      </cc:Work>
    </rdf:RDF>
  </metadata>
  <g
     inkscape:label="Layer 1"
     inkscape:groupmode="layer"
     id="layer1"
     transform="translate(0,-540.3622)">
    <rect
       style="fill:#a02c2c;fill-opacity:1;stroke:none"
       id="rect3147"
       width="405"
       height="405"
       x="53.5"
       y="593.86218"
       ry="26.386703" />
    <g
       transform="matrix(21.040398,0,0,21.040398,-6698.7857,-12618.045)"
       id="layer11"
       style="fill:#ffffff;fill-opacity:1">
      <path
         d="m 332.59,630.16 c -0.56401,0.0886 -1.2401,0.37856 -2,0.78125 -1.5434,-0.84872 -2.7454,-0.88357 -3.75,-0.625 -1.0645,0.27398 -1.9279,0.69645 -3.2812,0.65625 h -0.5 v 0.5 9.8125 0.5 h 0.5 c 1.3218,0 2.4666,-0.61013 3.5312,-0.875 1.0646,-0.26487 1.9826,-0.28705 3.1562,0.75 l 0.3125,0.28125 0.34375,-0.28125 c 1.1669,-1.0634 2.048,-1.0496 3.0938,-0.78125 1.0458,0.26834 2.1709,0.89735 3.5,0.90625 h 0.53125 v -0.5 -9.8125 -0.5 h -0.5 c -1.5074,0 -2.296,-0.4483 -3.2812,-0.71875 -0.4926,-0.13522 -1.0221,-0.19332 -1.6562,-0.0937 z m 0.125,0.96875 c 0.48192,-0.0797 0.87152,-0.0187 1.2812,0.0937 0.72174,0.19812 1.6688,0.58632 3.0312,0.6875 v 8.75 c -0.86575,-0.12953 -1.7572,-0.48724 -2.7812,-0.75 -1.1072,-0.2841 -2.4107,-0.16656 -3.6875,0.8125 -1.2871,-0.95501 -2.6,-1.0596 -3.7188,-0.78125 -1.0348,0.25745 -1.9159,0.59593 -2.7812,0.71875 v -8.75 c 1.2639,-0.0757 2.2319,-0.41926 3.0312,-0.625 0.91954,-0.23667 1.7351,-0.28477 3.25,0.625 l 0.25,0.125 0.25,-0.125 c 0.81985,-0.46732 1.3931,-0.70154 1.875,-0.78125 z"
         style="text-indent:0;text-transform:none;block-progression:tb;color:#000000;fill:#ffffff;fill-opacity:1"
         id="rect2996"
         inkscape:connector-curvature="0" />
      <rect
         x="330.06"
         y="631.38"
         width="1"
         height="9.6033001"
         style="fill:#ffffff;fill-opacity:1"
         id="rect3002" />
      <path
         d="m 336.03,631.5 v 11.406 l -10.969,0.0625 v -11.438 h -2 v 12.438 1.0312 l 1,-0.0312 12.969,-0.0625 h 1 v -1 -12.406 h -2 z"
         style="text-indent:0;text-transform:none;block-progression:tb;color:#000000;fill:#ffffff;fill-opacity:1"
         id="path12413"
         inkscape:connector-curvature="0" />
      <path
         d="m 323.94,643.75 v -2.1875 l 4.2195,-1.1306 2.2271,0.59675 2.5031,-0.67071 3.7417,1.0026 v 2.452 z"
         style="opacity:0.3;color:#000000;fill:#ffffff;fill-opacity:1"
         id="path13183"
         inkscape:connector-curvature="0" />
    </g>
  </g>
</svg>
