<?xml version="1.0" encoding="UTF-8" standalone="no"?>
<!-- Created with Inkscape (http://www.inkscape.org/) -->

<svg
   xmlns:dc="http://purl.org/dc/elements/1.1/"
   xmlns:cc="http://creativecommons.org/ns#"
   xmlns:rdf="http://www.w3.org/1999/02/22-rdf-syntax-ns#"
   xmlns:svg="http://www.w3.org/2000/svg"
   xmlns="http://www.w3.org/2000/svg"
   xmlns:sodipodi="http://sodipodi.sourceforge.net/DTD/sodipodi-0.dtd"
   xmlns:inkscape="http://www.inkscape.org/namespaces/inkscape"
   width="512"
   height="512"
   id="svg2"
   version="1.1"
   inkscape:version="0.48.4 r9939"
   sodipodi:docname="applications-games.svg">
  <defs
     id="defs4" />
  <sodipodi:namedview
     id="base"
     pagecolor="#ffffff"
     bordercolor="#666666"
     borderopacity="1.0"
     inkscape:pageopacity="0.0"
     inkscape:pageshadow="2"
     inkscape:zoom="0.9"
     inkscape:cx="-143.65058"
     inkscape:cy="259.63655"
     inkscape:document-units="px"
     inkscape:current-layer="layer1"
     showgrid="false"
     inkscape:showpageshadow="false"
     borderlayer="true"
     inkscape:window-width="1366"
     inkscape:window-height="695"
     inkscape:window-x="0"
     inkscape:window-y="0"
     inkscape:window-maximized="1" />
  <metadata
     id="metadata7">
    <rdf:RDF>
      <cc:Work
         rdf:about="">
        <dc:format>image/svg+xml</dc:format>
        <dc:type
           rdf:resource="http://purl.org/dc/dcmitype/StillImage" />
        <dc:title />
      </cc:Work>
    </rdf:RDF>
  </metadata>
  <g
     inkscape:label="Layer 1"
     inkscape:groupmode="layer"
     id="layer1"
     transform="translate(0,-540.3622)">
    <rect
       style="fill:#ea6493;fill-opacity:1;stroke:none"
       id="rect3147"
       width="405"
       height="405"
       x="53.5"
       y="593.86218"
       ry="26.386703" />
    <g
       transform="matrix(19.687369,0,0,19.687369,-10946.024,-8437.0375)"
       id="g4953"
       style="fill:#ffffff;fill-opacity:1">
      <path
         d="m 564.78,463.02 c -0.24234,0.001 -0.52104,0.0664 -0.80589,0.21875 -1.0374,0.54647 -1.992,2.336 -2.5107,4.6562 -0.44216,1.9709 -0.60455,4.666 -0.34095,5.75 0.22958,0.93169 0.62706,1.3438 1.3328,1.3438 1.0459,-0.0179 2.3593,-1.1822 3.1926,-2.75 0.6027,-0.86787 2.0005,-1.2625 3.3476,-1.2188 1.347,-0.0471 2.7448,0.35088 3.3476,1.2188 0.8333,1.5678 2.1467,2.7321 3.1926,2.75 0.70576,0 1.1032,-0.41206 1.3328,-1.3438 0.2636,-1.084 0.10121,-3.7791 -0.34095,-5.75 -0.51869,-2.3203 -1.4733,-4.1098 -2.5107,-4.6562 -0.5697,-0.30459 -1.0402,-0.29563 -1.4568,0 -0.52719,0.37626 -1.6258,0.77958 -3.5645,0.78125 -1.9387,0.002 -3.0373,-0.40499 -3.5645,-0.78125 -0.20832,-0.14782 -0.40857,-0.21987 -0.65091,-0.21875 z m 0.24797,3 h 0.99186 v 1 h 0.99187 v 1 h -0.99187 v 1 h -0.99186 v -1 h -0.99187 v -1 h 0.99187 v -1 z m 7.439,0 c 0.2739,0 0.49593,0.22386 0.49593,0.5 0,0.27614 -0.22203,0.5 -0.49593,0.5 -0.2739,0 -0.49593,-0.22386 -0.49593,-0.5 0,-0.27614 0.22203,-0.5 0.49593,-0.5 z m -0.99187,1 c 0.2739,0 0.49594,0.22386 0.49594,0.5 0,0.27614 -0.22204,0.5 -0.49594,0.5 -0.27389,0 -0.49593,-0.22386 -0.49593,-0.5 0,-0.27614 0.22204,-0.5 0.49593,-0.5 z m 1.9837,0 c 0.27389,0 0.49593,0.22386 0.49593,0.5 0,0.27614 -0.22204,0.5 -0.49593,0.5 -0.2739,0 -0.49594,-0.22386 -0.49594,-0.5 0,-0.27614 0.22204,-0.5 0.49594,-0.5 z m -0.99187,1 c 0.2739,0 0.49593,0.22386 0.49593,0.5 0,0.27614 -0.22203,0.5 -0.49593,0.5 -0.2739,0 -0.49593,-0.22386 -0.49593,-0.5 0,-0.27614 0.22203,-0.5 0.49593,-0.5 z"
         style="fill:#ffffff;fill-opacity:1"
         id="path10"
         inkscape:connector-curvature="0" />
    </g>
  </g>
</svg>
