<?xml version="1.0" encoding="UTF-8" standalone="no"?>
<!-- Created with Inkscape (http://www.inkscape.org/) -->

<svg
   xmlns:dc="http://purl.org/dc/elements/1.1/"
   xmlns:cc="http://creativecommons.org/ns#"
   xmlns:rdf="http://www.w3.org/1999/02/22-rdf-syntax-ns#"
   xmlns:svg="http://www.w3.org/2000/svg"
   xmlns="http://www.w3.org/2000/svg"
   xmlns:sodipodi="http://sodipodi.sourceforge.net/DTD/sodipodi-0.dtd"
   xmlns:inkscape="http://www.inkscape.org/namespaces/inkscape"
   width="512"
   height="512"
   id="svg2"
   version="1.1"
   inkscape:version="0.48.4 r9939"
   sodipodi:docname="applications-other.svg">
  <defs
     id="defs4" />
  <sodipodi:namedview
     id="base"
     pagecolor="#ffffff"
     bordercolor="#666666"
     borderopacity="1.0"
     inkscape:pageopacity="0.0"
     inkscape:pageshadow="2"
     inkscape:zoom="0.9"
     inkscape:cx="-17.936073"
     inkscape:cy="170.74766"
     inkscape:document-units="px"
     inkscape:current-layer="layer1"
     showgrid="false"
     inkscape:showpageshadow="false"
     borderlayer="true"
     inkscape:window-width="1366"
     inkscape:window-height="695"
     inkscape:window-x="0"
     inkscape:window-y="0"
     inkscape:window-maximized="1" />
  <metadata
     id="metadata7">
    <rdf:RDF>
      <cc:Work
         rdf:about="">
        <dc:format>image/svg+xml</dc:format>
        <dc:type
           rdf:resource="http://purl.org/dc/dcmitype/StillImage" />
        <dc:title />
      </cc:Work>
    </rdf:RDF>
  </metadata>
  <g
     inkscape:label="Layer 1"
     inkscape:groupmode="layer"
     id="layer1"
     transform="translate(0,-540.3622)">
    <rect
       style="fill:#9d48a2;fill-opacity:1;stroke:none"
       id="rect3147"
       width="405"
       height="405"
       x="53.5"
       y="593.86218"
       ry="26.386703" />
    <g
       id="g9465"
       transform="matrix(2.3959879,0,0,2.3959879,-115.68747,-1390.4548)">
      <path
         d="m 90.967308,944.85707 c 0.03064,-1.71708 0.86137,-4.06531 2.327247,-5.39537 l 16.560155,-16.21312 c 1.78219,-1.86569 6.02623,-2.24122 7.74498,-1.20082 0.61669,0.0153 8.69874,4.8359 9.86776,6.62966 4.72398,7.24542 -2.63574,13.99841 -8.9929,11.84958 l -2.67796,-1.62177 -12.27476,12.04034 c -4.881248,4.03221 -12.958088,0.70632 -12.555135,-6.08858 z"
         style="text-indent:0;text-transform:none;block-progression:tb;color:#000000;fill:#ffffff;fill-opacity:1"
         id="path7270-2"
         inkscape:connector-curvature="0" />
      <path
         d="m 213.23225,944.70385 c -0.0306,-1.71707 -0.86137,-4.06531 -2.32724,-5.39536 l -16.56016,-16.21313 c -1.78219,-1.86569 -6.02622,-2.24122 -7.74498,-1.20081 -0.61669,0.0153 -8.69874,4.8359 -9.86776,6.62965 -4.72406,7.24542 2.63566,13.99842 8.99291,11.84959 l 2.67795,-1.62177 12.27476,12.04034 c 4.88125,4.03221 12.95809,0.70708 12.55514,-6.08858 z"
         style="text-indent:0;text-transform:none;block-progression:tb;color:#000000;fill:#fffcff;fill-opacity:1"
         id="path6196"
         inkscape:connector-curvature="0" />
      <path
         d="m 113.87283,921.50852 h 76.49527 l 0.0613,46.44306 c 0,3.77061 -3.61562,7.18192 -7.61957,7.18192 H 121.5839 c -4.12354,0 -7.64945,-3.29135 -7.64945,-7.66071 z"
         style="color:#bebebe;fill:#ffffff;fill-opacity:1"
         id="rect7268-7"
         inkscape:connector-curvature="0" />
      <g
         id="layer11"
         transform="matrix(-4.4191802,0,0,4.4191802,964.35422,-1491.1677)"
         style="fill:#ffffff;fill-opacity:1">
        <path
           inkscape:connector-curvature="0"
           id="path6242"
           d="m 191,533.85 v 10.38 l -2.344,-2.2882 -1.3394,2.7346 c -0.32808,0.73962 -2.0337,0.14492 -1.5487,-0.84412 l 1.3255,-2.8393 h -2.9579 L 191,533.84938 z"
           style="color:#000000;fill:#ffffff;fill-opacity:1;display:block" />
        <path
           inkscape:connector-curvature="0"
           id="path23405"
           d="m 190.16,530.06 c -3.8266,0.46006 -6.5788,3.9578 -6.0938,7.7812 0.13127,1.0347 0.29377,1.3818 0.29377,1.3818 l 1.675,-1.6318 c -0.33104,-2.7534 1.6216,-5.2315 4.375,-5.5625 2.7534,-0.33104 5.2315,1.6216 5.5625,4.375 0.31355,2.608 -1.3913,5.0249 -3.9688,5.5312 l 0.0312,2 c 0,0 0.52086,-0.1059 0.62354,-0.13097 3.4156,-0.83385 5.7063,-4.1273 5.2827,-7.6503 -0.46006,-3.8266 -3.9547,-6.5538 -7.7812,-6.0938 z"
           style="text-indent:0;text-transform:none;block-progression:tb;color:#000000;fill:#ffffff;fill-opacity:1" />
        <path
           inkscape:connector-curvature="0"
           id="path11289"
           d="m 187.11,536.81 v -0.20574 l -0.19826,0.0186 c 0.0165,-0.13095 0.0329,-0.26167 0.0496,-0.3926 h -0.11578 l -0.11556,0.14959 -0.11578,0.0559 -0.1653,-0.0932 -0.0165,-0.20575 0.0331,-0.22438 0.24798,-0.18688 h 0.19826 l 0.0329,-0.11229 0.24786,0.0559 0.18183,0.2246 0.0331,-0.37419 0.31401,-0.26167 0.11567,-0.28055 0.23133,-0.0934 0.1322,-0.18688 0.29738,-0.0564 0.14885,-0.22415 h -0.44623 l 0.28094,-0.13095 h 0.19814 l 0.28106,-0.0937 0.0331,-0.11186 -0.0992,-0.0937 -0.11567,-0.0375 0.0331,-0.11208 -0.0826,-0.16822 -0.19837,0.0746 0.0331,-0.14947 -0.23134,-0.13096 -0.18171,0.3177 0.0165,0.11229 -0.18171,0.075 -0.11578,0.24302 -0.0495,-0.22438 -0.31402,-0.13095 -0.0496,-0.16822 0.41315,-0.24325 0.18182,-0.16822 0.0165,-0.20563 -0.0991,-0.0562 -0.13219,-0.0188 -0.0826,0.20575 c 0,0 -0.1382,0.0271 -0.17373,0.0358 -0.45378,0.41804 -1.3707,1.3204 -1.5837,3.024 0.008,0.0395 0.15441,0.26854 0.15441,0.26854 l 0.347,0.20552 0.347,0.0937 m 3.9661,-4.3003 -0.4298,-0.16833 -0.49552,0.0561 -0.61161,0.16822 -0.11567,0.11229 0.38008,0.26167 v 0.14959 l -0.14875,0.14959 0.19846,0.39294 0.13188,-0.075 0.16561,-0.26168 c 0.2553,-0.0789 0.4842,-0.16833 0.72686,-0.28053 l 0.19846,-0.5048 m 2.5292,0.34192 -0.375,0.0937 -0.21875,0.15625 v 0.125 l -0.375,0.25 0.0937,0.34375 0.21875,-0.15625 0.125,0.15625 0.15625,0.0937 0.0937,-0.28125 -0.0625,-0.15625 0.0625,-0.0937 0.21875,-0.1875 h 0.0937 l -0.0937,0.21875 v 0.1875 c 0.0892,-0.0242 0.1588,-0.051 0.25,-0.0625 l -0.25,0.1875 v 0.125 l -0.3125,0.21875 -0.28125,-0.0625 v -0.15625 l -0.125,0.0625 0.0625,0.15625 h -0.21875 l -0.125,0.21875 -0.15625,0.15625 -0.0937,0.0312 v 0.1875 l 0.0312,0.15625 h -0.0312 v 0.53125 l 0.0625,-0.0312 0.0937,-0.21875 0.1875,-0.125 0.0312,-0.0937 0.28125,-0.0625 0.15625,0.1875 0.1875,0.0937 -0.0937,0.1875 0.15625,-0.0312 0.0625,-0.21875 -0.1875,-0.21875 h 0.0625 l 0.21875,0.15625 0.0312,0.21875 0.15625,0.21875 0.0625,-0.3125 0.0937,-0.0312 c 0.0959,0.0996 0.1692,0.23163 0.25,0.34375 h 0.28125 l 0.1875,0.125 -0.0937,0.0937 -0.15625,0.15625 h -0.25 l -0.34375,-0.0937 h -0.1875 l -0.125,0.15625 -0.34375,-0.375 -0.25,-0.0625 -0.375,0.0625 -0.15625,0.0937 v 2.4062 l 0.0312,0.0312 0.25,-0.15625 0.0937,0.0937 h 0.28125 l 0.125,0.15625 -0.0937,0.3125 0.1875,0.1875 v 0.375 l 0.125,0.25 -0.0937,0.25 c -0.009,0.16159 0,0.30714 0,0.46875 0.0795,0.21894 0.14355,0.43575 0.21875,0.65625 l 0.0625,0.34375 v 0.1875 h 0.125 l 0.21875,-0.125 h 0.25 l 0.375,-0.4375 -0.0312,-0.15625 0.25,-0.21875 -0.1875,-0.1875 0.21875,-0.1875 0.21875,-0.125 0.0937,-0.125 -0.0625,-0.25 v -0.59375 l 0.1875,-0.375 0.1875,-0.25 0.25,-0.5625 v -0.15625 c -0.11654,0.0146 -0.22972,0.0231 -0.34375,0.0312 -0.0722,0.005 -0.14446,0 -0.21875,0 -0.12359,-0.25961 -0.2183,-0.50966 -0.3125,-0.78125 l -0.15625,-0.1875 -0.0937,-0.3125 0.0625,-0.0625 0.21875,0.25 0.25,0.5625 0.15625,0.15625 -0.0625,0.21875 0.15625,0.15625 0.25,-0.25 0.3125,-0.21875 0.15625,-0.1875 v -0.21875 c -0.0389,-0.0732 -0.0547,-0.14545 -0.0937,-0.21875 l -0.15625,0.1875 -0.125,-0.15625 -0.1875,-0.125 v -0.28125 l 0.21875,0.21875 0.21875,-0.0312 c 0.10166,0.0923 0.19205,0.20751 0.28125,0.3125 l 0.15625,-0.1875 c 0,-0.17463 -0.19976,-1.0204 -0.625,-1.75 -0.42526,-0.72932 -1.1562,-1.4062 -1.1562,-1.4062 l -0.0625,0.0937 -0.21875,0.21875 -0.25,-0.25 h 0.25 l 0.125,-0.125 -0.46875,-0.0937 -0.25,-0.0937 z"
           style="opacity:0.3;color:#000000;fill:#ffffff;fill-opacity:1" />
      </g>
      <g
         id="layer12"
         transform="matrix(-6.2271607,0,0,-6.2271607,1483.6111,5713.7904)"
         style="fill:#ffffff;fill-opacity:1">
        <path
           inkscape:connector-curvature="0"
           id="path36048"
           style="text-indent:0;text-transform:none;block-progression:tb;color:#000000;fill:#ffffff;fill-opacity:1;enable-background:new"
           d="m 211.88,767.06 a 1.0001,1.0001 0 0 0 -0.6875,0.5 l -3.3125,5.625 a 1.0078,1.0078 0 1 0 1.75,1 l 3.3125,-5.625 a 1.0001,1.0001 0 0 0 -1.0625,-1.5 z" />
        <path
           inkscape:connector-curvature="0"
           id="path36050"
           style="color:#000000;fill:#ffffff;fill-opacity:1;enable-background:new"
           d="m 206.53,771.72 4.9474,3.0538 c 0.60355,0.31472 0.68739,0.89216 0.20883,1.5087 l -0.625,0.8125 -6.5938,-3.875 0.55118,-1.0614 c 0.28883,-0.58524 0.75466,-0.81586 1.5113,-0.43864 z" />
        <path
           inkscape:connector-curvature="0"
           id="path36052"
           style="color:#000000;fill:#ffffff;fill-opacity:1;enable-background:new"
           d="m 204.56,774.58 c 0,0 -2.8547,3.0362 -1.3326,4.6991 1.6875,1.8438 4.758,1.7674 5.8628,1.7232 h 4.0087 c -1.875,-0.375 -3.8371,-1.8156 -2.9027,-3.2446 z" />
      </g>
    </g>
  </g>
</svg>
