<?xml version="1.0" encoding="UTF-8" standalone="no"?>
<!-- Created with Inkscape (http://www.inkscape.org/) -->

<svg
   xmlns:dc="http://purl.org/dc/elements/1.1/"
   xmlns:cc="http://creativecommons.org/ns#"
   xmlns:rdf="http://www.w3.org/1999/02/22-rdf-syntax-ns#"
   xmlns:svg="http://www.w3.org/2000/svg"
   xmlns="http://www.w3.org/2000/svg"
   xmlns:sodipodi="http://sodipodi.sourceforge.net/DTD/sodipodi-0.dtd"
   xmlns:inkscape="http://www.inkscape.org/namespaces/inkscape"
   width="512"
   height="512"
   id="svg2"
   version="1.1"
   inkscape:version="0.48.4 r9939"
   sodipodi:docname="preferences-desktop-accessibility.svg"
   inkscape:export-filename="/home/iain/BUILD_x64/FS-ROOT/usr/share/icons/chromixium/categories/22/preferences-desktop-accessibility.png"
   inkscape:export-xdpi="3.8699999"
   inkscape:export-ydpi="3.8699999">
  <defs
     id="defs4" />
  <sodipodi:namedview
     id="base"
     pagecolor="#ffffff"
     bordercolor="#666666"
     borderopacity="1.0"
     inkscape:pageopacity="0.0"
     inkscape:pageshadow="2"
     inkscape:zoom="0.9"
     inkscape:cx="55.238312"
     inkscape:cy="259.63655"
     inkscape:document-units="px"
     inkscape:current-layer="layer1"
     showgrid="false"
     inkscape:showpageshadow="false"
     borderlayer="true"
     inkscape:window-width="1366"
     inkscape:window-height="710"
     inkscape:window-x="0"
     inkscape:window-y="0"
     inkscape:window-maximized="1" />
  <metadata
     id="metadata7">
    <rdf:RDF>
      <cc:Work
         rdf:about="">
        <dc:format>image/svg+xml</dc:format>
        <dc:type
           rdf:resource="http://purl.org/dc/dcmitype/StillImage" />
        <dc:title></dc:title>
      </cc:Work>
    </rdf:RDF>
  </metadata>
  <g
     inkscape:label="Layer 1"
     inkscape:groupmode="layer"
     id="layer1"
     transform="translate(0,-540.3622)">
    <rect
       style="fill:none;stroke:#3c72b8;stroke-width:16.29999924;stroke-miterlimit:4;stroke-opacity:1;stroke-dasharray:none"
       id="rect3147"
       width="390.53571"
       height="390.53571"
       x="60.732147"
       y="601.09436"
       ry="25.444321" />
    <path
       d="m 255.99999,642.25109 c -85.11363,0 -154.1111,68.99747 -154.1111,154.11111 0,85.11364 68.99747,154.11111 154.1111,154.11111 85.11365,0 154.11112,-68.99747 154.11112,-154.11111 0,-85.11364 -68.99747,-154.11111 -154.11112,-154.11111 z m 0,37.43359 c 21.6006,0 39.10763,17.50702 39.10763,39.10763 0,21.60058 -17.50703,39.10761 -39.10763,39.10761 -21.6006,0 -39.10761,-17.50703 -39.10761,-39.10761 0,-21.60061 17.50701,-39.10763 39.10761,-39.10763 z m -92.41658,79.37107 c 61.77351,-0.88227 123.5374,-0.29666 185.30898,0.21768 0,0 8.3012,-0.1541 8.3012,8.16943 v 4.01865 c 0,4.43069 -4.54629,5.58652 -4.54629,5.58652 l -57.50655,11.13781 v 40.66414 l 26.09679,75.25245 c 2.6353,4.34824 -3.05121,5.59038 -3.05121,5.59038 l -10.14243,0.0963 c -4.87705,0 -6.70557,-4.10378 -6.70557,-4.10378 L 261.4274,836.49715 c -4.28197,-9.71094 -4.54955,-8.47245 -8.60209,0.0148 l -41.78146,69.08417 c -1.3974,4.19259 -6.85023,4.28409 -6.85023,4.28409 l -10.98619,-0.17338 c 0,0 -4.01614,-0.11554 -3.09475,-4.02961 l 26.72865,-76.8398 v -40.6641 l -55.70925,-10.68761 c -4.47789,-1.51607 -6.33473,-5.67013 -6.33473,-5.67013 v -4.19259 c 0,0 -0.18686,-8.54219 8.77797,-8.54219 z"
       style="fill:#3c72b8;fill-opacity:1;stroke:none"
       id="path3850"
       inkscape:connector-curvature="0" />
  </g>
</svg>
