<?xml version="1.0" encoding="UTF-8" standalone="no"?>
<!-- Created with Inkscape (http://www.inkscape.org/) -->
<svg id="svg7384" xmlns:rdf="http://www.w3.org/1999/02/22-rdf-syntax-ns#" xmlns="http://www.w3.org/2000/svg" height="16" width="16" version="1.1" xmlns:cc="http://creativecommons.org/ns#" xmlns:dc="http://purl.org/dc/elements/1.1/">
 <metadata id="metadata90">
  <rdf:RDF>
   <cc:Work rdf:about="">
    <dc:format>image/svg+xml</dc:format>
    <dc:type rdf:resource="http://purl.org/dc/dcmitype/StillImage"/>
    <dc:title>Gnome Symbolic Icon Theme</dc:title>
   </cc:Work>
  </rdf:RDF>
 </metadata>
 <title id="title9167">Gnome Symbolic Icon Theme</title>
 <g id="layer10" transform="translate(-162,-338)">
  <g id="g3600" transform="translate(114,-60)">
   <path id="rect11749-5-91" style="block-progression:tb;text-indent:0;color:#bebebe;text-transform:none;fill:#bebebe" d="m51.188 398c-1.202 0-2.188 0.99-2.188 2.19v5.625c0 1.19 0.986 2.18 2.188 2.18h9.625c1.201 0 2.187-0.99 2.187-2.19v-5.625c0-1.19-0.986-2.18-2.188-2.18h-9.625zm0 2h9.625c0.123 0 0.187 0.06 0.187 0.19v5.625c0 0.12-0.064 0.18-0.188 0.18h-9.625c-0.123 0-0.187-0.06-0.187-0.19v-5.625c0-0.12 0.064-0.18 0.188-0.18z"/>
   <path id="path11751-2-7" style="block-progression:tb;text-indent:0;color:#bebebe;text-transform:none;fill:#bebebe" d="m53.906 409.03a0.50219 0.50219 0 1 0 0.09375 1h4a0.50005 0.50005 0 1 0 0 -1h-4a0.50005 0.50005 0 0 0 -0.09375 0z"/>
   <path id="rect4340" style="block-progression:tb;text-indent:0;color:#bebebe;text-transform:none;fill:#bebebe" d="m50.906 411a1.0001 1.0001 0 0 0 -0.625 0.28125l-1 1a1.0001 1.0001 0 0 0 0.719 1.72h12a1.0001 1.0001 0 0 0 0.71875 -1.7188l-1-1a1.0001 1.0001 0 0 0 -0.719 -0.28h-10a1.0001 1.0001 0 0 0 -0.09375 0z"/>
  </g>
 </g>
</svg>
