<?xml version="1.0" encoding="UTF-8" standalone="no"?>
<!-- Created with Inkscape (http://www.inkscape.org/) -->

<svg
   xmlns:dc="http://purl.org/dc/elements/1.1/"
   xmlns:cc="http://creativecommons.org/ns#"
   xmlns:rdf="http://www.w3.org/1999/02/22-rdf-syntax-ns#"
   xmlns:svg="http://www.w3.org/2000/svg"
   xmlns="http://www.w3.org/2000/svg"
   xmlns:sodipodi="http://sodipodi.sourceforge.net/DTD/sodipodi-0.dtd"
   xmlns:inkscape="http://www.inkscape.org/namespaces/inkscape"
   version="1.1"
   width="16"
   height="16"
   id="svg3021"
   inkscape:version="0.48.4 r9939"
   sodipodi:docname="folder-videos-symbolic.svg">
  <sodipodi:namedview
     pagecolor="#ffffff"
     bordercolor="#666666"
     borderopacity="1"
     objecttolerance="10"
     gridtolerance="10"
     guidetolerance="10"
     inkscape:pageopacity="0"
     inkscape:pageshadow="2"
     inkscape:window-width="1366"
     inkscape:window-height="695"
     id="namedview7"
     showgrid="false"
     inkscape:zoom="23.960287"
     inkscape:cx="-0.13993264"
     inkscape:cy="8.5773307"
     inkscape:window-x="0"
     inkscape:window-y="0"
     inkscape:window-maximized="1"
     inkscape:current-layer="svg3021" />
  <defs
     id="defs3023" />
  <metadata
     id="metadata3026">
    <rdf:RDF>
      <cc:Work
         rdf:about="">
        <dc:format>image/svg+xml</dc:format>
        <dc:type
           rdf:resource="http://purl.org/dc/dcmitype/StillImage" />
        <dc:title />
      </cc:Work>
    </rdf:RDF>
  </metadata>
  <path
     style="color:#bebebe;fill:#bebebe;fill-opacity:1;fill-rule:nonzero;stroke:none;stroke-width:1;marker:none;visibility:visible;display:inline;overflow:visible;enable-background:accumulate"
     id="rect3032"
     inkscape:connector-curvature="0"
     d="m 1.8153201,2.0145607 c -0.4134007,0 -0.7425237,0.4211462 -0.7462106,0.9442273 l -0.067454,9.570304 c -0.003691,0.523081 0.3328114,1.45672 0.7462107,1.456351 l 12.3913663,-0.01108 c 0.4134,-3.69e-4 0.859143,-0.836845 0.859143,-1.359947 l -3e-6,-9.6556579 c 0,-0.5230766 -0.33281,-0.9442022 -0.746211,-0.9442022 z m 0.2487369,1.2589698 0.9949476,0 0,1.2589698 -0.9949476,0 z m 2.487369,0 6.964632,0 c 0.275602,0 0.497481,0.2807441 0.497475,0.6294849 l -1.34e-4,7.7575306 c -10e-6,0.575107 -0.384961,0.906221 -0.384961,0.906221 L 4.394534,12.534427 C 4.118935,12.533195 4.0303923,11.861901 4.0314248,11.513169 l 0.02253,-7.6101536 C 4.0549893,3.5542839 4.2758276,3.2735305 4.551426,3.2735305 z m 8.457054,0 0.994948,0 0,1.2589698 -0.994948,0 z m -10.944423,2.5179396 0.9949476,0 0,1.2589698 -0.9949476,0 z m 10.944423,0 0.994948,0 0,1.2589698 -0.994948,0 z m -10.944423,2.5179396 0.9949476,0 0,1.2589698 -0.9949476,0 z m 10.944423,0 0.994948,0 0,1.2589698 -0.994948,0 z m -10.944423,2.5179393 0.9949476,0 0,1.25897 -0.9949476,0 z m 10.944423,0 0.994948,0 0,1.25897 -0.994948,0 z"
     sodipodi:nodetypes="ssssssssscccccsssscssssccccccccccccccccccccccccccccccccccc" />
  <path
     sodipodi:type="star"
     style="fill:#bebebe;fill-opacity:1;stroke:none"
     id="path2985"
     sodipodi:sides="3"
     sodipodi:cx="5.086132"
     sodipodi:cy="3.3617327"
     sodipodi:r1="2.2722943"
     sodipodi:r2="1.1361471"
     sodipodi:arg1="0"
     sodipodi:arg2="1.0471976"
     inkscape:flatsided="true"
     inkscape:rounded="0"
     inkscape:randomized="0"
     d="m 7.3584263,3.3617327 -3.4084414,1.9678646 0,-3.9357292 z"
     inkscape:transform-center-x="-0.9076509"
     transform="matrix(1.4013743,0,0,1.4315265,0.27669447,3.0432638)" />
</svg>
