<?xml version="1.0" encoding="UTF-8" standalone="no"?>
<!-- Created with Inkscape (http://www.inkscape.org/) -->

<svg
   xmlns:dc="http://purl.org/dc/elements/1.1/"
   xmlns:cc="http://creativecommons.org/ns#"
   xmlns:rdf="http://www.w3.org/1999/02/22-rdf-syntax-ns#"
   xmlns:svg="http://www.w3.org/2000/svg"
   xmlns="http://www.w3.org/2000/svg"
   xmlns:xlink="http://www.w3.org/1999/xlink"
   xmlns:sodipodi="http://sodipodi.sourceforge.net/DTD/sodipodi-0.dtd"
   xmlns:inkscape="http://www.inkscape.org/namespaces/inkscape"
   width="512"
   height="512"
   id="svg2"
   version="1.1"
   inkscape:version="0.48.4 r9939"
   sodipodi:docname="folder.svg">
  <defs
     id="defs4">
    <clipPath
       id="clipPath3690">
      <path
         style="opacity:0.35;fill:#545454;stroke:none"
         id="path3692"
         inkscape:connector-curvature="0"
         d="m 77.375,23.75 c -3.324,0 -6,2.676 -6,6 l 0,49.25 c 0,3.324 2.676,6 6,6 l 59.875,0 c 3.324,0 6,-2.676 6,-6 l 0,-49.25 c 0,-3.324 -2.676,-6 -6,-6 l -59.875,0 z m 30.625,9.53125 8.125,8.09375 0,-2.84375 5.34375,0 0,8.125 10.53125,10.625 -5.875,0 0,18.71875 -36.21875,0 0,-18.65625 -5.90625,0 24,-24.0625 z" />
    </clipPath>
    <filter
       id="filter3694"
       color-interpolation-filters="sRGB">
      <feGaussianBlur
         stdDeviation="0.6804878"
         id="feGaussianBlur3696" />
    </filter>
    <linearGradient
       gradientUnits="userSpaceOnUse"
       xlink:href="#linearGradient3658-621-88-450-281-794-196-68"
       id="linearGradient3664-7-335-454-289-318-360-219-170"
       y2="33.086185"
       x2="47"
       y1="76"
       x1="47" />
    <linearGradient
       id="linearGradient3658-621-88-450-281-794-196-68">
      <stop
         offset="0"
         style="stop-color:#2f2f2f;stop-opacity:0.78431374"
         id="stop3879" />
      <stop
         offset="1"
         style="stop-color:#2f2f2f;stop-opacity:0.39215687"
         id="stop3881" />
    </linearGradient>
    <clipPath
       id="clipPath3668">
      <path
         style="opacity:0.9;fill:url(#linearGradient3672-892-556-910-408-999-207-812);fill-opacity:1;stroke:none;display:inline"
         id="path3670"
         inkscape:connector-curvature="0"
         d="m 48,33.268293 -24,24.083623 5.920127,0 0,18.648084 36.200724,0 0,-18.731707 5.879149,0 -10.536585,-10.620209 0,-8.111499 -5.351916,0 0,2.843206 L 48,33.268293 z" />
    </clipPath>
    <filter
       id="filter3674"
       color-interpolation-filters="sRGB">
      <feGaussianBlur
         stdDeviation="0.45365853"
         id="feGaussianBlur3676" />
    </filter>
  </defs>
  <sodipodi:namedview
     id="base"
     pagecolor="#ffffff"
     bordercolor="#666666"
     borderopacity="1.0"
     inkscape:pageopacity="0.0"
     inkscape:pageshadow="2"
     inkscape:zoom="0.68"
     inkscape:cx="321.04586"
     inkscape:cy="280.88927"
     inkscape:document-units="px"
     inkscape:current-layer="layer1"
     showgrid="false"
     inkscape:window-width="1366"
     inkscape:window-height="695"
     inkscape:window-x="0"
     inkscape:window-y="0"
     inkscape:window-maximized="1"
     showborder="true"
     inkscape:showpageshadow="false"
     borderlayer="true" />
  <metadata
     id="metadata7">
    <rdf:RDF>
      <cc:Work
         rdf:about="">
        <dc:format>image/svg+xml</dc:format>
        <dc:type
           rdf:resource="http://purl.org/dc/dcmitype/StillImage" />
        <dc:title></dc:title>
      </cc:Work>
    </rdf:RDF>
  </metadata>
  <g
     inkscape:label="Layer 1"
     inkscape:groupmode="layer"
     id="layer1"
     transform="translate(0,-540.36218)">
    <g
       id="g3824"
       transform="translate(563.14285,8.2856877)">
      <g
         id="g3803">
        <rect
           style="fill:#838383;fill-opacity:1;stroke:none"
           id="rect2995"
           width="494.28571"
           height="340.00003"
           x="-554.28571"
           y="649.50507"
           ry="26.697392" />
        <rect
           style="fill:#838383;fill-opacity:1;stroke:none"
           id="rect2995-7"
           width="231.42856"
           height="120.00002"
           x="-554.28571"
           y="586.64789"
           ry="27.535999" />
        <rect
           style="fill:#838383;fill-opacity:1;stroke:none"
           id="rect2995-7-9"
           width="223.9482"
           height="107.1562"
           x="-887.48706"
           y="589.37738"
           ry="24.58877"
           transform="matrix(0.99021163,-0.13957408,0.55334946,0.8329492,0,0)" />
      </g>
      <path
         inkscape:connector-curvature="0"
         d="m -273.14848,654.68194 c -1.27111,-0.0591 -2.54362,-0.0323 -3.81537,-0.0376 -1.61967,0.0411 -3.23865,-0.17486 -4.833,-0.51317 -1.91999,-0.24572 -3.77621,-0.87251 -5.65674,-1.37107 -1.62663,-0.40755 -3.13578,-1.20057 -4.65112,-2.00016 -1.09908,-0.72474 -2.31267,-1.23899 -3.32696,-2.1368 -0.93278,-0.84261 -1.88337,-1.63668 -2.85659,-2.40829 -0.98448,-0.78379 -1.94999,-1.61137 -2.88728,-2.47937 -1.19813,-0.98345 -2.45738,-1.85181 -3.59027,-2.94792 -0.95738,-0.80493 -1.85239,-1.71517 -2.71793,-2.66194 -0.82723,-0.92026 -1.55022,-1.96782 -2.28448,-2.99676 -0.59899,-0.96984 -1.02241,-2.07229 -1.5555,-3.0943 -0.34413,-0.90811 -0.84627,-1.7132 -1.16241,-2.63551 -0.21767,-0.73243 -0.55318,-1.38748 -0.93736,-2.00289 -0.14008,-0.38433 -0.42095,-0.62307 -0.59702,-0.97209 -0.18664,-0.36137 -0.24288,-0.77696 -0.28977,-1.19255 0.0163,-0.0738 -0.0678,-0.66982 0.0142,-0.45776 0,0 6.41318,-4.54103 6.41318,-4.54103 l 0,0 c 0.14078,0.31363 0.16909,0.46729 0.14603,0.81242 9.2e-4,0.27309 -0.008,0.55646 0.10076,0.80283 0.19527,0.31455 0.43329,0.58831 0.56712,0.95491 0.3714,0.70631 0.73846,1.41672 0.99434,2.20009 0.27516,0.88118 0.74491,1.65671 1.06656,2.51245 0.51101,0.98605 0.91094,2.05446 1.48853,2.98871 0.70892,1.00697 1.40536,2.03512 2.23208,2.90218 0.85468,0.93166 1.74007,1.81301 2.66821,2.63338 1.13651,1.08196 2.37606,1.97848 3.59188,2.91815 0.93609,0.83207 1.87623,1.65974 2.84209,2.43886 0.9919,0.75727 1.93973,1.57968 2.89712,2.39995 1.03079,0.7634 2.11244,1.41779 3.19913,2.05229 1.46815,0.79855 2.975,1.44839 4.54405,1.88642 1.86519,0.53772 3.72446,1.06821 5.63496,1.31422 1.59639,0.25947 3.20075,0.4507 4.81338,0.36509 1.29987,-0.006 2.60041,0.0203 3.8997,-0.0376 0,0 -5.95155,5.30484 -5.95155,5.30484 z"
         id="path3822"
         style="fill:#838383;fill-opacity:1;stroke:none" />
    </g>
    <g
       id="layer12"
       transform="matrix(19.218795,0,0,19.218795,-2266.533,-16966.603)"
       style="fill:#ffffff;fill-opacity:1;stroke:none">
      <path
         inkscape:connector-curvature="0"
         id="path15214"
         style="fill:#ffffff;fill-opacity:1;stroke:none"
         d="m 131.25316,921.14636 -4.67452,2.9382 v 4.40815 l 4.67433,2.9382 4.67527,-2.9382 v -4.40815 z m 0,5.60976 -3.40802,-2.03447 3.40802,-2.14293 3.40905,2.14293 z" />
    </g>
  </g>
</svg>
