<?xml version="1.0" encoding="UTF-8" standalone="no"?>
<!-- Created with Inkscape (http://www.inkscape.org/) -->
<svg id="svg7384" xmlns:rdf="http://www.w3.org/1999/02/22-rdf-syntax-ns#" xmlns="http://www.w3.org/2000/svg" height="16" width="16" version="1.1" xmlns:cc="http://creativecommons.org/ns#" xmlns:dc="http://purl.org/dc/elements/1.1/">
 <metadata id="metadata90">
  <rdf:RDF>
   <cc:Work rdf:about="">
    <dc:format>image/svg+xml</dc:format>
    <dc:type rdf:resource="http://purl.org/dc/dcmitype/StillImage"/>
    <dc:title>Gnome Symbolic Icon Theme</dc:title>
   </cc:Work>
  </rdf:RDF>
 </metadata>
 <title id="title9167">Gnome Symbolic Icon Theme</title>
 <g id="layer10" transform="translate(-181,-467)">
  <path id="rect3042" style="block-progression:tb;text-indent:0;color:#bebebe;text-transform:none;fill:#bebebe" d="m184.56 469c-0.85 0-1.56 0.71-1.56 1.56v8.875c0 0.84832 0.71417 1.5625 1.5625 1.5625h7.875c0.84834 0 1.5625-0.71416 1.5625-1.5625v-7.9062-0.40625l-0.28125-0.28125-1.4375-1.5312-0.28-0.32h-0.44zm0.4375 2h6.125l0.88 0.94v7.06h-7z"/>
  <path id="rect6261" style="fill:#bebebe;color:#bebebe" d="m186.93 472.07h3.1326c0.51728 0 0.93371 0.41643 0.93371 0.93371v2.0494c0 0.51727-0.41643 0.93371-0.93371 0.93371h-3.1326c-0.51728 0-0.93371-0.41644-0.93371-0.93371v-2.0494c0-0.52 0.42-0.93 0.93-0.93z"/>
 </g>
</svg>
