<?xml version="1.0" encoding="UTF-8" standalone="no"?>
<!-- Created with Inkscape (http://www.inkscape.org/) -->
<svg id="svg7384" xmlns:rdf="http://www.w3.org/1999/02/22-rdf-syntax-ns#" xmlns="http://www.w3.org/2000/svg" height="16" width="16" version="1.1" xmlns:cc="http://creativecommons.org/ns#" xmlns:dc="http://purl.org/dc/elements/1.1/">
 <metadata id="metadata90">
  <rdf:RDF>
   <cc:Work rdf:about="">
    <dc:format>image/svg+xml</dc:format>
    <dc:type rdf:resource="http://purl.org/dc/dcmitype/StillImage"/>
    <dc:title>Gnome Symbolic Icon Theme</dc:title>
   </cc:Work>
  </rdf:RDF>
 </metadata>
 <title id="title9167">Gnome Symbolic Icon Theme</title>
 <g id="layer10" transform="translate(-221 -448)">
  <path id="rect5222" style="color:#000000;fill:#bebebe" d="m227.03 449c-0.57131 0-1.0312 0.45994-1.0312 1.0312l0.03 10.97c0 0.554 0.446 1 1 1h3.9688c0.554 0 1-0.446 1-1v-8c0-0.554-0.446-1-1-1h-2.9688v-1.9688c0-0.57131-0.42869-1.0312-1-1.0312zm0 4h3.9688v3.0312h-3.9688v-3.0312zm-0.0312 4h1v1h1v-1h1v1h1v1h-1v1h1v1h-1v-1h-1v1h-1v-1h-1v-1h1v-1h-1v-1zm1 2v1h1v-1h-1zm1 0h1v-1h-1v1z"/>
 </g>
</svg>
