<?xml version="1.0" encoding="UTF-8" standalone="no"?>
<svg
   xmlns:osb="http://www.openswatchbook.org/uri/2009/osb"
   xmlns:dc="http://purl.org/dc/elements/1.1/"
   xmlns:cc="http://creativecommons.org/ns#"
   xmlns:rdf="http://www.w3.org/1999/02/22-rdf-syntax-ns#"
   xmlns:svg="http://www.w3.org/2000/svg"
   xmlns="http://www.w3.org/2000/svg"
   xmlns:sodipodi="http://sodipodi.sourceforge.net/DTD/sodipodi-0.dtd"
   xmlns:inkscape="http://www.inkscape.org/namespaces/inkscape"
   height="16"
   version="1.1"
   width="16"
   enable-background="new"
   id="svg2"
   inkscape:version="0.48.4 r9939"
   sodipodi:docname="user-trash-full-symbolic.svg">
  <sodipodi:namedview
     pagecolor="#ffffff"
     bordercolor="#666666"
     borderopacity="1"
     objecttolerance="10"
     gridtolerance="10"
     guidetolerance="10"
     inkscape:pageopacity="0"
     inkscape:pageshadow="2"
     inkscape:window-width="1366"
     inkscape:window-height="695"
     id="namedview14"
     showgrid="false"
     inkscape:zoom="20.899583"
     inkscape:cx="-0.39058904"
     inkscape:cy="7.5939078"
     inkscape:window-x="0"
     inkscape:window-y="0"
     inkscape:window-maximized="1"
     inkscape:current-layer="layer1" />
  <metadata
     id="metadata90">
    <rdf:RDF>
      <cc:Work
         rdf:about="">
        <dc:format>image/svg+xml</dc:format>
        <dc:type
           rdf:resource="http://purl.org/dc/dcmitype/StillImage" />
      </cc:Work>
    </rdf:RDF>
  </metadata>
  <defs
     id="defs7386">
    <linearGradient
       id="linearGradient5606"
       osb:paint="solid">
      <stop
         id="stop5608" />
    </linearGradient>
  </defs>
  <g
     inkscape:groupmode="layer"
     id="layer1"
     inkscape:label="places"
     transform="translate(-442.00005,-253.007)">
    <path
       inkscape:connector-curvature="0"
       d="m 444.50005,257.8 0,9.27273 c 5e-5,0.48549 0.47642,0.92722 1,0.92727 l 8,0 1,0 c 0,0 1,0 1,-0.92727 l 0,-7.41818 0,-1.85455 -1,0 0,9.27273 -8.66167,0.0628 -0.33833,-9.3355 z"
       id="path8523"
       sodipodi:nodetypes="ccccccccccccc"
       style="color:#000000;fill:#bebebe;stroke-width:2" />
    <path
       inkscape:connector-curvature="0"
       d="m 443.5313,256.74432 0,0 12.9375,0 0,0 c 0,-1.37216 -1,-1.37216 -1,-1.37216 l -3,0 c 0,0 0,-1.37216 -1,-1.37216 l -3,0 c -1,0 -1,1.37216 -1,1.37216 l -3,0 c 0,0 -0.9375,0 -0.9375,1.37216 z"
       id="path8525"
       sodipodi:nodetypes="ccccccccccc"
       style="color:#000000;fill:#bebebe;stroke-width:2" />
    <path
       inkscape:connector-curvature="0"
       d="m 445.34973,267.38956 9.30064,0 0,-9.58709 -9.30064,0 z"
       id="path6047"
       sodipodi:nodetypes="ccccc"
       style="color:#000000;fill:#bebebe;stroke-width:2" />
  </g>
</svg>
