<?xml version="1.0" encoding="UTF-8" standalone="no"?>
<!-- Created with Inkscape (http://www.inkscape.org/) -->
<svg id="svg7384" xmlns:rdf="http://www.w3.org/1999/02/22-rdf-syntax-ns#" xmlns="http://www.w3.org/2000/svg" height="16.002" width="16.004" version="1.1" xmlns:cc="http://creativecommons.org/ns#" xmlns:dc="http://purl.org/dc/elements/1.1/">
 <metadata id="metadata90">
  <rdf:RDF>
   <cc:Work rdf:about="">
    <dc:format>image/svg+xml</dc:format>
    <dc:type rdf:resource="http://purl.org/dc/dcmitype/StillImage"/>
    <dc:title>Gnome Symbolic Icon Theme</dc:title>
   </cc:Work>
  </rdf:RDF>
 </metadata>
 <title id="title9167">Gnome Symbolic Icon Theme</title>
 <g id="layer9" transform="translate(-161 -317)">
  <g id="g9239" transform="translate(-.031334 -.0011864)">
   <rect id="rect8021-7" style="color:#bebebe;fill-opacity:0" transform="rotate(-90)" height="16" width="16" y="160.99" x="-333.05"/>
   <path id="rect13090-4-6-0-6" d="m172.44 319.51-5.9447 5.9116c-1.3009 1.2937-1.9006 2.8076-1.3446 3.3944 0.55604 0.58677 2.051 0.0177 3.352-1.276l5.9447-5.9116c1.3009-1.2937 1.9006-2.8076 1.3446-3.3944-0.55-0.6-2.05-0.03-3.35 1.27z" style="fill:#bebebe"/>
   <g id="g13092-8-7-8-5" style="fill:#bebebe" transform="matrix(-.58472 -.58472 -.64093 .64093 -192.45 965.14)">
    <path id="path13094-9-3-5-6" d="m247.28-781.79-0.0349 1.9486-8.9128-1.1094-8.9792 1.1094-0.0349-1.9486l8.97-4.07z" style="fill:#bebebe"/>
   </g>
   <g id="g13098-1-3-7-8" style="fill:#bebebe" transform="matrix(-.27088 -.27088 -.47580 .47580 -142.53 765.64)">
    <path id="path13100-6-3-1-2" d="m238.33-786.83 9.1156 4.4686-0.0177 1.4777-9.1482-0.77654-9.0893 0.79974v-1.48z" style="fill:#bebebe"/>
   </g>
  </g>
 </g>
</svg>
