<?xml version="1.0" encoding="UTF-8" standalone="no"?>
<!-- Created with Inkscape (http://www.inkscape.org/) -->
<svg id="svg7384" xmlns:rdf="http://www.w3.org/1999/02/22-rdf-syntax-ns#" xmlns="http://www.w3.org/2000/svg" height="16" width="16" version="1.1" xmlns:cc="http://creativecommons.org/ns#" xmlns:dc="http://purl.org/dc/elements/1.1/">
 <metadata id="metadata90">
  <rdf:RDF>
   <cc:Work rdf:about="">
    <dc:format>image/svg+xml</dc:format>
    <dc:type rdf:resource="http://purl.org/dc/dcmitype/StillImage"/>
    <dc:title>Gnome Symbolic Icon Theme</dc:title>
   </cc:Work>
  </rdf:RDF>
 </metadata>
 <title id="title9167">Gnome Symbolic Icon Theme</title>
 <g id="layer9" transform="translate(-121.03 -397)">
  <path id="rect4897-9" style="fill:#bebebe" d="m123.53 398c-0.29309 0-0.64673 0.036-1 0.3125-0.35327 0.27647-0.53125 0.76875-0.53125 1.125v12.031c0 0.384 0.12769 0.81517 0.4375 1.125 0.28542 0.28544 0.70914 0.38602 1.0938 0.375v0.0312h0.0937 4.4375v-2h-4.0625v-11h0.96875v-2h-1.4375zm8.4688 0v2h1.0312v4.0312h2v-4.6562c0-0.33333-0.11893-0.72959-0.40625-1s-0.6689-0.375-0.96875-0.375h-1.6562zm-6.9375 4.0312v6.9688h3v-4.9688h3.9688v-2h-6.9688z"/>
  <rect id="rect4899-7" style="fill:#bebebe" rx=".53033" ry=".53033" height="4" width="5.0625" y="397" x="126.03"/>
  <path id="path10898-3-1-1-6" style="color:#bebebe;fill:#f57900" d="m129.91 405c-0.49245 0-0.875 0.38256-0.875 0.875v6.25c0 0.49244 0.38255 0.875 0.875 0.875h6.25c0.49245 0 0.875-0.38256 0.875-0.875v-6.25c0-0.49244-0.38255-0.875-0.875-0.875h-6.25zm2.125 1h2v4h-2v-4zm0 5h2v1h-2v-1z" class="warning"/>
 </g>
</svg>
