<?xml version="1.0" encoding="UTF-8" standalone="no"?>
<!-- Created with Inkscape (http://www.inkscape.org/) -->
<svg id="svg7384" xmlns:rdf="http://www.w3.org/1999/02/22-rdf-syntax-ns#" xmlns="http://www.w3.org/2000/svg" height="16" width="16" version="1.1" xmlns:cc="http://creativecommons.org/ns#" xmlns:dc="http://purl.org/dc/elements/1.1/">
 <metadata id="metadata90">
  <rdf:RDF>
   <cc:Work rdf:about="">
    <dc:format>image/svg+xml</dc:format>
    <dc:type rdf:resource="http://purl.org/dc/dcmitype/StillImage"/>
    <dc:title>Gnome Symbolic Icon Theme</dc:title>
   </cc:Work>
  </rdf:RDF>
 </metadata>
 <title id="title9167">Gnome Symbolic Icon Theme</title>
 <g id="layer9" transform="translate(-181.03 -397)">
  <path id="rect4897-9-4" style="fill:#bebebe" d="m183.53 398c-0.29309 0-0.64673 0.036-1 0.3125-0.35327 0.27647-0.53125 0.76875-0.53125 1.125v12.031c0 0.384 0.12769 0.81517 0.4375 1.125 0.28542 0.28544 0.70914 0.38602 1.0938 0.375v0.0312h0.0937 7.4062v-2h-7.0312v-11h0.96875v-2zm8.4688 0v2h1.0312v7h2v-7.625c0-0.33333-0.11893-0.72959-0.40625-1s-0.6689-0.375-0.96875-0.375z"/>
  <rect id="rect4899-7-8" style="fill:#bebebe" rx=".53033" ry=".53033" height="4" width="5.0625" y="397" x="186.03"/>
  <path id="path3761-2-3-5-4-8-9-8-9-9-0-6" style="color:#bebebe;fill:#bebebe" d="m192 408h1.375l1.125 1.0938 1.09-1.09h1.41v1.4688l-1.0938 1.0625 1.09 1.06v1.41h-1.44l-1.06-1.06-1.06 1.06h-1.44v-1.4062l1.0625-1.0625-1.06-1.06v-1.47z"/>
 </g>
</svg>
