#define desk_width 14
#define desk_height 14
static unsigned char desk_bits[] = {
   0x00, 0x00, 0x00, 0x00, 0x00, 0x00, 0x00, 0x06, 0x20, 0x06, 0xe0, 0x07,
   0xfe, 0x07, 0xfe, 0x07, 0xe0, 0x07, 0x20, 0x06, 0x00, 0x06, 0x00, 0x00,
   0x00, 0x00, 0x00, 0x00 };
