<?xml version="1.0" encoding="UTF-8" standalone="no"?>
<!-- Created with Inkscape (http://www.inkscape.org/) -->
<svg id="svg7384" xmlns:rdf="http://www.w3.org/1999/02/22-rdf-syntax-ns#" xmlns="http://www.w3.org/2000/svg" height="16" width="16" version="1.1" xmlns:cc="http://creativecommons.org/ns#" xmlns:dc="http://purl.org/dc/elements/1.1/">
 <metadata id="metadata90">
  <rdf:RDF>
   <cc:Work rdf:about="">
    <dc:format>image/svg+xml</dc:format>
    <dc:type rdf:resource="http://purl.org/dc/dcmitype/StillImage"/>
    <dc:title>Gnome Symbolic Icon Theme</dc:title>
   </cc:Work>
  </rdf:RDF>
 </metadata>
 <title id="title9167">Gnome Symbolic Icon Theme</title>
 <g id="layer12" transform="translate(-41 -827)">
  <g id="g11938" transform="translate(-116.38 67.098)">
   <title id="title11940">go-home</title>
   <g id="g11942" style="fill:#bebebe" transform="matrix(.026036 0 0 .026036 345.97 902.08)"></g>
  </g>
  <path id="path11952" style="block-progression:tb;text-indent:0;color:#000000;text-transform:none;fill:#bebebe" d="m49 830c-0.17669 0-0.40743 0.0571-0.53125 0.125l-6.844 3.88c-0.53652 0.21937-0.78018 0.96309-0.5 1.4688 0.28018 0.50564 1.0275 0.64744 1.5 0.3125l0.375-0.21875v5.75c-0.002 0.35662 0.32697 0.68952 0.6875 0.6875h2.625c0.36053 0.002 0.68954-0.33088 0.6875-0.6875v-4.3125h4v4.2812c-0.002 0.34649 0.30624 0.70487 0.65625 0.71875 1.503 0.0171 0.88853 0 2.6562 0 0.36053 0.002 0.68954-0.33088 0.6875-0.6875v-5.7812l0.4375 0.25c0.47021 0.26638 1.17 0.0931 1.4375-0.375 0.26753-0.46819 0.064-1.1398-0.40625-1.4062l-6.844-3.88c-0.187-0.1-0.448-0.12-0.625-0.12z"/>
 </g>
</svg>
