<?xml version="1.0" encoding="UTF-8" standalone="no"?>
<!-- Created with Inkscape (http://www.inkscape.org/) -->
<svg id="svg7384" xmlns:rdf="http://www.w3.org/1999/02/22-rdf-syntax-ns#" xmlns="http://www.w3.org/2000/svg" height="16" width="16" version="1.1" xmlns:cc="http://creativecommons.org/ns#" xmlns:dc="http://purl.org/dc/elements/1.1/">
 <metadata id="metadata90">
  <rdf:RDF>
   <cc:Work rdf:about="">
    <dc:format>image/svg+xml</dc:format>
    <dc:type rdf:resource="http://purl.org/dc/dcmitype/StillImage"/>
    <dc:title>Gnome Symbolic Icon Theme</dc:title>
   </cc:Work>
  </rdf:RDF>
 </metadata>
 <title id="title9167">Gnome Symbolic Icon Theme</title>
 <g id="layer12" transform="translate(-360 -666)">
  <path id="rect3783-5" style="fill:#bebebe" d="m361 666v2c0.55228 0 1 0.44772 1 1s-0.44772 1-1 1v1c0.55229 0 1 0.44772 1 1s-0.44771 1-1 1v1c0.55228 0 1 0.44772 1 1s-0.44772 1-1 1v1c0.55228 0 1 0.44772 1 1s-0.44772 1-1 1v2h2c0-0.55228 0.44772-1 1-1s1 0.44772 1 1h1c0-0.55228 0.44772-1 1-1s1 0.44772 1 1h1c0-0.55228 0.44772-1 1-1 0.55229 0 1 0.44772 1 1h1c0-0.55228 0.44771-1 1-1s1 0.44772 1 1h2v-2c-0.55229 0-1-0.44772-1-1s0.44771-1 1-1v-1c-0.55229 0-1-0.44772-1-1s0.44771-1 1-1v-1c-0.55229 0-1-0.44772-1-1s0.44771-1 1-1v-1c-0.55229 0-1-0.44772-1-1s0.44771-1 1-1v-2h-2c0 0.55228-0.44771 1-1 1s-1-0.44772-1-1h-1c0 0.55228-0.44771 1-1 1-0.55228 0-1-0.44772-1-1h-1c0 0.55228-0.44772 1-1 1s-1-0.44772-1-1h-1c0 0.55228-0.44772 1-1 1s-1-0.44772-1-1h-2zm2 2h11v11h-2v-2.8125c0-1.1096-0.91184-2.0126-2-2.0938v0.9375h-2.9375v-0.9375c-1.0882 0.0811-2.0625 0.98414-2.0625 2.0938v2.8125h-2v-11z"/>
  <path id="path20580-9" style="color:#bebebe;fill:#bebebe" d="m52 342.5a2.5 2.5 0 1 1 -5 0 2.5 2.5 0 1 1 5 0z" transform="translate(319 329)"/>
 </g>
</svg>
