<?xml version="1.0" encoding="UTF-8" standalone="no"?>
<!-- Created with Inkscape (http://www.inkscape.org/) -->

<svg
   xmlns:dc="http://purl.org/dc/elements/1.1/"
   xmlns:cc="http://creativecommons.org/ns#"
   xmlns:rdf="http://www.w3.org/1999/02/22-rdf-syntax-ns#"
   xmlns:svg="http://www.w3.org/2000/svg"
   xmlns="http://www.w3.org/2000/svg"
   xmlns:sodipodi="http://sodipodi.sourceforge.net/DTD/sodipodi-0.dtd"
   xmlns:inkscape="http://www.inkscape.org/namespaces/inkscape"
   id="svg7384"
   height="16.024"
   width="16"
   version="1.1"
   inkscape:version="0.48.4 r9939"
   sodipodi:docname="system-shutdown-symbolic.svg">
  <defs
     id="defs10" />
  <sodipodi:namedview
     pagecolor="#ffffff"
     bordercolor="#666666"
     borderopacity="1"
     objecttolerance="10"
     gridtolerance="10"
     guidetolerance="10"
     inkscape:pageopacity="0"
     inkscape:pageshadow="2"
     inkscape:window-width="1366"
     inkscape:window-height="695"
     id="namedview8"
     showgrid="false"
     inkscape:zoom="14.727908"
     inkscape:cx="-3.8143052"
     inkscape:cy="8.0120001"
     inkscape:window-x="0"
     inkscape:window-y="0"
     inkscape:window-maximized="1"
     inkscape:current-layer="svg7384" />
  <metadata
     id="metadata90">
    <rdf:RDF>
      <cc:Work
         rdf:about="">
        <dc:format>image/svg+xml</dc:format>
        <dc:type
           rdf:resource="http://purl.org/dc/dcmitype/StillImage" />
        <dc:title>Gnome Symbolic Icon Theme</dc:title>
      </cc:Work>
    </rdf:RDF>
  </metadata>
  <title
     id="title9167">Gnome Symbolic Icon Theme</title>
  <g
     id="layer12"
     transform="translate(-100 -685.98)"
     style="fill:#505050;fill-opacity:1">
    <path
       id="path3869-2"
       style="block-progression:tb;text-indent:0;color:#000000;text-transform:none;fill:#505050;fill-opacity:1"
       d="m104.84 687.81a0.99998 1.0002 0 0 0 -0.34813 0.13393c-1.0534 0.60965-1.9314 1.466-2.544 2.5179-1.9396 3.3304-0.81232 7.6493 2.5173 9.5893s7.6475 0.8125 9.587-2.5179c1.9396-3.3304 0.81232-7.6493-2.5173-9.5893a1.0081 1.0084 0 1 0 -1.0176 1.7411c2.3957 1.3959 3.1898 4.4341 1.7942 6.8304s-4.433 3.1905-6.8288 1.7946c-2.3854-1.3899-3.1918-4.4121-1.821-6.8036l0.0268-0.0268c0.43759-0.75138 1.0685-1.3859 1.821-1.8214a0.99998 1.0002 0 0 0 -0.66949 -1.8482z" />
    <path
       id="path4710"
       style="block-progression:tb;text-indent:0;color:#000000;text-transform:none;fill:#505050;fill-opacity:1"
       d="m107.78 686a1.0001 1.0001 0 0 0 -0.78 1v5a1.0001 1.0001 0 1 0 2 0v-5a1.0001 1.0001 0 0 0 -1.2188 -1z" />
  </g>
</svg>
